<svg xmlns="http://www.w3.org/2000/svg" width="24" height="22" viewBox="0 0 24 22">
  <path id="iconmonstr-building-14" d="M7,23H2V14.234L7.7,9.313,9.409,10.7,16,5l6,5.236V23H17V20H15v3H9V20H7Zm13-2V11.145l-4.006-3.5L9.452,13.3,7.74,11.919,4,15.15V21H5V18h6v3h2V18h6v3Zm-7-6h2v2H13ZM5,15H7v2H5Zm12,0h2v2H17Zm-6,0v2H9V15Zm2-3h2v2H13Zm4,0h2v2H17ZM9.358,6.747,16,1l8,7L22.671,9.495,16,3.676,9.376,9.414,7.7,8,1.329,13.495,0,12,7.7,5.324l1.66,1.423Z" transform="translate(0 -1)" fill="#a0a0a0" fill-rule="evenodd"/>
</svg>
