<?xml version="1.0" encoding="utf-8"?>
<!-- Generator: Adobe Illustrator 26.1.0, SVG Export Plug-In . SVG Version: 6.00 Build 0)  -->
<svg version="1.1" id="Layer_1" xmlns="http://www.w3.org/2000/svg" xmlns:xlink="http://www.w3.org/1999/xlink" x="0px" y="0px"
	 width="14px" height="24px" viewBox="0 0 14 24" style="enable-background:new 0 0 14 24;" xml:space="preserve">
<style type="text/css">
	.st0{fill:#E94E1D;}
</style>
<path id="iconmonstr-light-bulb-6" class="st0" d="M14,6.7c0,4.2-3.8,7-3.8,10.3h-2c0.2-2,0.8-3.9,2-5.5C11.1,9.9,12,8.4,12,6.7
	C12,4.1,9.9,2,7.3,2C7.2,2,7.1,2,7,2C4.4,1.8,2.2,3.8,2,6.4c0,0.1,0,0.2,0,0.3c0,1.7,0.9,3.2,1.8,4.8c1.1,1.6,1.8,3.5,2,5.5h-2
	C3.8,13.7,0,10.9,0,6.7C0,2.4,3.5,0,7,0S14,2.4,14,6.7z M10,18.5c0,0.3-0.2,0.5-0.5,0.5h-5C4.2,19,4,18.8,4,18.5S4.2,18,4.5,18h5
	C9.8,18,10,18.2,10,18.5z M10,20.5c0,0.3-0.2,0.5-0.5,0.5h-5C4.2,21,4,20.8,4,20.5S4.2,20,4.5,20h5C9.8,20,10,20.2,10,20.5z
	 M8.3,23.7C8.1,23.9,7.8,24,7.5,24H6.5c-0.3,0-0.6-0.1-0.8-0.3L4.2,22h5.5L8.3,23.7z M10.3,4.9C9.8,5.2,9.4,5.6,9.3,6.2
	C8.7,7.8,9.6,9.1,9,10.6C8.7,11.4,8,12,7.1,12c-0.2,1.7,0,3.4,0.5,5H6.6c-0.6-3-0.2-6,1-8.8c-0.9,1-1.6,2.2-1.8,3.6
	C3.1,10.2,5.1,4.9,10.3,4.9L10.3,4.9z"/>
</svg>
