<?xml version="1.0" encoding="utf-8"?>
<!-- Generator: Adobe Illustrator 26.1.0, SVG Export Plug-In . SVG Version: 6.00 Build 0)  -->
<svg version="1.1" id="Layer_1" xmlns="http://www.w3.org/2000/svg" xmlns:xlink="http://www.w3.org/1999/xlink" x="0px" y="0px"
	 width="24px" height="22px" viewBox="0 0 24 22" style="enable-background:new 0 0 24 22;" xml:space="preserve">
<style type="text/css">
	.st0{fill-rule:evenodd;clip-rule:evenodd;fill:#E94E1D;}
</style>
<path id="iconmonstr-construction-8" class="st0" d="M24,22H4c-2.2,0-4-1.8-4-4V2.3C0.4,0.9,1.6,0,3,0c1.4,0,2.7,0.9,3,2.3L6,4h18
	V22z M22,6H6v11c-0.4-0.6-1.2-1-1.9-1C3,16,2,16.9,2,18c0,1.1,0.9,2,2,2h18V6z M20,18H8V8h12V18z M12,9H9v8h10V9h-6v3h6v1h-2v3h-1
	v-3h-3v3h-1V9z"/>
</svg>
