<?xml version="1.0" encoding="UTF-8"?><svg id="a" xmlns="http://www.w3.org/2000/svg" viewBox="0 0 37 45" width="37" height="45"><defs><style>.b{fill:#fff;}.c{fill:none;opacity:.3;stroke:#fff;stroke-miterlimit:10;}.d{fill:#cfb24c;}</style></defs><path class="d" d="M37,18.5c0,9.55-7.23,17.4-16.51,18.39l-1.99,8.11-1.99-8.11C7.23,35.9,0,28.05,0,18.5,0,8.29,8.28,0,18.5,0s18.5,8.29,18.5,18.5Z"/><circle class="c" cx="18.5" cy="18.5" r="16.04"/><path class="b" d="M12.52,16.32v-4.15c0-.1,.04-.18,.1-.25,.07-.07,.15-.1,.25-.1h1.67c.1,0,.18,.04,.25,.1,.07,.07,.1,.15,.1,.25v2.18l2.66-2.21c.28-.22,.59-.33,.93-.33s.64,.11,.9,.33l7.59,6.24c.06,.06,.09,.14,.1,.24,.01,.1-.01,.19-.07,.27l-.75,.93c-.06,.08-.14,.12-.24,.12s-.19-.03-.27-.09l-7.02-5.77c-.08-.06-.16-.09-.24-.09s-.16,.03-.24,.09l-7.02,5.77c-.08,.06-.17,.09-.27,.09s-.18-.04-.24-.12l-.75-.93c-.06-.08-.08-.17-.07-.27,0-.1,.04-.18,.1-.24l2.51-2.06Zm0,8.16c0,.2,.07,.37,.21,.51,.14,.14,.31,.21,.51,.21h3.47c.1,0,.18-.04,.25-.1s.1-.15,.1-.25v-3.35c0-.1,.03-.18,.1-.25,.07-.07,.15-.1,.25-.1h2.15c.1,0,.18,.04,.25,.1,.07,.07,.1,.15,.1,.25v3.35c0,.1,.03,.18,.1,.25s.15,.1,.25,.1h3.47c.2,0,.37-.07,.51-.21,.14-.14,.21-.31,.21-.51v-4.27c0-.12-.04-.22-.12-.3l-5.62-4.6c-.08-.06-.16-.09-.24-.09s-.16,.03-.24,.09l-5.62,4.6c-.08,.08-.12,.18-.12,.3v4.27Z"/></svg>