<?xml version="1.0" standalone="no"?>
<!DOCTYPE svg PUBLIC "-//W3C//DTD SVG 1.1//EN" "http://www.w3.org/Graphics/SVG/1.1/DTD/svg11.dtd" >
<svg xmlns="http://www.w3.org/2000/svg" xmlns:xlink="http://www.w3.org/1999/xlink" version="1.1">
<metadata>
Created by FontForge 20170731 at Fri Oct  8 08:33:09 2021
 By Aleksey,,,
Copyright 2021, Kris Sowersby, Klim Type Foundry.
</metadata>
<defs>
<font id="TiemposText-Regular" horiz-adv-x="1228" >
  <font-face 
    font-family="Tiempos Text Regular"
    font-weight="400"
    font-stretch="normal"
    units-per-em="2048"
    panose-1="2 2 5 3 6 3 3 6 4 3"
    ascent="1638"
    descent="-410"
    x-height="1085"
    cap-height="1438"
    bbox="-377 -471 2609 2101"
    underline-thickness="61"
    underline-position="-286"
    unicode-range="U+0020-FB04"
  />
<missing-glyph horiz-adv-x="1966" 
 />
    <glyph glyph-name="ff" unicode="ff" horiz-adv-x="1411" 
d="M676 1544q103 0 186.5 -33t134.5 -84q107 142 303 142q106 0 170 -42.5t64 -117.5q0 -34 -18.5 -62t-47.5 -44h-102v53q0 131 -113 131q-153 0 -153 -299v-107h268v-104h-268v-780q0 -22 4 -38.5t9 -28t19 -20.5t25.5 -14.5t37.5 -10t45 -7t58 -6.5v-72h-544v72
q34 5 51.5 8t41.5 11t35.5 19t20 31t8.5 47v789h-483v-789q0 -27 8.5 -47t20 -31t35 -19t41.5 -11t53 -8v-72h-504v72q34 5 51.5 8t42 11t36 19t20 31t8.5 47v789h-152v67l152 54v24q0 186 125.5 304t310.5 118zM911 1135q0 77 17 141q-37 80 -106.5 132t-153.5 52
q-111 0 -175.5 -74t-64.5 -210v-95h483v54z" />
    <glyph glyph-name="fi" unicode="fi" horiz-adv-x="1329" 
d="M586 0h-504v72q34 5 51.5 8t42 11t36 19t20 31t8.5 47v789h-152v67l152 54v28q0 197 121.5 320t320.5 123q132 0 211.5 -40.5t79.5 -119.5q0 -74 -70 -115h-119v52q0 77 -33.5 110t-107.5 33q-93 0 -154 -80.5t-61 -232.5v-95h569l58 25h45v-918q0 -27 8.5 -47t19.5 -31
t35 -19t41.5 -11t52.5 -8v-72h-503v72q34 5 51.5 8t41.5 11t35.5 19t20 31t8.5 47v789h-483v-789q0 -27 8.5 -47t20 -31t35 -19t41.5 -11t53 -8v-72z" />
    <glyph glyph-name="fl" unicode="fl" horiz-adv-x="1327" 
d="M240 188v789h-152v67l152 54v37q0 189 117 311.5t298 122.5q148 0 248 -76l146 66h51v-1371q0 -27 8.5 -47t20 -31t35.5 -19t41.5 -11t51.5 -8v-72h-505v72q35 5 53 8t42 11t35.5 19t20 31t8.5 47v1121q-40 82 -108 131t-156 49q-107 0 -163 -80t-56 -221v-103h270v-108
h-270v-789q0 -27 8.5 -47t20 -31t35 -19t41.5 -11t53 -8v-72h-504v72q34 5 51.5 8t42 11t36 19t20 31t8.5 47z" />
    <glyph glyph-name="ffi" unicode="ffi" horiz-adv-x="2000" 
d="M676 1544q109 0 195.5 -36t136.5 -91q58 72 147 112t199 40q132 0 211.5 -40.5t79.5 -119.5q0 -74 -70 -115h-119v52q0 77 -33.5 110t-107.5 33q-93 0 -154 -80.5t-61 -232.5v-95h569l57 25h46v-918q0 -27 8.5 -47t19.5 -31t35 -19t41.5 -11t52.5 -8v-72h-504v72
q34 5 51.5 8t42 11t36 19t20 31t8.5 47v789h-483v-789q0 -27 8.5 -47t19.5 -31t35 -19t41.5 -11t52.5 -8v-72h-503v72q34 5 51.5 8t41.5 11t35.5 19t20 31t8.5 47v789h-483v-789q0 -27 8.5 -47t20 -31t35 -19t41.5 -11t53 -8v-72h-504v72q34 5 51.5 8t42 11t36 19t20 31
t8.5 47v789h-152v67l152 54v24q0 186 125.5 304t310.5 118zM428 1176v-95h483v45q0 71 19 142q-36 82 -106.5 137t-155.5 55q-111 0 -175.5 -74t-64.5 -210z" />
    <glyph glyph-name="ffl" unicode="ffl" horiz-adv-x="1998" 
d="M240 1098v24q0 186 125.5 304t310.5 118q108 0 194.5 -35t135.5 -90q118 150 321 150q148 0 248 -76l145 66h52v-1371q0 -27 8.5 -47t20 -31t35.5 -19t41.5 -11t51.5 -8v-72h-506v72q35 5 53 8t42.5 11t36 19t20 31t8.5 47v1121q-40 82 -108 131t-156 49q-107 0 -163 -80
t-56 -221v-103h270v-108h-270v-789q0 -27 8.5 -47t19.5 -31t35 -19t41.5 -11t52.5 -8v-72h-503v72q34 5 51.5 8t41.5 11t35.5 19t20 31t8.5 47v789h-483v-789q0 -27 8.5 -47t20 -31t35 -19t41.5 -11t53 -8v-72h-504v72q34 5 51.5 8t42 11t36 19t20 31t8.5 47v789h-152v67z
M911 1135q0 67 19 135q-36 82 -106 136t-156 54q-111 0 -175.5 -74t-64.5 -210v-95h483v54z" />
    <glyph glyph-name="f_b" unicode="fb" horiz-adv-x="1955" 
d="M911 117v1192q-40 82 -108 131t-156 49q-107 0 -163 -80t-56 -221v-103h270v-108h-270v-789q0 -27 8.5 -47t20 -31t35 -19t41.5 -11t53 -8v-72h-504v72q34 5 51.5 8t42 11t36 19t20 31t8.5 47v789h-152v67l152 54v37q0 189 117 311.5t298 122.5q148 0 248 -76l146 66h51
v-631q137 178 348 178q103 0 185 -40t134 -110t79.5 -162.5t27.5 -199.5q0 -139 -41.5 -255.5t-112.5 -194.5t-166.5 -121t-203.5 -43q-143 0 -256.5 39t-182.5 98zM1364 74q144 0 233 118.5t89 315.5q0 90 -18.5 170t-55 146.5t-100 105.5t-146.5 39q-79 0 -150 -26.5
t-116 -74.5v-510q0 -284 264 -284z" />
    <glyph glyph-name="f_h" unicode="fh" horiz-adv-x="1988" 
d="M911 188v1121q-40 82 -108 131t-156 49q-107 0 -163 -80t-56 -221v-103h270v-108h-270v-789q0 -27 8.5 -47t20 -31t35 -19t41.5 -11t53 -8v-72h-504v72q34 5 51.5 8t42 11t36 19t20 31t8.5 47v789h-152v67l152 54v37q0 189 117 311.5t298 122.5q148 0 248 -76l146 66h51
v-654q45 44 81.5 74t86.5 62t106 48.5t117 16.5q287 0 287 -336v-582q0 -27 8.5 -47t20 -31t35.5 -19t42 -11t53 -8v-72h-505v72q34 5 51.5 8t41.5 11t35.5 19t20 31t8.5 47v568q0 108 -45 153t-145 45q-77 0 -156.5 -30t-142.5 -78v-658q0 -27 8.5 -47t20 -31t35.5 -19
t41.5 -11t51.5 -8v-72h-505v72q35 5 53 8t42 11t35.5 19t20 31t8.5 47z" />
    <glyph glyph-name="f_k" unicode="fk" horiz-adv-x="1849" 
d="M1120 580l340 323q33 33 33 55q0 24 -29.5 33.5t-126.5 22.5v71h465v-71q-61 -13 -95 -29.5t-69 -48.5l-323 -301l526 -580v-55h-207zM911 188v1121q-40 82 -108 131t-156 49q-107 0 -163 -80t-56 -221v-103h270v-108h-270v-789q0 -27 8.5 -47t20 -31t35 -19t41.5 -11
t53 -8v-72h-504v72q34 5 51.5 8t42 11t36 19t20 31t8.5 47v789h-152v67l152 54v37q0 189 117 311.5t298 122.5q148 0 248 -76l146 66h51v-1371q0 -27 8.5 -47t20 -31t35.5 -19t41.5 -11t51.5 -8v-72h-505v72q35 5 53 8t42 11t35.5 19t20 31t8.5 47z" />
    <glyph glyph-name="f_f_b" unicode="ffb" horiz-adv-x="2627" 
d="M1583 117v1192q-40 82 -108 131t-156 49q-107 0 -163 -80t-56 -221v-103h270v-108h-270v-789q0 -27 8.5 -47t19.5 -31t35 -19t41.5 -11t52.5 -8v-72h-503v72q34 5 51.5 8t41.5 11t35.5 19t20 31t8.5 47v789h-483v-789q0 -27 8.5 -47t20 -31t35 -19t41.5 -11t53 -8v-72
h-504v72q34 5 51.5 8t42 11t36 19t20 31t8.5 47v789h-152v67l152 54v24q0 186 125.5 304t310.5 118q108 0 194.5 -35t135.5 -90q118 150 321 150q148 0 248 -76l145 66h52v-631q137 178 348 178q103 0 185 -40t134 -110t79.5 -162.5t27.5 -199.5q0 -139 -41.5 -255.5
t-112.5 -194.5t-167 -121t-204 -43q-143 0 -256 38.5t-182 98.5zM2036 74q143 0 232 118.5t89 315.5q0 90 -18 170t-55 146.5t-100 105.5t-146 39q-79 0 -150 -26.5t-116 -74.5v-510q0 -284 264 -284zM911 1135q0 67 19 135q-36 82 -106 136t-156 54q-111 0 -175.5 -74
t-64.5 -210v-95h483v54z" />
    <glyph glyph-name="f_f_h" unicode="ffh" horiz-adv-x="2660" 
d="M1583 188v1121q-40 82 -108 131t-156 49q-107 0 -163 -80t-56 -221v-103h270v-108h-270v-789q0 -27 8.5 -47t19.5 -31t35 -19t41.5 -11t52.5 -8v-72h-503v72q34 5 51.5 8t41.5 11t35.5 19t20 31t8.5 47v789h-483v-789q0 -27 8.5 -47t20 -31t35 -19t41.5 -11t53 -8v-72
h-504v72q34 5 51.5 8t42 11t36 19t20 31t8.5 47v789h-152v67l152 54v24q0 186 125.5 304t310.5 118q108 0 194.5 -35t135.5 -90q118 150 321 150q148 0 248 -76l145 66h52v-654q45 44 81.5 74t86.5 62t106 48.5t117 16.5q286 0 286 -336v-582q0 -27 8.5 -47t20 -31t36 -19
t42.5 -11t53 -8v-72h-506v72q34 5 51.5 8t42 11t36 19t20 31t8.5 47v568q0 108 -45 153t-145 45q-77 0 -156.5 -30t-142.5 -78v-658q0 -27 8.5 -47t20 -31t35.5 -19t41.5 -11t51.5 -8v-72h-506v72q35 5 53 8t42.5 11t36 19t20 31t8.5 47zM911 1135q0 67 19 135
q-36 82 -106 136t-156 54q-111 0 -175.5 -74t-64.5 -210v-95h483v54z" />
    <glyph glyph-name="f_f_k" unicode="ffk" horiz-adv-x="2521" 
d="M1583 188v1121q-40 82 -108 131t-156 49q-107 0 -163 -80t-56 -221v-103h270v-108h-270v-789q0 -27 8.5 -47t19.5 -31t35 -19t41.5 -11t52.5 -8v-72h-503v72q34 5 51.5 8t41.5 11t35.5 19t20 31t8.5 47v789h-483v-789q0 -27 8.5 -47t20 -31t35 -19t41.5 -11t53 -8v-72
h-504v72q34 5 51.5 8t42 11t36 19t20 31t8.5 47v789h-152v67l152 54v24q0 186 125.5 304t310.5 118q108 0 194.5 -35t135.5 -90q118 150 321 150q148 0 248 -76l145 66h52v-1371q0 -27 8.5 -47t20 -31t35.5 -19t41.5 -11t51.5 -8v-72h-506v72q35 5 53 8t42.5 11t36 19t20 31
t8.5 47zM1792 580l340 323q33 33 33 55q0 24 -29.5 33.5t-126.5 22.5v71h465v-71q-61 -13 -95 -29.5t-69 -48.5l-323 -301l526 -580v-55h-207zM911 1135q0 67 19 135q-36 82 -106 136t-156 54q-111 0 -175.5 -74t-64.5 -210v-95h483v54z" />
    <glyph glyph-name="f_j" unicode="fj" horiz-adv-x="1261" 
d="M911 977h-483v-789q0 -27 8.5 -47t20 -31t35 -19t41.5 -11t53 -8v-72h-504v72q34 5 51.5 8t42 11t36 19t20 31t8.5 47v789h-152v67l152 54v28q0 197 121.5 320t320.5 123q132 0 211.5 -40.5t79.5 -119.5q0 -74 -70 -115h-119v52q0 77 -33.5 110t-107.5 33
q-93 0 -154 -80.5t-61 -232.5v-95h569l58 25h45v-930q0 -126 -9 -194.5t-42 -135.5q-37 -74 -102 -135t-171 -137l-47 51l66 84q74 94 95 183t21 251v834z" />
    <glyph glyph-name="f_f_j" unicode="ffj" horiz-adv-x="1933" 
d="M1583 977h-483v-789q0 -27 8.5 -47t19.5 -31t35 -19t41.5 -11t52.5 -8v-72h-503v72q34 5 51.5 8t41.5 11t35.5 19t20 31t8.5 47v789h-483v-789q0 -27 8.5 -47t20 -31t35 -19t41.5 -11t53 -8v-72h-504v72q34 5 51.5 8t42 11t36 19t20 31t8.5 47v789h-152v67l152 54v24
q0 186 125.5 304t310.5 118q109 0 195.5 -36t136.5 -91q58 72 147 112t199 40q132 0 211.5 -40.5t79.5 -119.5q0 -74 -70 -115h-119v52q0 77 -33.5 110t-107.5 33q-93 0 -154 -80.5t-61 -232.5v-95h569l57 25h46v-930q0 -124 -9.5 -193.5t-42.5 -136.5
q-38 -74 -102.5 -135.5t-169.5 -136.5l-47 51l65 84q74 94 95.5 183.5t21.5 250.5v834zM911 1126q0 71 19 142q-36 82 -106.5 137t-155.5 55q-111 0 -175.5 -74t-64.5 -210v-95h483v45z" />
    <glyph glyph-name="f_idieresis" unicode="f&#xef;" horiz-adv-x="1329" 
d="M1071 1386q0 51 36.5 87t88.5 36t88.5 -36t36.5 -87q0 -54 -36 -90t-89 -36t-89 36t-36 90zM240 1098v37q0 191 113.5 312.5t299.5 121.5q119 0 184.5 -42t65.5 -118q0 -35 -18.5 -67.5t-46.5 -47.5h-133v54q0 139 -99 139q-80 0 -129 -78.5t-49 -220.5v-107h569l58 25
h45v-918q0 -27 8.5 -47t19.5 -31t35 -19t41.5 -11t52.5 -8v-72h-503v72q34 5 51.5 8t41.5 11t35.5 19t20 31t8.5 47v789h-483v-789q0 -27 8.5 -47t20 -31t35 -19t41.5 -11t53 -8v-72h-504v72q34 5 51.5 8t42 11t36 19t20 31t8.5 47v789h-152v67z" />
    <glyph glyph-name="f_f_idieresis" unicode="ff&#xef;" horiz-adv-x="2000" 
d="M676 1544q107 0 193 -35t135 -88q55 70 137.5 109t183.5 39q119 0 184.5 -42t65.5 -118q0 -35 -19 -67.5t-47 -47.5h-133v54q0 139 -98 139q-80 0 -129 -78.5t-49 -220.5v-107h569l57 25h46v-918q0 -27 8.5 -47t19.5 -31t35 -19t41.5 -11t52.5 -8v-72h-504v72
q34 5 51.5 8t42 11t36 19t20 31t8.5 47v789h-483v-789q0 -27 8.5 -47t19.5 -31t35 -19t41.5 -11t52.5 -8v-72h-503v72q34 5 51.5 8t41.5 11t35.5 19t20 31t8.5 47v789h-483v-789q0 -27 8.5 -47t20 -31t35 -19t41.5 -11t53 -8v-72h-504v72q34 5 51.5 8t42 11t36 19t20 31
t8.5 47v789h-152v67l152 54v24q0 186 125.5 304t310.5 118zM911 1081v54q0 64 17 137q-36 81 -106 134.5t-154 53.5q-111 0 -175.5 -74t-64.5 -210v-95h483zM1743 1386q0 51 36.5 87t88.5 36t88.5 -36t36.5 -87q0 -54 -36 -90t-89 -36t-89 36t-36 90z" />
    <glyph glyph-name=".notdef" horiz-adv-x="1966" 
 />
    <glyph glyph-name=".null" horiz-adv-x="0" 
 />
    <glyph glyph-name="nonmarkingreturn" horiz-adv-x="682" 
 />
    <glyph glyph-name="NULL" horiz-adv-x="0" 
 />
    <glyph glyph-name="NULL" horiz-adv-x="0" 
 />
    <glyph glyph-name="space" unicode=" " horiz-adv-x="460" 
 />
    <glyph glyph-name="exclam" unicode="!" horiz-adv-x="598" 
d="M150 129q0 63 43 106.5t106 43.5t106.5 -43.5t43.5 -106.5t-43.5 -106t-106.5 -43t-106 43t-43 106zM432 1438l-88 -1022h-92l-88 1022h268z" />
    <glyph glyph-name="quotedbl" unicode="&#x22;" horiz-adv-x="798" 
d="M246 967h-45l-58 295q-3 15 -11.5 58.5t-13.5 72t-5 43.5q0 59 29 92t81 33t81.5 -33t29.5 -92q0 -15 -5 -44.5t-14 -71t-12 -58.5zM598 967h-45l-57 295q-3 17 -12 58.5t-14 71t-5 44.5q0 59 29 92t81 33t81.5 -33t29.5 -92q0 -15 -5 -44.5t-14 -71t-12 -58.5z" />
    <glyph glyph-name="numbersign" unicode="#" horiz-adv-x="1196" 
d="M989 430h-237l-144 -450l-104 36l131 414h-260l-144 -450l-104 36l131 414h-197v109h232l117 362h-203v109h237l144 450l104 -37l-133 -413h262l144 450l104 -37l-133 -413h199v-109h-234l-115 -362h203v-109zM524 901l-114 -362h260l116 362h-262z" />
    <glyph glyph-name="dollar" unicode="$" horiz-adv-x="1099" 
d="M340 -231l37 221q-183 28 -281 114l-14 345h68q71 -264 247 -336l90 538l-79 35q-58 25 -98.5 46t-84 54.5t-69.5 71t-43 92t-17 121.5q0 167 121.5 277t323.5 110q28 0 82 -4l36 213h93l-39 -227q160 -33 245 -103v-313h-65q-53 222 -201 293l-84 -494l74 -30
q66 -27 111.5 -50t91 -57.5t72.5 -73.5t44 -95t17 -126q0 -128 -68.5 -222.5t-182 -141.5t-255.5 -47q-31 0 -45 2l-35 -213h-92zM598 606l-25 10l-88 -526q14 -2 45 -2q142 0 226 66.5t84 177.5q0 55 -16.5 97.5t-51.5 74.5t-74 54t-100 48zM272 1130q0 -92 50 -150
t155 -101l45 -21l82 485q-40 7 -74 7q-122 0 -190 -60.5t-68 -159.5z" />
    <glyph glyph-name="percent" unicode="%" horiz-adv-x="1771" 
d="M248 1085q0 -59 10.5 -109.5t32 -91.5t59.5 -64t88 -23q67 0 112 41.5t63 104t18 142.5q0 81 -18 143.5t-63 104t-112 41.5q-66 0 -110 -41.5t-62 -104t-18 -143.5zM365 -39l921 1518h121l-922 -1518h-120zM82 1085q0 167 105 270t251 103q147 0 253 -103t106 -270
t-106 -269.5t-253 -102.5q-146 0 -251 102.5t-105 269.5zM1524 354q0 80 -18 143t-62.5 104.5t-110.5 41.5q-51 0 -89 -23.5t-60 -64.5t-32.5 -91.5t-10.5 -109.5t10.5 -109.5t32.5 -91.5t60 -64t89 -23q66 0 110.5 41.5t62.5 104t18 142.5zM1690 354q0 -167 -105.5 -269.5
t-251.5 -102.5q-147 0 -252.5 102.5t-105.5 269.5t105.5 270t252.5 103q146 0 251.5 -103t105.5 -270z" />
    <glyph glyph-name="ampersand" unicode="&#x26;" horiz-adv-x="1415" 
d="M57 377q0 77 24.5 142t70.5 114t102.5 85.5t130.5 67.5q-135 165 -135 326q0 149 101.5 247.5t262.5 98.5q170 0 263.5 -82t93.5 -215q0 -227 -355 -370l385 -441q54 114 54 244q0 77 -23 108t-82 31v80h410v-80q-118 0 -153 -26.5t-50 -120.5q-27 -172 -98 -301l84 -95
q100 -112 217 -112v-78h-248q-68 34 -164 137q-157 -157 -409 -157q-92 0 -176 24.5t-153.5 71.5t-111 125t-41.5 176zM580 82q184 0 313 119l-455 526q-88 -39 -134 -123t-46 -198q0 -145 92.5 -234.5t229.5 -89.5zM406 1167q0 -85 39.5 -156t109.5 -151l8 -10
q125 51 183.5 123t58.5 188q0 96 -53.5 153.5t-147.5 57.5q-91 0 -144.5 -54t-53.5 -151z" />
    <glyph glyph-name="quotesingle" unicode="'" horiz-adv-x="446" 
d="M246 967h-45l-58 295q-3 15 -11.5 58.5t-13.5 72t-5 43.5q0 59 29 92t81 33t81.5 -33t29.5 -92q0 -15 -5 -44.5t-14 -71t-12 -58.5z" />
    <glyph glyph-name="parenleft" unicode="(" horiz-adv-x="692" 
d="M123 643q0 263 105 513.5t300 420.5h103q-185 -198 -261.5 -430t-76.5 -504q0 -271 76.5 -502.5t261.5 -429.5h-103q-196 170 -300.5 419.5t-104.5 512.5z" />
    <glyph glyph-name="parenright" unicode=")" horiz-adv-x="692" 
d="M569 643q0 -263 -104.5 -512.5t-300.5 -419.5h-103q185 198 260.5 429t75.5 503q0 177 -28 328.5t-105 311t-203 294.5h103q195 -170 300 -420.5t105 -513.5z" />
    <glyph glyph-name="asterisk" unicode="*" horiz-adv-x="892" 
d="M754 946l-277 189l27 -332h-115l27 334l-277 -191l-57 101l301 143l-301 143l57 101l277 -191l-27 334h115l-27 -334l277 191l57 -101l-303 -143l303 -143z" />
    <glyph glyph-name="plus" unicode="+" horiz-adv-x="1155" 
d="M514 1208h125v-385h387v-127h-387v-385h-125v385h-385v127h385v385z" />
    <glyph glyph-name="comma" unicode="," horiz-adv-x="581" 
d="M315 12h-77q-93 20 -93 119q0 57 39 93t97 36q74 0 113.5 -52.5t39.5 -135.5q0 -135 -81.5 -224t-250.5 -100v82q111 17 162 62t51 120z" />
    <glyph glyph-name="hyphen" unicode="-" horiz-adv-x="737" 
d="M635 547h-533v155h533v-155z" />
    <glyph glyph-name="period" unicode="." horiz-adv-x="581" 
d="M141 129q0 63 43.5 106.5t106.5 43.5t106 -43.5t43 -106.5t-43 -106t-106 -43t-106.5 43t-43.5 106z" />
    <glyph glyph-name="slash" unicode="/" horiz-adv-x="813" 
d="M735 1577l-567 -1866h-127l567 1866h127z" />
    <glyph glyph-name="zero" unicode="0" horiz-adv-x="1300" 
d="M651 1458q133 0 240 -57.5t175.5 -158t105 -234t36.5 -289.5t-36.5 -289.5t-105 -234t-175.5 -158t-240 -57.5q-134 0 -241.5 57.5t-176 158t-105 234t-36.5 289.5t36.5 289.5t105 234t176 158t241.5 57.5zM651 1356q-76 0 -134.5 -36t-94.5 -95t-59 -143.5t-32 -172
t-9 -190.5t9 -191t32 -172.5t59 -144t94.5 -95.5t134.5 -36q75 0 133.5 36t94.5 95.5t59 144t32 172.5t9 191q0 85 -6.5 159.5t-20.5 148.5t-39.5 132t-60.5 103t-86.5 69.5t-114.5 24.5z" />
    <glyph glyph-name="one" unicode="1" horiz-adv-x="858" 
d="M512 1456h45v-1227q0 -28 3.5 -47t9.5 -34t22 -25t31.5 -16.5t49 -11t63.5 -7.5t85 -6v-82h-747v82q56 4 86 6.5t66 7t52.5 11t35 16.5t26 25t12 34.5t4.5 46.5v951h-282v63l63 8q151 22 226 62.5t149 142.5z" />
    <glyph glyph-name="two" unicode="2" horiz-adv-x="1056" 
d="M274 174h334q57 0 92 3.5t71 15t62 35t53.5 61t57.5 96.5h60l-84 -385h-897v45l358 377q201 212 270.5 334.5t69.5 253.5q0 135 -71.5 207.5t-203.5 72.5q-106 0 -186 -51.5t-160 -140.5l-47 47q34 63 76.5 116t99.5 99t131.5 72t157.5 26q194 0 304 -111.5t110 -299.5
q0 -72 -26.5 -145.5t-65 -133.5t-109.5 -139.5t-130.5 -136.5t-159.5 -153.5t-167 -164.5z" />
    <glyph glyph-name="three" unicode="3" horiz-adv-x="1079" 
d="M584 813q192 -20 307 -126t115 -261q0 -137 -69.5 -240t-182.5 -154.5t-250 -51.5q-215 0 -337 84t-122 202q0 50 26.5 88t63.5 58h111v-70q0 -128 70 -199t200 -71q135 0 208 77.5t73 212.5q0 157 -114.5 240.5t-301.5 83.5h-72l-14 70q78 19 136.5 38.5t115 48.5
t92.5 63.5t58 82.5t22 107q0 96 -62 150t-163 54q-100 0 -181.5 -52.5t-130.5 -139.5l-51 41q58 135 168.5 222t267.5 87q164 0 258.5 -87.5t94.5 -225.5q0 -68 -30.5 -126.5t-81 -98.5t-107 -66.5t-117.5 -40.5z" />
    <glyph glyph-name="four" unicode="4" horiz-adv-x="1239" 
d="M186 475h555v678zM741 229v140h-704v77l801 992h98v-963h248v-106h-248v-140q0 -88 49 -117t164 -32v-80h-621v80q115 3 164 32t49 117z" />
    <glyph glyph-name="five" unicode="5" horiz-adv-x="1054" 
d="M903 1438v-195h-569l-49 -313q119 -6 220 -25.5t188.5 -58.5t148 -94.5t95 -136.5t34.5 -181q0 -201 -129.5 -327.5t-339.5 -126.5q-209 0 -328 84t-119 202q0 50 25.5 88t60.5 58h119v-70q0 -129 64 -199.5t188 -70.5q135 0 208 78.5t73 211.5q0 100 -47.5 176.5
t-134.5 123t-201 70t-254 24.5l108 682h639z" />
    <glyph glyph-name="six" unicode="6" horiz-adv-x="1179" 
d="M967 1391q-288 -84 -457.5 -258t-198.5 -392q67 76 165 121t202 45q188 0 303 -113t115 -311q0 -226 -137.5 -364.5t-352.5 -138.5q-160 0 -278 78t-177 209.5t-59 299.5q0 352 222.5 588t611.5 301zM569 772q-72 0 -143.5 -25.5t-118.5 -60.5q-6 -53 -6 -117
q0 -224 88 -358.5t229 -134.5q133 0 204 91.5t71 252.5q0 168 -84.5 260t-239.5 92z" />
    <glyph glyph-name="seven" unicode="7" horiz-adv-x="1015" 
d="M840 1243h-537q-77 0 -116.5 -27t-80.5 -106h-73l86 328h870v-58l-583 -1380h-224z" />
    <glyph glyph-name="eight" unicode="8" horiz-adv-x="1130" 
d="M993 1114q0 -116 -83.5 -204.5t-198.5 -125.5l71 -34q127 -63 197 -152t70 -217q0 -83 -29 -154t-86.5 -127t-152 -88t-216.5 -32q-216 0 -349.5 106t-133.5 279q0 129 86 221t227 139l-24 12q-113 57 -173.5 138t-60.5 206q0 164 113 270.5t315 106.5q194 0 311 -95
t117 -249zM666 596l-217 102q-183 -112 -183 -333q0 -129 82 -209t217 -80q138 0 221.5 70t83.5 192q0 91 -54 152t-150 106zM502 893l155 -80q89 54 127.5 127t38.5 174q0 114 -70.5 181t-187.5 67q-118 0 -185 -62.5t-67 -164.5q0 -86 44.5 -138.5t144.5 -103.5z" />
    <glyph glyph-name="nine" unicode="9" horiz-adv-x="1179" 
d="M213 47q288 84 457 257.5t198 391.5q-67 -76 -164.5 -121t-201.5 -45q-188 0 -303 113t-115 311q0 226 137 365t352 139q120 0 218 -45t162.5 -124.5t99 -186.5t34.5 -232q0 -352 -222 -587.5t-611 -300.5zM610 666q72 0 143.5 25.5t118.5 60.5q7 61 7 116
q0 224 -88.5 359t-229.5 135q-133 0 -203.5 -91.5t-70.5 -252.5q0 -168 84 -260t239 -92z" />
    <glyph glyph-name="colon" unicode=":" horiz-adv-x="581" 
d="M141 129q0 63 43.5 106.5t106.5 43.5t106 -43.5t43 -106.5t-43 -106t-106 -43t-106.5 43t-43.5 106zM141 784q0 63 43.5 106.5t106.5 43.5t106 -43.5t43 -106.5t-43 -106t-106 -43t-106.5 43t-43.5 106z" />
    <glyph glyph-name="semicolon" unicode=";" horiz-adv-x="581" 
d="M141 784q0 63 43.5 106.5t106.5 43.5t106 -43.5t43 -106.5t-43 -106t-106 -43t-106.5 43t-43.5 106zM315 12h-77q-93 20 -93 119q0 57 39 93t97 36q74 0 113.5 -52.5t39.5 -135.5q0 -135 -81.5 -224t-250.5 -100v82q111 17 162 62t51 120z" />
    <glyph glyph-name="less" unicode="&#x3c;" horiz-adv-x="845" 
d="M82 745v21l635 387v-156l-408 -239l408 -244v-156z" />
    <glyph glyph-name="equal" unicode="=" horiz-adv-x="1175" 
d="M139 555v125h897v-125h-897zM139 838v127h897v-127h-897z" />
    <glyph glyph-name="greater" unicode="&#x3e;" horiz-adv-x="845" 
d="M764 766v-21l-635 -387v156l410 244l-410 239v156z" />
    <glyph glyph-name="question" unicode="?" horiz-adv-x="897" 
d="M651 1165q0 91 -55.5 144t-153.5 53q-180 0 -180 -193v-75h-164q-43 40 -43 98q0 113 112.5 189.5t270.5 76.5q186 0 295 -87.5t109 -254.5q0 -82 -32.5 -152.5t-83 -123.5t-132.5 -113q-87 -63 -122.5 -120t-35.5 -146v-66h-59q-60 110 -60 185q0 87 37.5 157.5
t124.5 141.5q48 40 69.5 60t50.5 56.5t40.5 77t11.5 92.5zM256 129q0 63 43.5 106.5t106.5 43.5t106 -43.5t43 -106.5t-43 -106t-106 -43t-106.5 43t-43.5 106z" />
    <glyph glyph-name="at" unicode="@" horiz-adv-x="1826" 
d="M1241 154q-74 0 -121.5 34t-63 90t-11 122.5t27.5 138.5h-12q-71 -169 -171.5 -276t-197.5 -107q-87 0 -138.5 67t-51.5 187q0 154 72.5 298t188 232t236.5 88q117 0 185 -65l96 77h76l-56 -182l-102 -426q-8 -34 -10.5 -64.5t1.5 -62t23.5 -50.5t53.5 -19q61 0 120 35.5
t105.5 98.5t75 158t28.5 205q0 177 -68.5 311.5t-208.5 212.5t-337 78q-207 0 -377 -112t-266 -302t-96 -415q0 -202 90.5 -359.5t253 -244t370.5 -86.5q149 0 277 35.5t260 113.5l29 -61q-99 -85 -256 -135t-330 -50q-182 0 -336.5 56.5t-264 158.5t-171.5 250t-62 324
q0 247 114.5 455.5t317 331t447.5 122.5q169 0 309 -51t235 -141.5t147 -216.5t52 -275q0 -130 -41.5 -241t-109.5 -183.5t-154.5 -113.5t-177.5 -41zM760 274q90 0 199.5 169.5t179.5 433.5q-38 75 -123 75q-96 0 -177 -90.5t-123 -213t-42 -234.5q0 -67 22.5 -103.5
t63.5 -36.5z" />
    <glyph glyph-name="A" unicode="A" horiz-adv-x="1480" 
d="M1090 250l-97 225h-604l-90 -223q-23 -59 -23 -82q0 -47 43.5 -67t149.5 -23v-80h-459v80q49 7 79 22.5t46 53.5l486 1165l-64 135h227l564 -1300q16 -38 44 -53.5t78 -22.5v-80h-548v80q107 3 148.5 22t41.5 66q0 25 -22 82zM686 1206l-260 -641h530z" />
    <glyph glyph-name="B" unicode="B" horiz-adv-x="1355" 
d="M70 0v80q113 3 161 32t48 117v979q0 88 -48 117.5t-161 32.5v80h624q240 0 369 -91.5t129 -269.5q0 -75 -29 -134.5t-81 -98.5t-113 -63.5t-135 -37.5q208 -17 320 -110.5t112 -247.5q0 -175 -140.5 -280t-388.5 -105h-667zM680 688h-205v-459q0 -80 46.5 -108.5
t160.5 -28.5h27q176 0 258 71.5t82 221.5q0 136 -89.5 219.5t-279.5 83.5zM635 1343h-160v-563h160q175 0 258.5 72t83.5 225q0 115 -86 190.5t-256 75.5z" />
    <glyph glyph-name="C" unicode="C" horiz-adv-x="1378" 
d="M807 84q150 0 246 87.5t157 268.5h76l-47 -348q-111 -57 -218 -84.5t-259 -27.5q-200 0 -354 91t-237 251.5t-83 365.5q0 176 55 322t150.5 243.5t224.5 151t277 53.5q278 0 442 -129v-313h-74q-78 338 -381 338q-97 0 -176 -31.5t-134 -86.5t-92.5 -132t-55 -167
t-17.5 -192q0 -141 32 -260.5t93 -209.5t157 -140.5t218 -50.5z" />
    <glyph glyph-name="D" unicode="D" horiz-adv-x="1546" 
d="M659 1343h-184v-1103q0 -87 47.5 -116.5t161.5 -29.5h45q239 0 374.5 161t135.5 460q0 99 -19.5 188t-63.5 170.5t-110 140.5t-165 94t-222 35zM70 1358v80h628q155 0 282.5 -36.5t215 -99.5t147.5 -149.5t87.5 -185t27.5 -207.5q0 -180 -57.5 -326t-157 -240t-231 -144
t-283.5 -50h-659v80q113 3 161 32t48 117v979q0 88 -48 117.5t-161 32.5z" />
    <glyph glyph-name="E" unicode="E" horiz-adv-x="1372" 
d="M1040 504h-69q-16 96 -49.5 140t-98.5 44h-348v-455q0 -81 47 -110t160 -29h205q34 0 60.5 2t51.5 11.5t41.5 16t38.5 28.5t34 34.5t36.5 49.5t38 58.5t45.5 74.5h57l-61 -369h-1159v80q113 3 161 32t48 117v979q0 88 -48 117.5t-161 32.5v80h1149v-342h-56
q-58 141 -118 194t-179 53h-391v-561h348q65 0 98.5 44.5t49.5 140.5h69v-463z" />
    <glyph glyph-name="F" unicode="F" horiz-adv-x="1243" 
d="M739 0h-669v80q113 3 161 32t48 117v979q0 88 -48 117.5t-161 32.5v80h1112v-355h-54q-31 73 -56 116.5t-59 79t-77.5 50t-104.5 14.5h-356v-591h311q65 0 98.5 44t51.5 140h68v-463h-68q-18 96 -51.5 140t-98.5 44h-311v-428q0 -37 12.5 -63t32.5 -41.5t56 -25t71.5 -13
t91.5 -6.5v-80z" />
    <glyph glyph-name="G" unicode="G" horiz-adv-x="1505" 
d="M88 688q0 175 56.5 321.5t154 244t228 151t278.5 53.5q288 0 452 -129v-313h-73q-40 172 -142 255t-249 83q-120 0 -214.5 -48t-153 -132t-88.5 -193t-30 -236q0 -141 32 -260.5t93 -209.5t157 -140.5t218 -50.5q99 0 164 20t119 70v287q0 86 -46.5 115t-154.5 34v78h575
v-78q-104 -5 -144 -33t-40 -116v-334q-209 -147 -492 -147q-212 0 -372 90t-244 250.5t-84 367.5z" />
    <glyph glyph-name="H" unicode="H" horiz-adv-x="1710" 
d="M1235 229v459h-760v-459q0 -87 49 -116.5t160 -32.5v-80h-614v80q113 3 161 32t48 117v979q0 88 -48 117.5t-161 32.5v80h614v-80q-55 -2 -89.5 -8t-64 -21.5t-42.5 -45t-13 -75.5v-426h760v426q0 46 -13 75.5t-42.5 45t-64 21.5t-89.5 8v80h614v-80q-112 -3 -160 -32.5
t-48 -117.5v-979q0 -88 47.5 -117t160.5 -32v-80h-614v80q111 3 160 32.5t49 116.5z" />
    <glyph glyph-name="I" unicode="I" horiz-adv-x="753" 
d="M684 0h-614v80q113 3 161 32t48 117v979q0 88 -48 117.5t-161 32.5v80h614v-80q-113 -3 -161 -32.5t-48 -117.5v-979q0 -88 48 -117t161 -32v-80z" />
    <glyph glyph-name="J" unicode="J" horiz-adv-x="1064" 
d="M829 1208v-798q0 -214 -109 -321t-310 -107q-177 0 -283.5 69.5t-106.5 184.5q0 82 56 131h145v-93q0 -101 54.5 -152.5t146.5 -51.5q209 0 209 307v831q0 88 -48 117.5t-159 32.5v80h614v-80q-113 -3 -161 -32.5t-48 -117.5z" />
    <glyph glyph-name="K" unicode="K" horiz-adv-x="1462" 
d="M702 786l488 -544q84 -93 137.5 -124.5t126.5 -37.5v-80h-276q-49 27 -95.5 68t-107.5 110l-477 553l514 494q45 39 45 75q0 28 -30 39.5t-134 18.5v80h522v-80q-69 -3 -120 -28t-105 -77zM279 229v979q0 88 -48 117.5t-161 32.5v80h614v-80q-110 -3 -158.5 -32.5
t-48.5 -117.5v-979q0 -88 48.5 -117t158.5 -32v-80h-614v80q113 3 161 32t48 117z" />
    <glyph glyph-name="L" unicode="L" horiz-adv-x="1257" 
d="M477 1208v-975q0 -81 47 -110t160 -29h119q85 0 143 36t89.5 82.5t98.5 170.5q3 5 5 8.5t4 7.5h65l-65 -399h-1073v80q113 3 161 32t48 117v979q0 88 -48 117.5t-161 32.5v80h614v-80q-110 -3 -158.5 -32.5t-48.5 -117.5z" />
    <glyph glyph-name="M" unicode="M" horiz-adv-x="1906" 
d="M1503 260l-110 873l-432 -1133h-70l-459 1139l-108 -879q-5 -35 -5 -49q0 -73 41.5 -99.5t153.5 -31.5v-80h-483v80q90 3 126.5 28t45.5 95l129 1005q0 83 -36 115t-138 35v80h374q4 -51 31 -115l406 -1028l385 1028q29 77 32 115h363v-80q-100 -3 -136 -35t-36 -115
l129 -1005q9 -70 45 -95t125 -28v-80h-563v80q110 5 152 31.5t42 99.5q0 21 -4 49z" />
    <glyph glyph-name="N" unicode="N" horiz-adv-x="1650" 
d="M279 229v1000q-68 80 -103.5 104t-105.5 25v80h350l852 -1080v850q0 88 -48 117.5t-161 32.5v80h536v-80q-112 -3 -160 -32.5t-48 -117.5v-1208h-84l-910 1137v-908q0 -88 48 -117t161 -32v-80h-536v80q113 3 161 32t48 117z" />
    <glyph glyph-name="O" unicode="O" horiz-adv-x="1531" 
d="M788 92q141 0 241.5 83t148 221t47.5 317q0 96 -17 186t-55 172t-93 142.5t-136.5 96.5t-180.5 36q-141 0 -241 -83t-147.5 -221t-47.5 -317q0 -96 17 -186t55 -172t92.5 -142.5t136 -96.5t180.5 -36zM772 1458q155 0 283.5 -57.5t212.5 -155t130 -226t46 -271.5
q0 -172 -54.5 -317.5t-147.5 -243.5t-218 -152.5t-264 -54.5q-155 0 -283.5 57.5t-212.5 155t-130 226t-46 271.5q0 172 54.5 317.5t147.5 243.5t218 152.5t264 54.5z" />
    <glyph glyph-name="P" unicode="P" horiz-adv-x="1255" 
d="M715 588h-238v-359q0 -37 12.5 -63t32 -41.5t55.5 -25t71 -13t91 -6.5v-80h-669v80q113 3 161 32t48 117v979q0 88 -48 117.5t-161 32.5v80h610q114 0 206 -23.5t153 -63t102 -94t58.5 -114t17.5 -125.5q0 -92 -30 -169t-90 -136t-157.5 -92t-224.5 -33zM477 1343v-661
h162q188 0 273 79t85 249q0 154 -88 243.5t-270 89.5h-162z" />
    <glyph glyph-name="Q" unicode="Q" horiz-adv-x="1531" 
d="M772 1458q155 0 283.5 -57.5t212.5 -155t130 -226t46 -271.5q0 -289 -144.5 -489t-371.5 -259l53 -57q121 -130 194 -188t152 -68v-39q-71 -23 -137 -23q-112 0 -191.5 39.5t-142.5 126.5l-135 191q-147 7 -267.5 66t-200 155.5t-122.5 221.5t-43 265q0 172 54.5 317.5
t147.5 243.5t218 152.5t264 54.5zM788 92q141 0 241.5 83t148 221t47.5 317q0 96 -17 186t-55 172t-93 142.5t-136.5 96.5t-180.5 36q-141 0 -241 -83t-147.5 -221t-47.5 -317q0 -96 17 -186t55 -172t92.5 -142.5t136 -96.5t180.5 -36z" />
    <glyph glyph-name="R" unicode="R" horiz-adv-x="1441" 
d="M610 1343h-135v-626h143q361 0 361 317q0 139 -91.5 224t-277.5 85zM70 1438h602q264 0 394 -108.5t130 -295.5q0 -83 -34 -153.5t-90.5 -117.5t-126 -75t-144.5 -35l344 -428q110 -137 264 -145v-80h-293q-55 34 -93.5 72t-92.5 108l-346 447h-109v-398q0 -88 48.5 -117
t158.5 -32v-80h-612v80q113 3 161 32t48 117v979q0 88 -48 117.5t-161 32.5v80z" />
    <glyph glyph-name="S" unicode="S" horiz-adv-x="1138" 
d="M543 -20q-138 0 -256.5 40t-190.5 101l-14 336h72q49 -172 147.5 -273.5t247.5 -101.5q146 0 227.5 68.5t81.5 193.5q0 103 -74 165.5t-266 133.5q-87 32 -149 61t-116 66.5t-86.5 80t-50.5 98.5t-18 124q0 168 120 276.5t329 108.5q233 0 426 -129v-313h-68
q-37 156 -130.5 248t-237.5 92q-125 0 -193 -64t-68 -166q0 -104 66.5 -165t257.5 -132q119 -44 197.5 -85t136.5 -93t84 -117t26 -149q0 -127 -69 -220.5t-181.5 -139t-250.5 -45.5z" />
    <glyph glyph-name="T" unicode="T" horiz-adv-x="1357" 
d="M61 1438h1233l33 -428h-65q-81 188 -114 238q-45 69 -110 87q-39 11 -106 11h-156v-1117q0 -87 51 -116.5t166 -32.5v-80h-631v80q114 3 165 32.5t51 116.5v1117h-152q-48 0 -80 -4.5t-61 -21t-47.5 -35.5t-43 -62.5t-44.5 -86.5t-54 -121q-1 -3 -2 -5h-63z" />
    <glyph glyph-name="U" unicode="U" horiz-adv-x="1568" 
d="M424 1208v-704q0 -190 99 -292.5t276 -102.5q213 0 320.5 97.5t107.5 313.5v688q0 88 -48.5 117.5t-160.5 32.5v80h534v-80q-111 -3 -158.5 -32.5t-47.5 -117.5v-727q0 -124 -44.5 -221t-121.5 -156.5t-175 -90.5t-210 -31q-267 0 -418.5 125.5t-151.5 377.5v723
q0 88 -48.5 117.5t-160.5 32.5v80h615v-80q-111 -3 -159 -32.5t-48 -117.5z" />
    <glyph glyph-name="V" unicode="V" horiz-adv-x="1462" 
d="M795 272l362 914q23 59 23 82q0 47 -43 67t-150 23v80h465v-80q-50 -7 -79 -22.5t-46 -53.5l-543 -1300h-61l-588 1300q-17 38 -46.5 53.5t-78.5 22.5v80h547v-80q-107 -3 -148.5 -22t-41.5 -66q0 -30 22 -82z" />
    <glyph glyph-name="W" unicode="W" horiz-adv-x="1968" 
d="M1370 303l311 883q3 8 8 21.5t7.5 22t5 19t2.5 19.5q0 47 -43 67t-150 23v80h447v-80q-34 -5 -53 -10t-40 -21.5t-30 -44.5l-471 -1300h-59l-314 882l-311 -882h-59l-486 1300q-16 38 -46 53.5t-79 22.5v80h545v-80q-107 -3 -148.5 -22t-41.5 -66q0 -20 20 -82l313 -885
l242 709l-92 270q-11 29 -32.5 45.5t-39 21t-53.5 9.5v80h524v-80q-108 -3 -150 -22t-42 -66q0 -20 20 -82z" />
    <glyph glyph-name="X" unicode="X" horiz-adv-x="1456" 
d="M1227 1255l-393 -499l421 -574q40 -55 84 -78.5t107 -23.5v-80h-598v80q81 0 120 7t49.5 19t10.5 37q0 33 -55 107l-279 385l-301 -379q-55 -68 -55 -111q0 -25 10.5 -37.5t51 -20t122.5 -7.5v-80h-512v80q63 0 103 21t86 81l430 543l-391 530q-41 57 -84 80t-105 23v80
h604v-80q-114 0 -149 -13t-35 -49q0 -39 57 -114l240 -336l266 336q55 73 55 114q0 36 -35 49t-149 13v80h512v-80q-62 0 -101.5 -21t-86.5 -82z" />
    <glyph glyph-name="Y" unicode="Y" horiz-adv-x="1357" 
d="M717 684l321 504q35 61 35 94q0 41 -39 57t-147 19v80h461v-80q-47 -6 -74 -22t-51 -54l-453 -702v-351q0 -88 48.5 -117t158.5 -32v-80h-610v80q113 3 160.5 32t47.5 117v349l-440 704q-24 38 -51.5 54t-73.5 22v80h543v-80q-106 -3 -146 -19t-40 -57q0 -39 36 -94z" />
    <glyph glyph-name="Z" unicode="Z" horiz-adv-x="1269" 
d="M317 96h496q65 0 109 14.5t84.5 60.5t64.5 85.5t74 134.5q2 3 3 5l2.5 5l2.5 5h68l-68 -406h-1102v51l875 1288h-457q-42 0 -71.5 -4.5t-56 -20.5t-43.5 -32t-39 -54t-37 -71t-44 -98h-59v379h1067v-54z" />
    <glyph glyph-name="bracketleft" unicode="[" horiz-adv-x="638" 
d="M315 1389v-1489q0 -26 5 -45t19.5 -32t29 -20.5t46 -12.5t57.5 -7.5t75 -5.5v-66h-373v1866h373v-66q-60 -4 -88.5 -6.5t-62.5 -10t-48 -20t-23.5 -33t-9.5 -52.5z" />
    <glyph glyph-name="backslash" unicode="\" horiz-adv-x="813" 
d="M647 -289l-569 1866h127l569 -1866h-127z" />
    <glyph glyph-name="bracketright" unicode="]" horiz-adv-x="638" 
d="M324 -100v1489q0 32 -9.5 52.5t-23.5 33t-48 20t-62.5 10t-88.5 6.5v66h373v-1866h-373v66q49 3 75 5.5t57.5 7.5t46 12.5t29 20.5t19.5 32t5 45z" />
    <glyph glyph-name="asciicircum" unicode="^" horiz-adv-x="946" 
d="M399 1577h148l317 -594h-137l-254 481l-254 -481h-137z" />
    <glyph glyph-name="underscore" unicode="_" horiz-adv-x="901" 
d="M860 -246h-819v111h819v-111z" />
    <glyph glyph-name="grave" unicode="`" horiz-adv-x="1024" 
d="M317 1559h238l152 -347h-80z" />
    <glyph glyph-name="a" unicode="a" horiz-adv-x="1095" 
d="M449 123q70 0 127 21.5t124 70.5v367l-290 -111q-58 -22 -91.5 -65.5t-33.5 -100.5q0 -87 43 -134.5t121 -47.5zM891 762q0 -32 -3 -247.5t-3 -260.5q0 -67 24.5 -103t69.5 -36q49 0 96 12l10 -49q-98 -98 -204 -98q-144 0 -174 186q-164 -186 -342 -186q-133 0 -203 78
t-70 198q0 55 18 100t43 75t67 56t75.5 40.5t81.5 31.5l323 117v100q0 232 -202 232q-168 0 -168 -152q0 -49 14 -106l-154 -21q-43 43 -43 111q0 123 109 194.5t281 71.5q176 0 265 -88t89 -256z" />
    <glyph glyph-name="b" unicode="b" horiz-adv-x="1214" 
d="M170 1341l-150 72v43l287 103h51v-631q137 178 349 178q103 0 185 -40t134 -110t79.5 -162.5t27.5 -199.5q0 -139 -41.5 -255.5t-112.5 -194.5t-167 -121t-204 -43q-143 0 -256 38.5t-182 98.5v1224zM623 74q143 0 232 118.5t89 315.5q0 90 -18 170t-55 146.5t-100 105.5
t-146 39q-79 0 -150.5 -26.5t-116.5 -74.5v-510q0 -284 265 -284z" />
    <glyph glyph-name="c" unicode="c" horiz-adv-x="1036" 
d="M254 586q0 -205 96 -328t266 -123q102 0 176.5 43.5t135.5 130.5l37 -20q-44 -153 -151 -231t-265 -78q-209 0 -338 148t-129 380q0 162 64.5 298t185.5 218t274 82q162 0 254 -67.5t92 -184.5q0 -87 -82 -123h-104v70q0 91 -46.5 147t-139.5 56q-145 0 -235.5 -118.5
t-90.5 -299.5z" />
    <glyph glyph-name="d" unicode="d" horiz-adv-x="1267" 
d="M856 -20v182q-68 -88 -149 -135t-189 -47q-135 0 -235.5 69.5t-150.5 184.5t-50 258q0 278 147 446t369 168q83 0 152 -30t106 -83v348l-149 72v43l288 103h49v-1338q0 -52 22.5 -69t94.5 -25l53 -6v-70l-327 -71h-31zM592 1012q-144 0 -233 -123.5t-89 -321.5
q0 -89 19.5 -167.5t57.5 -141.5t101 -100t142 -37q78 0 149.5 27.5t116.5 76.5v502q0 142 -70 213.5t-194 71.5z" />
    <glyph glyph-name="e" unicode="e" horiz-adv-x="1069" 
d="M573 1106q197 0 304.5 -125t107.5 -332v-63h-733q0 -203 101.5 -327t273.5 -124q108 0 184.5 46t140.5 130l35 -18q-38 -141 -150.5 -227t-279.5 -86q-145 0 -254.5 71.5t-165 190t-55.5 266.5q0 266 138.5 432t352.5 166zM543 1006q-117 0 -193.5 -94t-89.5 -228h537
q0 151 -65 236.5t-189 85.5z" />
    <glyph glyph-name="f" unicode="f" horiz-adv-x="739" 
d="M428 977v-780q0 -26 3.5 -43.5t16 -30.5t24 -20.5t39.5 -13.5t49.5 -9t66.5 -8v-72h-545v72q34 5 51.5 8t42 11t36 19t20 31t8.5 47v789h-152v67l152 54v37q0 194 103 314t286 120q106 0 169.5 -42.5t63.5 -117.5q0 -34 -18 -62t-47 -44h-103v53q0 63 -25.5 97t-86.5 34
q-154 0 -154 -299v-103h270v-108h-270z" />
    <glyph glyph-name="g" unicode="g" horiz-adv-x="1114" 
d="M522 387q-98 0 -186 31q-49 -51 -67.5 -83.5t-18.5 -68.5q0 -65 76 -65h462q144 0 219.5 -56.5t75.5 -183.5q0 -171 -168 -278t-430 -107q-218 0 -336 64t-118 190q0 42 15 75.5t45.5 59t58 41.5t71.5 37q-117 42 -117 150q0 127 189 245q-84 43 -132 118.5t-48 178.5
q0 169 115.5 270t297.5 101q92 0 183 -37l370 27v-140h-75l-211 48v-11q63 -40 102 -105t39 -143q0 -162 -113 -260t-299 -98zM752 25h-500q-53 -56 -53 -131q0 -113 87.5 -166.5t237.5 -53.5q182 0 291 60t109 170q0 71 -41.5 96t-130.5 25zM543 467q101 0 155 71.5
t54 190.5q0 124 -66 207.5t-178 83.5q-101 0 -154 -71t-53 -191q0 -124 64.5 -207.5t177.5 -83.5z" />
    <glyph glyph-name="h" unicode="h" horiz-adv-x="1302" 
d="M414 1559v-654q45 44 81.5 74t86.5 62t106 48.5t117 16.5q287 0 287 -336v-582q0 -27 8.5 -47t20 -31t35.5 -19t42 -11t53 -8v-72h-506v72q34 5 51.5 8t42 11t36 19t20 31t8.5 47v568q0 108 -45 153t-145 45q-77 0 -156.5 -30t-142.5 -78v-658q0 -27 8.5 -47t20 -31
t35.5 -19t41.5 -11t51.5 -8v-72h-505v72q35 5 53 8t42 11t35.5 19t20 31t8.5 47v1153l-149 72v43l286 103h52z" />
    <glyph glyph-name="i" unicode="i" horiz-adv-x="657" 
d="M428 1106v-918q0 -27 8.5 -47t20 -31t35 -19t41.5 -11t53 -8v-72h-504v72q34 5 51.5 8t42 11t36 19t20 31t8.5 47v701l-148 72v43l285 102h51zM326 1251q-55 0 -94 40.5t-39 97.5t39 97t94 40t94 -40t39 -97t-39 -97.5t-94 -40.5z" />
    <glyph glyph-name="j" unicode="j" horiz-adv-x="552" 
d="M391 1106v-930q0 -126 -9 -194.5t-42 -135.5q-38 -74 -102.5 -135.5t-169.5 -136.5l-48 51l66 84q74 94 95.5 183.5t21.5 250.5v746l-150 72v43l289 102h49zM289 1251q-55 0 -94 40.5t-39 97.5t39 97t94 40t94 -40t39 -97t-39 -97.5t-94 -40.5z" />
    <glyph glyph-name="k" unicode="k" horiz-adv-x="1163" 
d="M434 580l340 323q33 33 33 55q0 24 -29.5 33.5t-126.5 22.5v71h465v-71q-61 -13 -95 -29.5t-69 -48.5l-323 -301l526 -580v-55h-207zM414 1559v-1371q0 -27 8.5 -47t20 -31t35.5 -19t41.5 -11t51.5 -8v-72h-505v72q35 5 53 8t42 11t35.5 19t20 31t8.5 47v1153l-149 72v43
l286 103h52z" />
    <glyph glyph-name="l" unicode="l" horiz-adv-x="641" 
d="M414 1559v-1371q0 -27 8.5 -47t20 -31t35.5 -19t41.5 -11t51.5 -8v-72h-505v72q35 5 53 8t42 11t35.5 19t20 31t8.5 47v1153l-149 72v43l286 103h52z" />
    <glyph glyph-name="m" unicode="m" horiz-adv-x="1941" 
d="M1890 0h-506v72q35 5 53 8t42.5 11t36 19t20 31t8.5 47v568q0 109 -40 153.5t-136 44.5q-149 0 -287 -108v-658q0 -27 8.5 -47t20 -31t36 -19t42 -11t51.5 -8v-72h-506v72q35 5 53 8t42.5 11t36 19t20 31t8.5 47v568q0 109 -40 153.5t-136 44.5q-151 0 -289 -108v-658
q0 -27 8.5 -47t20 -31t35 -19t41.5 -11t53 -8v-72h-504v72q34 5 51.5 8t42 11t36 19t20 31t8.5 47v701l-148 72v43l285 102h51v-201q45 45 80 74.5t84.5 61.5t103.5 48.5t113 16.5q215 0 260 -207q96 94 188.5 150.5t202.5 56.5q136 0 204.5 -82t68.5 -254v-582
q0 -27 8.5 -47t20 -31t35.5 -19t41.5 -11t51.5 -8v-72z" />
    <glyph glyph-name="n" unicode="n" horiz-adv-x="1318" 
d="M920 188v568q0 108 -45.5 153t-145.5 45q-77 0 -158.5 -30.5t-142.5 -77.5v-658q0 -27 8.5 -47t20 -31t35 -19t41.5 -11t53 -8v-72h-504v72q34 5 51.5 8t42 11t36 19t20 31t8.5 47v701l-148 72v43l285 102h51v-201q44 43 81 73.5t87.5 62.5t107 48.5t117.5 16.5
q287 0 287 -336v-582q0 -27 8.5 -47t20 -31t36 -19t42.5 -11t53 -8v-72h-506v72q34 5 51.5 8t42 11t36 19t20 31t8.5 47z" />
    <glyph glyph-name="o" unicode="o" horiz-adv-x="1171" 
d="M604 86q141 0 215 118t74 322q0 130 -37.5 236t-113 171.5t-175.5 65.5q-141 0 -214.5 -118t-73.5 -322q0 -130 37.5 -236t112.5 -171.5t175 -65.5zM580 -20q-225 0 -361.5 151.5t-136.5 390.5q0 129 40.5 239.5t109.5 185t162.5 117t197.5 42.5q225 0 361.5 -152
t136.5 -391q0 -129 -40.5 -239t-110 -185t-162.5 -117t-197 -42z" />
    <glyph glyph-name="p" unicode="p" horiz-adv-x="1253" 
d="M397 92v-307q0 -27 8.5 -47t20.5 -31.5t36 -19.5t42.5 -11.5t52.5 -7.5v-71h-508v71q34 4 52.5 7.5t42.5 11.5t36 19.5t20.5 31.5t8.5 47v1104l-150 72v43l289 102h49v-178q140 178 351 178q135 0 232.5 -70t144 -184t46.5 -258q0 -138 -41 -255t-110.5 -194.5t-161 -121
t-192.5 -43.5q-93 0 -163.5 30.5t-105.5 81.5zM662 74q143 0 232 118.5t89 315.5q0 90 -18 170t-55 146.5t-100 105.5t-146 39q-78 0 -150.5 -26.5t-116.5 -74.5v-510q0 -138 71 -211t194 -73z" />
    <glyph glyph-name="q" unicode="q" horiz-adv-x="1210" 
d="M606 1106q90 0 169.5 -29.5t127.5 -85.5l107 131h51l-17 -229v-1108q0 -27 8.5 -47t20.5 -31.5t36 -19.5t42.5 -11.5t52.5 -7.5v-71h-506v71q34 4 52 7.5t41.5 11.5t35.5 19.5t20.5 31.5t8.5 47v377q-68 -88 -149 -135t-189 -47q-135 0 -235.5 69.5t-150.5 184.5t-50 258
q0 139 40 255t110.5 194.5t166.5 121.5t207 43zM592 1012q-144 0 -233 -123.5t-89 -321.5q0 -89 19.5 -167.5t57.5 -141.5t101 -100t142 -37q78 0 149.5 27.5t116.5 76.5v502q0 285 -264 285z" />
    <glyph glyph-name="r" unicode="r" horiz-adv-x="843" 
d="M428 1106v-324q41 74 61 108t49.5 80t47 64.5t43.5 39t51 26.5t57 6q51 0 76 -29v-182h-43q-106 0 -177.5 -33t-164.5 -145v-520q0 -26 3.5 -43.5t16 -30.5t24 -20.5t39.5 -13.5t49.5 -9t66.5 -8v-72h-545v72q34 5 51.5 8t42 11t36 19t20 31t8.5 47v701l-148 72v43
l283 102h53z" />
    <glyph glyph-name="s" unicode="s" horiz-adv-x="923" 
d="M465 -20q-239 0 -371 100l-12 272h76q32 -134 109 -207t200 -73q98 0 153.5 44.5t55.5 123.5q0 93 -63 140.5t-216 94.5q-73 23 -125 49t-94 63.5t-63 89.5t-21 120q0 137 96.5 223t255.5 86q186 0 338 -86v-254h-77q-22 122 -89.5 184t-177.5 62q-82 0 -130 -45.5
t-48 -116.5q0 -81 59 -131.5t183 -89.5q70 -21 115.5 -39t92.5 -45.5t73.5 -59.5t43.5 -79.5t17 -108.5q0 -138 -103.5 -227.5t-277.5 -89.5z" />
    <glyph glyph-name="t" unicode="t" horiz-adv-x="757" 
d="M369 1319v-234h313v-108h-313v-717q0 -83 37.5 -117t123.5 -34q99 0 187 45l20 -45q-119 -129 -311 -129q-113 0 -178.5 58.5t-65.5 182.5v756h-151v61q161 102 284 281h54z" />
    <glyph glyph-name="u" unicode="u" horiz-adv-x="1288" 
d="M870 -20v200q-49 -47 -81.5 -74.5t-82 -60.5t-103.5 -49t-114 -16q-288 0 -288 335v564q0 55 -24.5 76t-98.5 30l-33 4v70l313 47h31v-762q0 -112 46 -162.5t145 -50.5q147 0 290 109v639q0 55 -24 76t-98 30l-33 4v70l311 47h33v-885q0 -51 22.5 -68.5t92.5 -25.5l53 -6
v-70l-328 -71h-29z" />
    <glyph glyph-name="v" unicode="v" horiz-adv-x="1132" 
d="M1122 1085v-71q-73 -27 -89.5 -38t-31.5 -44l-405 -952h-45l-420 952q-15 32 -32.5 43.5t-88.5 38.5v71h479v-71q-85 -11 -116 -25t-31 -49q0 -20 14 -55l250 -625l256 625q15 41 15 55q0 35 -31.5 49t-116.5 25v71h393z" />
    <glyph glyph-name="w" unicode="w" horiz-adv-x="1624" 
d="M1143 281l217 604q12 38 12 55q0 35 -30 49t-113 25v71h385v-71q-72 -26 -89.5 -37.5t-29.5 -44.5l-356 -952h-52l-270 722l-274 -722h-49l-367 952q-12 33 -30 45.5t-87 36.5v71h463v-71q-83 -11 -113 -25t-30 -49q0 -21 14 -61l217 -594l203 549l-35 98
q-12 33 -31 45.5t-90 36.5v71h457v-71q-85 -11 -115 -25t-30 -49q0 -21 14 -61z" />
    <glyph glyph-name="x" unicode="x" horiz-adv-x="1110" 
d="M154 154l305 393l-283 385q-29 39 -56.5 57t-80.5 25v71h475v-71q-81 -9 -103 -19t-22 -37q0 -15 35 -65l176 -242l170 242q29 37 29 59q0 26 -20 36t-97 26v71h383v-71q-50 -13 -82.5 -30.5t-60.5 -51.5l-269 -354l310 -424q31 -39 58 -57t79 -25v-72h-473v72
q81 9 103 19t22 36q0 16 -35 66l-205 280l-201 -280q-26 -43 -26 -60q0 -27 19 -36t97 -25v-72h-391v72q95 24 144 82z" />
    <glyph glyph-name="y" unicode="y" horiz-adv-x="1148" 
d="M537 -6l-406 938q-15 32 -32.5 43.5t-88.5 38.5v71h479v-71q-85 -11 -116 -25t-31 -49q0 -24 14 -55l271 -668l252 668q14 38 14 55q0 35 -31.5 49t-116.5 25v71h394v-71q-73 -26 -91.5 -38t-29.5 -44l-453 -1141q-42 -107 -96.5 -161t-142.5 -54q-101 0 -158 74v94h106
q98 0 145 29t77 112z" />
    <glyph glyph-name="z" unicode="z" horiz-adv-x="1024" 
d="M76 0v45l635 948h-332q-75 0 -111.5 -49t-77.5 -192h-84v333h832v-53l-625 -940h318q87 0 148.5 60t97.5 204h84l-37 -356h-848z" />
    <glyph glyph-name="braceleft" unicode="{" horiz-adv-x="698" 
d="M102 629v33q80 16 125 64t45 140v449q0 120 93 191t241 71v-55q-82 -10 -134 -58t-52 -143v-447q0 -102 -40.5 -149.5t-146.5 -79.5q106 -32 146.5 -79.5t40.5 -149.5v-447q0 -95 52 -142.5t134 -57.5v-56q-148 0 -241 71t-93 191v449q0 170 -170 205z" />
    <glyph glyph-name="bar" unicode="|" horiz-adv-x="526" 
d="M322 1577v-1866h-117v1866h117z" />
    <glyph glyph-name="braceright" unicode="}" horiz-adv-x="698" 
d="M596 662v-33q-170 -35 -170 -205v-449q0 -120 -93 -191t-241 -71v56q82 10 134.5 57.5t52.5 142.5v447q0 102 40.5 149.5t145.5 79.5q-105 32 -145.5 79.5t-40.5 149.5v447q0 95 -52.5 143t-134.5 58v55q148 0 241 -71t93 -191v-449q0 -92 45 -140t125 -64z" />
    <glyph glyph-name="asciitilde" unicode="~" horiz-adv-x="1046" 
d="M864 827l80 -12q-44 -128 -107.5 -190t-158.5 -62q-43 0 -93.5 19t-89.5 41.5t-86 41.5t-85 19q-50 0 -78 -22t-64 -87l-80 13q43 128 107.5 190t159.5 62q43 0 93.5 -19t89.5 -41.5t86 -41.5t85 -19q50 0 77.5 21.5t63.5 86.5z" />
    <glyph glyph-name="uni00A0" unicode="&#xa0;" horiz-adv-x="460" 
 />
    <glyph glyph-name="exclamdown" unicode="&#xa1;" horiz-adv-x="598" 
d="M150 956q0 63 43 106.5t106 43.5t106.5 -43.5t43.5 -106.5t-43.5 -106t-106.5 -43t-106 43t-43 106zM344 670l88 -1022h-268l88 1022h92z" />
    <glyph glyph-name="cent" unicode="&#xa2;" horiz-adv-x="1058" 
d="M340 -221l49 229q-148 54 -232.5 187.5t-84.5 314.5q0 125 37.5 233.5t106 189t172.5 127t230 46.5h3l59 270h90l-59 -276q127 -19 200.5 -84t73.5 -162q0 -95 -88 -131h-98v70q0 149 -113 192l-176 -833q66 -17 127 -17q107 0 185.5 43.5t142.5 130.5l39 -20
q-47 -153 -160.5 -231t-278.5 -78q-53 0 -92 8l-43 -209h-90zM248 586q0 -138 46 -241t132 -157l174 816h-22q-146 0 -238 -115t-92 -303z" />
    <glyph glyph-name="sterling" unicode="&#xa3;" horiz-adv-x="1343" 
d="M213 698v88h231l27 168q40 257 164 380.5t315 123.5q135 0 214 -53.5t79 -149.5q0 -45 -20.5 -81t-51.5 -50h-122v74q0 79 -29.5 121.5t-104.5 42.5q-50 0 -87 -26t-64 -80t-45.5 -122.5t-34.5 -168.5l-31 -179h338v-88h-352l-41 -254q-11 -63 -33 -143
q222 -129 400 -129q110 0 167.5 48.5t57.5 172.5h49q43 -62 43 -149q0 -264 -289 -264q-128 0 -255.5 62t-221.5 148q-104 -210 -278 -210q-103 0 -155 54t-52 142q0 94 63 153.5t164 59.5q64 0 123 -18l49 327h-217zM223 80q104 0 139 186q-62 27 -110 27q-58 0 -88.5 -33
t-30.5 -84q0 -44 25 -70t65 -26z" />
    <glyph glyph-name="currency" unicode="&#xa4;" horiz-adv-x="1191" 
d="M123 311l147 150q-77 104 -77 246t79 247l-149 148l80 78l147 -148q108 78 246 78t246 -78l147 146l78 -78l-147 -148q79 -106 79 -245q0 -138 -79 -248l149 -146l-80 -77l-147 145q-108 -78 -246 -78q-137 0 -248 78l-147 -148zM303 707q0 -133 84 -221.5t209 -88.5
t209 88.5t84 221.5t-84 221t-209 88t-209 -88t-84 -221z" />
    <glyph glyph-name="yen" unicode="&#xa5;" horiz-adv-x="1357" 
d="M186 649v88h297l-319 545q-21 36 -50.5 53t-76.5 23v80h559v-80q-107 -3 -145.5 -20.5t-38.5 -59.5q0 -35 30 -90l277 -494l280 494q31 56 31 90q0 42 -38 59.5t-146 20.5v80h475v-80q-48 -6 -76.5 -22t-50.5 -54l-330 -545h303v-88h-356l-41 -69v-76h397v-90h-397v-185
q0 -88 49 -117t162 -32v-80h-616v80q115 3 164 32t49 117v185h-392v90h392v74l-43 71h-349z" />
    <glyph glyph-name="brokenbar" unicode="&#xa6;" horiz-adv-x="526" 
d="M322 1577v-770h-117v770h117zM322 481v-770h-117v770h117z" />
    <glyph glyph-name="section" unicode="&#xa7;" horiz-adv-x="1062" 
d="M457 -414q-137 0 -220 53t-83 134q0 72 77 104h123v-33q0 -72 46.5 -120t125.5 -48q78 0 122 38.5t44 101.5q0 51 -34.5 119t-75.5 121.5t-111.5 141.5t-108.5 140q-120 165 -183.5 315t-63.5 316q0 222 136.5 355.5t354.5 133.5q137 0 220 -52.5t83 -133.5
q0 -73 -78 -105h-122v33q0 72 -46.5 120t-125.5 48q-78 0 -122 -38t-44 -101q0 -52 34 -119.5t75 -120.5t112 -141.5t108 -140.5q121 -166 184.5 -316t63.5 -315q0 -222 -136.5 -356t-354.5 -134zM788 -197q27 41 44.5 113.5t17.5 159.5q0 262 -244 586q-20 27 -71.5 94
t-78 102.5t-67 96.5t-61.5 102.5t-37.5 92t-16.5 91.5q-27 -41 -44 -112.5t-17 -159.5q0 -262 244 -586q18 -24 71 -93.5t78 -103.5t66.5 -96t62 -103.5t37 -92t16.5 -91.5z" />
    <glyph glyph-name="dieresis" unicode="&#xa8;" horiz-adv-x="1024" 
d="M193 1386q0 51 36 87t88 36t88.5 -36t36.5 -87q0 -54 -36 -90t-89 -36t-88.5 36t-35.5 90zM582 1386q0 51 36.5 87t88.5 36t88 -36t36 -87q0 -54 -35.5 -90t-88.5 -36t-89 36t-36 90z" />
    <glyph glyph-name="copyright" unicode="&#xa9;" horiz-adv-x="1630" 
d="M168 719q0 -180 81.5 -330.5t230.5 -240t335 -89.5t335 89.5t230.5 240t81.5 330.5t-81.5 330.5t-230.5 239.5t-335 89t-335 -89t-230.5 -239.5t-81.5 -330.5zM82 719q0 203 93 371.5t262 268t378 99.5t378 -99.5t262 -268t93 -371.5t-93 -371.5t-262 -268t-378 -99.5
t-378 99.5t-262 268t-93 371.5zM852 369q84 0 128.5 52t82.5 163h63l-18 -222q-71 -35 -132 -53t-147 -18q-179 0 -292 116.5t-113 297.5q0 103 33.5 188.5t91.5 142.5t135 88t164 31q153 0 258 -82v-194h-62q-44 198 -194 198q-126 0 -192 -94.5t-66 -241.5
q0 -163 68.5 -267.5t191.5 -104.5z" />
    <glyph glyph-name="ordfeminine" unicode="&#xaa;" horiz-adv-x="892" 
d="M375 756q48 0 85 15t85 50v271l-180 -76q-103 -43 -103 -135q0 -58 30 -91.5t83 -33.5zM709 1225q0 -34 -3.5 -187t-3.5 -186q0 -48 19 -74t51 -26q41 0 74 8l6 -43q-36 -36 -83.5 -54t-90.5 -18q-52 0 -85 36.5t-44 98.5q-130 -135 -256 -135q-97 0 -149 57.5t-52 145.5
q0 41 13.5 74.5t32 55.5t49.5 41.5t55.5 30t60.5 23.5l242 86v76q0 170 -131 170q-119 0 -119 -111q0 -29 10 -77l-139 -17q-35 35 -35 82q0 90 82 143.5t209 53.5q139 0 213 -65t74 -189z" />
    <glyph glyph-name="guillemotleft" unicode="&#xab;" horiz-adv-x="976" 
d="M92 551v20l330 390h96l-235 -400l235 -399h-96zM459 551v20l329 390h97l-236 -400l236 -399h-97z" />
    <glyph glyph-name="registered" unicode="&#xae;" horiz-adv-x="1136" 
d="M561 1196h-53v-192h53q53 0 82 27t29 73q0 44 -28.5 68t-82.5 24zM356 1241h222q89 0 138.5 -38t49.5 -99q0 -51 -36.5 -87t-86.5 -46l82 -113q24 -33 42 -46t44 -13v-39h-104q-35 25 -78 88l-76 113h-45v-113q0 -30 12.5 -39.5t46.5 -9.5v-39h-211v39q35 0 48.5 9.5
t13.5 39.5v303q0 31 -12 39.5t-50 11.5v39zM178 991q0 -161 111.5 -278t277.5 -117q167 0 279 117t112 278q0 163 -112 280.5t-279 117.5q-166 0 -277.5 -117.5t-111.5 -280.5zM102 991q0 196 132.5 331.5t332.5 135.5q133 0 240.5 -63t167 -169.5t59.5 -234.5
q0 -195 -133 -330t-334 -135q-200 0 -332.5 135.5t-132.5 329.5z" />
    <glyph glyph-name="macron" unicode="&#xaf;" horiz-adv-x="1024" 
d="M244 1276v119h536v-119h-536z" />
    <glyph glyph-name="degree" unicode="&#xb0;" horiz-adv-x="751" 
d="M174 1149q0 -92 55 -151.5t146 -59.5q92 0 147.5 59.5t55.5 151.5q0 94 -55.5 153.5t-147.5 59.5q-91 0 -146 -59.5t-55 -153.5zM61 1149q0 132 91 220.5t223 88.5q134 0 224.5 -88.5t90.5 -220.5q0 -130 -90.5 -218.5t-224.5 -88.5q-132 0 -223 88.5t-91 218.5z" />
    <glyph glyph-name="plusminus" unicode="&#xb1;" horiz-adv-x="1155" 
d="M514 1233h125v-293h387v-125h-387v-291h-125v291h-385v125h385v293zM129 295v125h897v-125h-897z" />
    <glyph glyph-name="twosuperior" unicode="&#xb2;" horiz-adv-x="833" 
d="M256 741h231q82 0 118.5 23.5t86.5 114.5h49l-32 -291h-658v49l242 240q125 124 174 200.5t49 151.5q0 81 -47.5 124.5t-130.5 43.5q-36 0 -68.5 -9.5t-62.5 -29.5t-47 -34.5t-47 -41.5l-33 35q49 93 132.5 154t193.5 61q135 0 209.5 -69.5t74.5 -192.5
q0 -47 -17.5 -93.5t-40 -81.5t-72 -85t-84 -80t-107.5 -92t-113 -97z" />
    <glyph glyph-name="threesuperior" unicode="&#xb3;" horiz-adv-x="831" 
d="M453 1100q126 -14 201 -84t75 -176q0 -127 -101 -199t-245 -72q-145 0 -228 58.5t-83 140.5q0 67 57 96h102v-47q0 -85 41.5 -131.5t124.5 -46.5q76 0 120 48.5t44 137.5q0 96 -62 143.5t-173 47.5h-50l-6 49q128 46 190 92t62 115q0 59 -39.5 95t-115.5 36
q-127 0 -203 -137l-53 34q43 99 125.5 161.5t197.5 62.5q116 0 184 -56.5t68 -144.5q0 -146 -233 -223z" />
    <glyph glyph-name="acute" unicode="&#xb4;" horiz-adv-x="1024" 
d="M469 1559h238l-310 -347h-80z" />
    <glyph glyph-name="paragraph" unicode="&#xb6;" horiz-adv-x="1269" 
d="M662 -403v862q-133 0 -237.5 38.5t-169.5 106.5t-98.5 158t-33.5 196q0 218 137 349t402 131h559v-80q-55 -2 -89.5 -8t-64 -21.5t-42.5 -45t-13 -75.5v-1611h-107v1763h-137v-1763h-106zM662 537v823q-85 0 -148.5 -34t-98.5 -92.5t-52 -127.5t-17 -148q0 -80 17 -151.5
t52 -133.5t98.5 -99t148.5 -37z" />
    <glyph glyph-name="periodcentered" unicode="&#xb7;" horiz-adv-x="524" 
d="M113 616q0 63 43 106.5t106 43.5t106.5 -43.5t43.5 -106.5t-43.5 -106t-106.5 -43t-106 43t-43 106z" />
    <glyph glyph-name="cedilla" unicode="&#xb8;" horiz-adv-x="1024" 
d="M334 -453l-12 68q113 0 176 24t63 70q0 86 -190 92l88 215h65l-45 -114q109 -2 166 -37t57 -115q0 -67 -50 -114t-131.5 -68t-186.5 -21z" />
    <glyph glyph-name="onesuperior" unicode="&#xb9;" horiz-adv-x="770" 
d="M436 1532h43v-780q0 -58 40 -74t159 -23v-67h-565v67q119 7 158.5 23t39.5 74v548h-198v58l59 10q90 14 146.5 51t117.5 113z" />
    <glyph glyph-name="ordmasculine" unicode="&#xba;" horiz-adv-x="909" 
d="M475 727q90 0 136 88t46 236q0 93 -24.5 170.5t-75 126.5t-119.5 49q-91 0 -138.5 -88.5t-47.5 -235.5q0 -144 59.5 -245t163.5 -101zM451 645q-174 0 -276.5 112t-102.5 292q0 193 108.5 311.5t278.5 118.5q174 0 276.5 -112t102.5 -292q0 -194 -107.5 -312t-279.5 -118
z" />
    <glyph glyph-name="guillemotright" unicode="&#xbb;" horiz-adv-x="976" 
d="M518 571v-20l-330 -389h-96l236 399l-236 400h96zM885 571v-20l-330 -389h-96l235 399l-235 400h96z" />
    <glyph glyph-name="onequarter" unicode="&#xbc;" horiz-adv-x="1822" 
d="M1051 188h335v406zM1559 -145h-173v243h-462v70l522 625h113v-605h161v-90h-161v-243zM436 1532h43v-780q0 -58 40 -74t159 -23v-67h-565v67q119 7 158.5 23t39.5 74v548h-198v58l59 10q90 14 146.5 51t117.5 113zM434 0l920 1518h123l-922 -1518h-121z" />
    <glyph glyph-name="onehalf" unicode="&#xbd;" horiz-adv-x="1826" 
d="M436 1532h43v-780q0 -58 40 -74t159 -23v-67h-565v67q119 7 158.5 23t39.5 74v548h-198v58l59 10q90 14 146.5 51t117.5 113zM434 0l920 1518h123l-922 -1518h-121zM1251 6h230q84 0 119.5 23t85.5 114h49l-33 -290h-655v47l239 241q126 128 175.5 204t49.5 149
q0 81 -48 124.5t-132 43.5q-36 0 -68.5 -9.5t-62.5 -29.5t-47 -34.5t-47 -41.5l-33 35q49 92 133.5 153.5t192.5 61.5q135 0 209.5 -69.5t74.5 -192.5q0 -47 -17.5 -93.5t-40 -81.5t-71.5 -85t-84 -80.5t-107 -91.5t-112 -97z" />
    <glyph glyph-name="threequarters" unicode="&#xbe;" horiz-adv-x="1847" 
d="M453 1100q126 -14 201 -84t75 -176q0 -127 -101 -199t-245 -72q-145 0 -228 58.5t-83 140.5q0 67 57 96h102v-47q0 -85 41.5 -131.5t124.5 -46.5q76 0 120 48.5t44 137.5q0 96 -62 143.5t-173 47.5h-50l-6 49q128 46 190 92t62 115q0 59 -39.5 95t-115.5 36
q-127 0 -203 -137l-53 34q43 99 125.5 161.5t197.5 62.5q116 0 184 -56.5t68 -144.5q0 -146 -233 -223zM1075 188h336v406zM1583 -145h-172v243h-463v70l522 625h113v-605h162v-90h-162v-243zM459 0l919 1518h123l-921 -1518h-121z" />
    <glyph glyph-name="questiondown" unicode="&#xbf;" horiz-adv-x="897" 
d="M274 -82q0 -91 55.5 -144t153.5 -53q181 0 181 193v76h163q43 -40 43 -99q0 -113 -112.5 -189.5t-270.5 -76.5q-186 0 -294.5 87.5t-108.5 254.5q0 82 32.5 152.5t83 123.5t132.5 113q86 62 121.5 120t35.5 147v65h60q59 -108 59 -184q0 -87 -37.5 -157.5t-124.5 -141.5
q-38 -32 -55.5 -47.5t-45 -45.5t-39.5 -54.5t-22 -61t-10 -78.5zM670 954q0 -63 -43.5 -106t-106.5 -43t-106 43t-43 106t43 106.5t106 43.5t106.5 -43.5t43.5 -106.5z" />
    <glyph glyph-name="Agrave" unicode="&#xc0;" horiz-adv-x="1480" 
d="M1090 250l-97 225h-604l-90 -223q-23 -59 -23 -82q0 -47 43.5 -67t149.5 -23v-80h-459v80q49 7 79 22.5t46 53.5l486 1165l-64 135h227l564 -1300q16 -38 44 -53.5t78 -22.5v-80h-548v80q107 3 148.5 22t41.5 66q0 25 -22 82zM686 1206l-260 -641h530zM369 1864h245
l152 -305h-80z" />
    <glyph glyph-name="Aacute" unicode="&#xc1;" horiz-adv-x="1480" 
d="M1090 250l-97 225h-604l-90 -223q-23 -59 -23 -82q0 -47 43.5 -67t149.5 -23v-80h-459v80q49 7 79 22.5t46 53.5l486 1165l-64 135h227l564 -1300q16 -38 44 -53.5t78 -22.5v-80h-548v80q107 3 148.5 22t41.5 66q0 25 -22 82zM686 1206l-260 -641h530zM791 1864h245
l-317 -305h-80z" />
    <glyph glyph-name="Acircumflex" unicode="&#xc2;" horiz-adv-x="1480" 
d="M1090 250l-97 225h-604l-90 -223q-23 -59 -23 -82q0 -47 43.5 -67t149.5 -23v-80h-459v80q49 7 79 22.5t46 53.5l486 1165l-64 135h227l564 -1300q16 -38 44 -53.5t78 -22.5v-80h-548v80q107 3 148.5 22t41.5 66q0 25 -22 82zM686 1206l-260 -641h530zM776 1884l307 -325
h-94l-282 184l-283 -184h-94l307 325h139z" />
    <glyph glyph-name="Atilde" unicode="&#xc3;" horiz-adv-x="1480" 
d="M1090 250l-97 225h-604l-90 -223q-23 -59 -23 -82q0 -47 43.5 -67t149.5 -23v-80h-459v80q49 7 79 22.5t46 53.5l486 1165l-64 135h227l564 -1300q16 -38 44 -53.5t78 -22.5v-80h-548v80q107 3 148.5 22t41.5 66q0 25 -22 82zM686 1206l-260 -641h530zM1018 1823l76 -21
q-67 -148 -117.5 -197t-124.5 -49q-41 0 -86.5 23t-78 51t-70.5 51t-66 23q-44 0 -69 -27t-64 -100l-76 20q67 148 117.5 197t124.5 49q41 0 86.5 -23t78 -50.5t70.5 -50.5t66 -23q44 0 69 27t64 100z" />
    <glyph glyph-name="Adieresis" unicode="&#xc4;" horiz-adv-x="1480" 
d="M1090 250l-97 225h-604l-90 -223q-23 -59 -23 -82q0 -47 43.5 -67t149.5 -23v-80h-459v80q49 7 79 22.5t46 53.5l486 1165l-64 135h227l564 -1300q16 -38 44 -53.5t78 -22.5v-80h-548v80q107 3 148.5 22t41.5 66q0 25 -22 82zM686 1206l-260 -641h530zM377 1704
q0 51 36.5 87t88.5 36t88.5 -36t36.5 -87q0 -54 -36 -90.5t-89 -36.5t-89 36.5t-36 90.5zM786 1704q0 51 36.5 87t88.5 36t88.5 -36t36.5 -87q0 -54 -36 -90.5t-89 -36.5t-89 36.5t-36 90.5z" />
    <glyph glyph-name="Aring" unicode="&#xc5;" horiz-adv-x="1480" 
d="M1090 250l-97 225h-604l-90 -223q-23 -59 -23 -82q0 -47 43.5 -67t149.5 -23v-80h-459v80q49 7 79 22.5t46 53.5l486 1165l-64 135h227l564 -1300q16 -38 44 -53.5t78 -22.5v-80h-548v80q107 3 148.5 22t41.5 66q0 25 -22 82zM686 1206l-260 -641h530zM516 1731
q0 80 53.5 133t137.5 53t137 -53t53 -133t-53 -133.5t-137 -53.5t-137.5 53.5t-53.5 133.5zM811 1731q0 49 -26.5 79.5t-77.5 30.5t-78 -30.5t-27 -79.5t27 -80t78 -31t77.5 31t26.5 80z" />
    <glyph glyph-name="AE" unicode="&#xc6;" horiz-adv-x="2160" 
d="M143 156l799 1128q-13 40 -57 55.5t-144 18.5v80h1266v-342h-55q-58 141 -118 194t-179 53h-391v-561h348q65 0 98 44.5t49 140.5h70v-463h-70q-16 96 -49 140t-98 44h-348v-455q0 -81 46.5 -110t159.5 -29h205q34 0 60.5 2t51.5 11.5t41.5 16t38.5 28.5t34 34.5
t36.5 49.5t38 58.5t45.5 74.5h58l-62 -369h-1159v80q113 3 161 32t48 117v287h-541l-186 -266q-35 -49 -35 -98q0 -45 39 -57t160 -15v-80h-494v80q86 12 133 76zM1067 1290l-479 -684h479v684z" />
    <glyph glyph-name="Ccedilla" unicode="&#xc7;" horiz-adv-x="1378" 
d="M598 -453l-12 68q113 0 176 24t63 70q0 86 -190 92l74 181q-281 19 -451 214t-170 492q0 176 55 322t150.5 243.5t224.5 151t277 53.5q278 0 442 -129v-313h-74q-78 338 -381 338q-97 0 -176 -31.5t-134 -86.5t-92.5 -132t-55 -167t-17.5 -192q0 -141 32 -260.5
t93 -209.5t157 -140.5t218 -50.5q150 0 246 87.5t157 268.5h76l-47 -348q-107 -56 -212.5 -83.5t-252.5 -28.5l-31 -78q109 -2 166.5 -37t57.5 -115q0 -67 -50.5 -114t-131.5 -68t-187 -21z" />
    <glyph glyph-name="Egrave" unicode="&#xc8;" horiz-adv-x="1372" 
d="M1040 504h-69q-16 96 -49.5 140t-98.5 44h-348v-455q0 -81 47 -110t160 -29h205q34 0 60.5 2t51.5 11.5t41.5 16t38.5 28.5t34 34.5t36.5 49.5t38 58.5t45.5 74.5h57l-61 -369h-1159v80q113 3 161 32t48 117v979q0 88 -48 117.5t-161 32.5v80h1149v-342h-56
q-58 141 -118 194t-179 53h-391v-561h348q65 0 98.5 44.5t49.5 140.5h69v-463zM371 1864h245l152 -305h-80z" />
    <glyph glyph-name="Eacute" unicode="&#xc9;" horiz-adv-x="1372" 
d="M1040 504h-69q-16 96 -49.5 140t-98.5 44h-348v-455q0 -81 47 -110t160 -29h205q34 0 60.5 2t51.5 11.5t41.5 16t38.5 28.5t34 34.5t36.5 49.5t38 58.5t45.5 74.5h57l-61 -369h-1159v80q113 3 161 32t48 117v979q0 88 -48 117.5t-161 32.5v80h1149v-342h-56
q-58 141 -118 194t-179 53h-391v-561h348q65 0 98.5 44.5t49.5 140.5h69v-463zM793 1864h245l-317 -305h-80z" />
    <glyph glyph-name="Ecircumflex" unicode="&#xca;" horiz-adv-x="1372" 
d="M1040 504h-69q-16 96 -49.5 140t-98.5 44h-348v-455q0 -81 47 -110t160 -29h205q34 0 60.5 2t51.5 11.5t41.5 16t38.5 28.5t34 34.5t36.5 49.5t38 58.5t45.5 74.5h57l-61 -369h-1159v80q113 3 161 32t48 117v979q0 88 -48 117.5t-161 32.5v80h1149v-342h-56
q-58 141 -118 194t-179 53h-391v-561h348q65 0 98.5 44.5t49.5 140.5h69v-463zM778 1884l307 -325h-94l-282 184l-283 -184h-94l307 325h139z" />
    <glyph glyph-name="Edieresis" unicode="&#xcb;" horiz-adv-x="1372" 
d="M1040 504h-69q-16 96 -49.5 140t-98.5 44h-348v-455q0 -81 47 -110t160 -29h205q34 0 60.5 2t51.5 11.5t41.5 16t38.5 28.5t34 34.5t36.5 49.5t38 58.5t45.5 74.5h57l-61 -369h-1159v80q113 3 161 32t48 117v979q0 88 -48 117.5t-161 32.5v80h1149v-342h-56
q-58 141 -118 194t-179 53h-391v-561h348q65 0 98.5 44.5t49.5 140.5h69v-463zM379 1704q0 51 36.5 87t88.5 36t88.5 -36t36.5 -87q0 -54 -36 -90.5t-89 -36.5t-89 36.5t-36 90.5zM788 1704q0 51 36.5 87t88.5 36t88.5 -36t36.5 -87q0 -54 -36 -90.5t-89 -36.5t-89 36.5
t-36 90.5z" />
    <glyph glyph-name="Igrave" unicode="&#xcc;" horiz-adv-x="753" 
d="M684 0h-614v80q113 3 161 32t48 117v979q0 88 -48 117.5t-161 32.5v80h614v-80q-113 -3 -161 -32.5t-48 -117.5v-979q0 -88 48 -117t161 -32v-80zM39 1864h246l151 -305h-80z" />
    <glyph glyph-name="Iacute" unicode="&#xcd;" horiz-adv-x="753" 
d="M684 0h-614v80q113 3 161 32t48 117v979q0 88 -48 117.5t-161 32.5v80h614v-80q-113 -3 -161 -32.5t-48 -117.5v-979q0 -88 48 -117t161 -32v-80zM461 1864h246l-318 -305h-80z" />
    <glyph glyph-name="Icircumflex" unicode="&#xce;" horiz-adv-x="753" 
d="M684 0h-614v80q113 3 161 32t48 117v979q0 88 -48 117.5t-161 32.5v80h614v-80q-113 -3 -161 -32.5t-48 -117.5v-979q0 -88 48 -117t161 -32v-80zM446 1884l308 -325h-95l-282 184l-283 -184h-94l307 325h139z" />
    <glyph glyph-name="Idieresis" unicode="&#xcf;" horiz-adv-x="753" 
d="M684 0h-614v80q113 3 161 32t48 117v979q0 88 -48 117.5t-161 32.5v80h614v-80q-113 -3 -161 -32.5t-48 -117.5v-979q0 -88 48 -117t161 -32v-80zM47 1704q0 51 36.5 87t88.5 36t88.5 -36t36.5 -87q0 -54 -36 -90.5t-89 -36.5t-89 36.5t-36 90.5zM457 1704q0 51 36.5 87
t88.5 36t88.5 -36t36.5 -87q0 -54 -36 -90.5t-89 -36.5t-89 36.5t-36 90.5z" />
    <glyph glyph-name="Eth" unicode="&#xd0;" horiz-adv-x="1568" 
d="M92 692v88h209v428q0 88 -48 117.5t-161 32.5v80h629q155 0 282.5 -36.5t215 -99.5t147.5 -149.5t87.5 -185t27.5 -207.5q0 -180 -57.5 -326t-157 -240t-231 -144t-283.5 -50h-660v80q113 3 161 32t48 117v463h-209zM682 1343h-184v-563h356v-88h-356v-452
q0 -87 47.5 -116.5t161.5 -29.5h45q239 0 374.5 161t135.5 460q0 99 -19.5 188t-63.5 170.5t-110 140.5t-165 94t-222 35z" />
    <glyph glyph-name="Ntilde" unicode="&#xd1;" horiz-adv-x="1650" 
d="M279 229v1000q-68 80 -103.5 104t-105.5 25v80h350l852 -1080v850q0 88 -48 117.5t-161 32.5v80h536v-80q-112 -3 -160 -32.5t-48 -117.5v-1208h-84l-910 1137v-908q0 -88 48 -117t161 -32v-80h-536v80q113 3 161 32t48 117zM1124 1823l76 -21q-67 -148 -117.5 -197
t-124.5 -49q-41 0 -86.5 23t-78 51t-70.5 51t-66 23q-44 0 -69 -27t-64 -100l-75 20q67 148 117 197t124 49q41 0 86.5 -23t78 -50.5t70.5 -50.5t66 -23q44 0 69 27t64 100z" />
    <glyph glyph-name="Ograve" unicode="&#xd2;" horiz-adv-x="1531" 
d="M788 92q141 0 241.5 83t148 221t47.5 317q0 96 -17 186t-55 172t-93 142.5t-136.5 96.5t-180.5 36q-141 0 -241 -83t-147.5 -221t-47.5 -317q0 -96 17 -186t55 -172t92.5 -142.5t136 -96.5t180.5 -36zM772 1458q155 0 283.5 -57.5t212.5 -155t130 -226t46 -271.5
q0 -172 -54.5 -317.5t-147.5 -243.5t-218 -152.5t-264 -54.5q-155 0 -283.5 57.5t-212.5 155t-130 226t-46 271.5q0 172 54.5 317.5t147.5 243.5t218 152.5t264 54.5zM428 1864h246l151 -305h-80z" />
    <glyph glyph-name="Oacute" unicode="&#xd3;" horiz-adv-x="1531" 
d="M788 92q141 0 241.5 83t148 221t47.5 317q0 96 -17 186t-55 172t-93 142.5t-136.5 96.5t-180.5 36q-141 0 -241 -83t-147.5 -221t-47.5 -317q0 -96 17 -186t55 -172t92.5 -142.5t136 -96.5t180.5 -36zM772 1458q155 0 283.5 -57.5t212.5 -155t130 -226t46 -271.5
q0 -172 -54.5 -317.5t-147.5 -243.5t-218 -152.5t-264 -54.5q-155 0 -283.5 57.5t-212.5 155t-130 226t-46 271.5q0 172 54.5 317.5t147.5 243.5t218 152.5t264 54.5zM850 1864h246l-318 -305h-80z" />
    <glyph glyph-name="Ocircumflex" unicode="&#xd4;" horiz-adv-x="1531" 
d="M788 92q141 0 241.5 83t148 221t47.5 317q0 96 -17 186t-55 172t-93 142.5t-136.5 96.5t-180.5 36q-141 0 -241 -83t-147.5 -221t-47.5 -317q0 -96 17 -186t55 -172t92.5 -142.5t136 -96.5t180.5 -36zM772 1458q155 0 283.5 -57.5t212.5 -155t130 -226t46 -271.5
q0 -172 -54.5 -317.5t-147.5 -243.5t-218 -152.5t-264 -54.5q-155 0 -283.5 57.5t-212.5 155t-130 226t-46 271.5q0 172 54.5 317.5t147.5 243.5t218 152.5t264 54.5zM836 1884l307 -325h-94l-283 184l-283 -184h-94l307 325h140z" />
    <glyph glyph-name="Otilde" unicode="&#xd5;" horiz-adv-x="1531" 
d="M788 92q141 0 241.5 83t148 221t47.5 317q0 96 -17 186t-55 172t-93 142.5t-136.5 96.5t-180.5 36q-141 0 -241 -83t-147.5 -221t-47.5 -317q0 -96 17 -186t55 -172t92.5 -142.5t136 -96.5t180.5 -36zM772 1458q155 0 283.5 -57.5t212.5 -155t130 -226t46 -271.5
q0 -172 -54.5 -317.5t-147.5 -243.5t-218 -152.5t-264 -54.5q-155 0 -283.5 57.5t-212.5 155t-130 226t-46 271.5q0 172 54.5 317.5t147.5 243.5t218 152.5t264 54.5zM1067 1823l76 -21q-67 -148 -117.5 -197t-124.5 -49q-41 0 -86.5 23t-78 51t-70.5 51t-66 23
q-44 0 -69 -27t-64 -100l-76 20q67 148 117.5 197t124.5 49q41 0 86.5 -23t78 -50.5t70.5 -50.5t66 -23q44 0 69 27t64 100z" />
    <glyph glyph-name="Odieresis" unicode="&#xd6;" horiz-adv-x="1531" 
d="M788 92q141 0 241.5 83t148 221t47.5 317q0 96 -17 186t-55 172t-93 142.5t-136.5 96.5t-180.5 36q-141 0 -241 -83t-147.5 -221t-47.5 -317q0 -96 17 -186t55 -172t92.5 -142.5t136 -96.5t180.5 -36zM772 1458q155 0 283.5 -57.5t212.5 -155t130 -226t46 -271.5
q0 -172 -54.5 -317.5t-147.5 -243.5t-218 -152.5t-264 -54.5q-155 0 -283.5 57.5t-212.5 155t-130 226t-46 271.5q0 172 54.5 317.5t147.5 243.5t218 152.5t264 54.5zM436 1704q0 51 36.5 87t88.5 36t88.5 -36t36.5 -87q0 -54 -36 -90.5t-89 -36.5t-89 36.5t-36 90.5z
M846 1704q0 51 36.5 87t88.5 36t88.5 -36t36.5 -87q0 -54 -36 -90.5t-89 -36.5t-89 36.5t-36 90.5z" />
    <glyph glyph-name="multiply" unicode="&#xd7;" horiz-adv-x="999" 
d="M410 750l-281 282l90 90l279 -284l282 284l90 -90l-282 -282l282 -281l-90 -86l-282 279l-279 -279l-90 86z" />
    <glyph glyph-name="Oslash" unicode="&#xd8;" horiz-adv-x="1544" 
d="M1341 1489l-124 -189q113 -99 173 -242.5t60 -309.5q0 -172 -54.5 -317.5t-147.5 -243.5t-218 -152.5t-264 -54.5q-202 0 -356 96l-125 -191l-80 47l129 197q-116 99 -178 245.5t-62 315.5q0 172 54.5 317.5t147.5 243.5t218 152.5t264 54.5q203 0 365 -102l119 180z
M313 725q0 -273 121 -444l621 942q-120 123 -305 123q-141 0 -241.5 -83t-148 -221t-47.5 -317zM795 92q141 0 241 83t147.5 221t47.5 317q0 265 -115 436l-620 -942q118 -115 299 -115z" />
    <glyph glyph-name="Ugrave" unicode="&#xd9;" horiz-adv-x="1568" 
d="M424 1208v-704q0 -190 99 -292.5t276 -102.5q213 0 320.5 97.5t107.5 313.5v688q0 88 -48.5 117.5t-160.5 32.5v80h534v-80q-111 -3 -158.5 -32.5t-47.5 -117.5v-727q0 -124 -44.5 -221t-121.5 -156.5t-175 -90.5t-210 -31q-267 0 -418.5 125.5t-151.5 377.5v723
q0 88 -48.5 117.5t-160.5 32.5v80h615v-80q-111 -3 -159 -32.5t-48 -117.5zM487 1864h246l152 -305h-80z" />
    <glyph glyph-name="Uacute" unicode="&#xda;" horiz-adv-x="1568" 
d="M424 1208v-704q0 -190 99 -292.5t276 -102.5q213 0 320.5 97.5t107.5 313.5v688q0 88 -48.5 117.5t-160.5 32.5v80h534v-80q-111 -3 -158.5 -32.5t-47.5 -117.5v-727q0 -124 -44.5 -221t-121.5 -156.5t-175 -90.5t-210 -31q-267 0 -418.5 125.5t-151.5 377.5v723
q0 88 -48.5 117.5t-160.5 32.5v80h615v-80q-111 -3 -159 -32.5t-48 -117.5zM909 1864h246l-317 -305h-80z" />
    <glyph glyph-name="Ucircumflex" unicode="&#xdb;" horiz-adv-x="1568" 
d="M424 1208v-704q0 -190 99 -292.5t276 -102.5q213 0 320.5 97.5t107.5 313.5v688q0 88 -48.5 117.5t-160.5 32.5v80h534v-80q-111 -3 -158.5 -32.5t-47.5 -117.5v-727q0 -124 -44.5 -221t-121.5 -156.5t-175 -90.5t-210 -31q-267 0 -418.5 125.5t-151.5 377.5v723
q0 88 -48.5 117.5t-160.5 32.5v80h615v-80q-111 -3 -159 -32.5t-48 -117.5zM895 1884l307 -325h-94l-283 184l-282 -184h-94l307 325h139z" />
    <glyph glyph-name="Udieresis" unicode="&#xdc;" horiz-adv-x="1568" 
d="M424 1208v-704q0 -190 99 -292.5t276 -102.5q213 0 320.5 97.5t107.5 313.5v688q0 88 -48.5 117.5t-160.5 32.5v80h534v-80q-111 -3 -158.5 -32.5t-47.5 -117.5v-727q0 -124 -44.5 -221t-121.5 -156.5t-175 -90.5t-210 -31q-267 0 -418.5 125.5t-151.5 377.5v723
q0 88 -48.5 117.5t-160.5 32.5v80h615v-80q-111 -3 -159 -32.5t-48 -117.5zM496 1704q0 51 36.5 87t88.5 36t88 -36t36 -87q0 -54 -35.5 -90.5t-88.5 -36.5t-89 36.5t-36 90.5zM905 1704q0 51 36.5 87t88.5 36t88.5 -36t36.5 -87q0 -54 -36 -90.5t-89 -36.5t-89 36.5
t-36 90.5z" />
    <glyph glyph-name="Yacute" unicode="&#xdd;" horiz-adv-x="1357" 
d="M717 684l321 504q35 61 35 94q0 41 -39 57t-147 19v80h461v-80q-47 -6 -74 -22t-51 -54l-453 -702v-351q0 -88 48.5 -117t158.5 -32v-80h-610v80q113 3 160.5 32t47.5 117v349l-440 704q-24 38 -51.5 54t-73.5 22v80h543v-80q-106 -3 -146 -19t-40 -57q0 -39 36 -94z
M795 1864h245l-317 -305h-80z" />
    <glyph glyph-name="Thorn" unicode="&#xde;" horiz-adv-x="1267" 
d="M475 1036v-620h150q193 0 282.5 70.5t89.5 236.5q0 149 -93.5 231t-278.5 82h-150zM475 1130h191q143 0 251.5 -32t172.5 -88t95.5 -126.5t31.5 -152.5q0 -187 -132 -298t-385 -111h-225v-93q0 -37 12.5 -63t32.5 -41.5t56 -25t71.5 -13t91.5 -6.5v-80h-669v80
q113 3 161 32t48 117v979q0 88 -48 117.5t-161 32.5v80h614v-80q-113 -3 -161 -32.5t-48 -117.5v-78z" />
    <glyph glyph-name="germandbls" unicode="&#xdf;" horiz-adv-x="1349" 
d="M803 838q0 -18 8 -34t19.5 -28.5t35.5 -28t44.5 -27t59 -33t66.5 -38.5q62 -37 99 -64t74.5 -67.5t54 -90.5t16.5 -114q0 -96 -49.5 -173t-129 -117.5t-171.5 -40.5q-202 0 -316 108l-12 272h76q34 -143 90 -215.5t158 -72.5q86 0 136 46t50 132q0 87 -51.5 139
t-183.5 127q-112 64 -161.5 121t-49.5 147q0 45 25 89t60 84t70.5 83t60.5 103.5t25 128.5q0 104 -49 158.5t-158 54.5q-126 0 -198 -97t-72 -272v-1118h-348v72q34 5 51.5 8t42 11t36 19t20 31t8.5 47v789h-152v67l152 54q0 218 128 344.5t349 126.5q174 0 268 -75.5
t94 -217.5q0 -63 -28.5 -117t-69 -91.5t-81 -72t-69 -74.5t-28.5 -83z" />
    <glyph glyph-name="agrave" unicode="&#xe0;" horiz-adv-x="1095" 
d="M449 123q70 0 127 21.5t124 70.5v367l-290 -111q-58 -22 -91.5 -65.5t-33.5 -100.5q0 -87 43 -134.5t121 -47.5zM891 762q0 -32 -3 -247.5t-3 -260.5q0 -67 24.5 -103t69.5 -36q49 0 96 12l10 -49q-98 -98 -204 -98q-144 0 -174 186q-164 -186 -342 -186q-133 0 -203 78
t-70 198q0 55 18 100t43 75t67 56t75.5 40.5t81.5 31.5l323 117v100q0 232 -202 232q-168 0 -168 -152q0 -49 14 -106l-154 -21q-43 43 -43 111q0 123 109 194.5t281 71.5q176 0 265 -88t89 -256zM217 1559h238l151 -347h-80z" />
    <glyph glyph-name="aacute" unicode="&#xe1;" horiz-adv-x="1095" 
d="M449 123q70 0 127 21.5t124 70.5v367l-290 -111q-58 -22 -91.5 -65.5t-33.5 -100.5q0 -87 43 -134.5t121 -47.5zM891 762q0 -32 -3 -247.5t-3 -260.5q0 -67 24.5 -103t69.5 -36q49 0 96 12l10 -49q-98 -98 -204 -98q-144 0 -174 186q-164 -186 -342 -186q-133 0 -203 78
t-70 198q0 55 18 100t43 75t67 56t75.5 40.5t81.5 31.5l323 117v100q0 232 -202 232q-168 0 -168 -152q0 -49 14 -106l-154 -21q-43 43 -43 111q0 123 109 194.5t281 71.5q176 0 265 -88t89 -256zM623 1559h237l-309 -347h-80z" />
    <glyph glyph-name="acircumflex" unicode="&#xe2;" horiz-adv-x="1095" 
d="M449 123q70 0 127 21.5t124 70.5v367l-290 -111q-58 -22 -91.5 -65.5t-33.5 -100.5q0 -87 43 -134.5t121 -47.5zM891 762q0 -32 -3 -247.5t-3 -260.5q0 -67 24.5 -103t69.5 -36q49 0 96 12l10 -49q-98 -98 -204 -98q-144 0 -174 186q-164 -186 -342 -186q-133 0 -203 78
t-70 198q0 55 18 100t43 75t67 56t75.5 40.5t81.5 31.5l323 117v100q0 232 -202 232q-168 0 -168 -152q0 -49 14 -106l-154 -21q-43 43 -43 111q0 123 109 194.5t281 71.5q176 0 265 -88t89 -256zM604 1567l287 -355h-94l-262 211l-263 -211h-94l287 355h139z" />
    <glyph glyph-name="atilde" unicode="&#xe3;" horiz-adv-x="1095" 
d="M449 123q70 0 127 21.5t124 70.5v367l-290 -111q-58 -22 -91.5 -65.5t-33.5 -100.5q0 -87 43 -134.5t121 -47.5zM891 762q0 -32 -3 -247.5t-3 -260.5q0 -67 24.5 -103t69.5 -36q49 0 96 12l10 -49q-98 -98 -204 -98q-144 0 -174 186q-164 -186 -342 -186q-133 0 -203 78
t-70 198q0 55 18 100t43 75t67 56t75.5 40.5t81.5 31.5l323 117v100q0 232 -202 232q-168 0 -168 -152q0 -49 14 -106l-154 -21q-43 43 -43 111q0 123 109 194.5t281 71.5q176 0 265 -88t89 -256zM844 1518l76 -21q-67 -148 -117.5 -197t-124.5 -49q-41 0 -86.5 23t-78 51
t-70.5 51t-66 23q-44 0 -69 -27t-64 -100l-76 20q67 148 117.5 197t124.5 49q41 0 86.5 -23t78 -50.5t70.5 -50.5t66 -23q44 0 69 27t64 100z" />
    <glyph glyph-name="adieresis" unicode="&#xe4;" horiz-adv-x="1095" 
d="M449 123q70 0 127 21.5t124 70.5v367l-290 -111q-58 -22 -91.5 -65.5t-33.5 -100.5q0 -87 43 -134.5t121 -47.5zM891 762q0 -32 -3 -247.5t-3 -260.5q0 -67 24.5 -103t69.5 -36q49 0 96 12l10 -49q-98 -98 -204 -98q-144 0 -174 186q-164 -186 -342 -186q-133 0 -203 78
t-70 198q0 55 18 100t43 75t67 56t75.5 40.5t81.5 31.5l323 117v100q0 232 -202 232q-168 0 -168 -152q0 -49 14 -106l-154 -21q-43 43 -43 111q0 123 109 194.5t281 71.5q176 0 265 -88t89 -256zM221 1386q0 51 36.5 87t88.5 36t88.5 -36t36.5 -87q0 -54 -36 -90t-89 -36
t-89 36t-36 90zM610 1386q0 51 36.5 87t88.5 36t88.5 -36t36.5 -87q0 -54 -36 -90t-89 -36t-89 36t-36 90z" />
    <glyph glyph-name="aring" unicode="&#xe5;" horiz-adv-x="1095" 
d="M449 123q70 0 127 21.5t124 70.5v367l-290 -111q-58 -22 -91.5 -65.5t-33.5 -100.5q0 -87 43 -134.5t121 -47.5zM891 762q0 -32 -3 -247.5t-3 -260.5q0 -67 24.5 -103t69.5 -36q49 0 96 12l10 -49q-98 -98 -204 -98q-144 0 -174 186q-164 -186 -342 -186q-133 0 -203 78
t-70 198q0 55 18 100t43 75t67 56t75.5 40.5t81.5 31.5l323 117v100q0 232 -202 232q-168 0 -168 -152q0 -49 14 -106l-154 -21q-43 43 -43 111q0 123 109 194.5t281 71.5q176 0 265 -88t89 -256zM344 1391q0 80 53.5 133t137.5 53t137 -53t53 -133t-53 -133.5t-137 -53.5
t-137.5 53.5t-53.5 133.5zM639 1391q0 49 -26.5 79.5t-77.5 30.5t-78 -30.5t-27 -79.5t27 -80t78 -31t77.5 31t26.5 80z" />
    <glyph glyph-name="ae" unicode="&#xe6;" horiz-adv-x="1695" 
d="M1200 1106q197 0 304.5 -125t107.5 -332v-63h-733q0 -203 101 -327t273 -124q108 0 185.5 46t140.5 130l35 -18q-38 -141 -150.5 -227t-279.5 -86q-134 0 -236 59t-164 164q-85 -111 -181.5 -167t-217.5 -56q-135 0 -214 79.5t-79 196.5q0 55 18.5 100t45 74t68.5 53.5
t77 38t82 27.5l336 98q5 32 22 96q-2 49 -15.5 92.5t-39.5 84t-74.5 64.5t-113.5 24q-168 0 -168 -152q0 -49 14 -106l-154 -21q-43 43 -43 111q0 123 107 194.5t270 71.5q240 0 326 -162q140 162 350 162zM709 508v41l-293 -88q-131 -41 -131 -166q0 -80 43.5 -126
t120.5 -46q162 0 313 123q-53 115 -53 262zM1169 1006q-116 0 -192.5 -95.5t-89.5 -230.5h536q0 151 -65.5 238.5t-188.5 87.5z" />
    <glyph glyph-name="ccedilla" unicode="&#xe7;" horiz-adv-x="1036" 
d="M356 -453l-12 68q113 0 176.5 24t63.5 70q0 86 -191 92l76 185q-176 28 -281.5 171t-105.5 351q0 162 64.5 298t185.5 218t274 82q162 0 254 -67.5t92 -184.5q0 -87 -82 -123h-104v70q0 91 -46.5 147t-139.5 56q-145 0 -235.5 -118.5t-90.5 -299.5q0 -205 96 -328
t266 -123q102 0 176.5 43.5t135.5 130.5l37 -20q-44 -153 -151 -231t-265 -78h-17l-30 -78q109 -2 166 -37t57 -115q0 -67 -50.5 -114t-131.5 -68t-187 -21z" />
    <glyph glyph-name="egrave" unicode="&#xe8;" horiz-adv-x="1069" 
d="M573 1106q197 0 304.5 -125t107.5 -332v-63h-733q0 -203 101.5 -327t273.5 -124q108 0 184.5 46t140.5 130l35 -18q-38 -141 -150.5 -227t-279.5 -86q-145 0 -254.5 71.5t-165 190t-55.5 266.5q0 266 138.5 432t352.5 166zM543 1006q-117 0 -193.5 -94t-89.5 -228h537
q0 151 -65 236.5t-189 85.5zM246 1559h237l152 -347h-80z" />
    <glyph glyph-name="eacute" unicode="&#xe9;" horiz-adv-x="1069" 
d="M573 1106q197 0 304.5 -125t107.5 -332v-63h-733q0 -203 101.5 -327t273.5 -124q108 0 184.5 46t140.5 130l35 -18q-38 -141 -150.5 -227t-279.5 -86q-145 0 -254.5 71.5t-165 190t-55.5 266.5q0 266 138.5 432t352.5 166zM543 1006q-117 0 -193.5 -94t-89.5 -228h537
q0 151 -65 236.5t-189 85.5zM651 1559h238l-309 -347h-80z" />
    <glyph glyph-name="ecircumflex" unicode="&#xea;" horiz-adv-x="1069" 
d="M573 1106q197 0 304.5 -125t107.5 -332v-63h-733q0 -203 101.5 -327t273.5 -124q108 0 184.5 46t140.5 130l35 -18q-38 -141 -150.5 -227t-279.5 -86q-145 0 -254.5 71.5t-165 190t-55.5 266.5q0 266 138.5 432t352.5 166zM543 1006q-117 0 -193.5 -94t-89.5 -228h537
q0 151 -65 236.5t-189 85.5zM639 1567l287 -355h-95l-262 211l-262 -211h-94l287 355h139z" />
    <glyph glyph-name="edieresis" unicode="&#xeb;" horiz-adv-x="1069" 
d="M573 1106q197 0 304.5 -125t107.5 -332v-63h-733q0 -203 101.5 -327t273.5 -124q108 0 184.5 46t140.5 130l35 -18q-38 -141 -150.5 -227t-279.5 -86q-145 0 -254.5 71.5t-165 190t-55.5 266.5q0 266 138.5 432t352.5 166zM543 1006q-117 0 -193.5 -94t-89.5 -228h537
q0 151 -65 236.5t-189 85.5zM246 1386q0 51 36.5 87t88.5 36t88.5 -36t36.5 -87q0 -54 -36 -90t-89 -36t-89 36t-36 90zM635 1386q0 51 36.5 87t88.5 36t88.5 -36t36.5 -87q0 -54 -36 -90t-89 -36t-89 36t-36 90z" />
    <glyph glyph-name="igrave" unicode="&#xec;" horiz-adv-x="657" 
d="M428 1106v-918q0 -27 8.5 -47t20 -31t35 -19t41.5 -11t53 -8v-72h-504v72q34 5 51.5 8t42 11t36 19t20 31t8.5 47v701l-148 72v43l285 102h51zM-8 1559h237l152 -347h-80z" />
    <glyph glyph-name="iacute" unicode="&#xed;" horiz-adv-x="657" 
d="M428 1106v-918q0 -27 8.5 -47t20 -31t35 -19t41.5 -11t53 -8v-72h-504v72q34 5 51.5 8t42 11t36 19t20 31t8.5 47v701l-148 72v43l285 102h51zM418 1559h237l-309 -347h-80z" />
    <glyph glyph-name="icircumflex" unicode="&#xee;" horiz-adv-x="657" 
d="M428 1106v-918q0 -27 8.5 -47t20 -31t35 -19t41.5 -11t53 -8v-72h-504v72q34 5 51.5 8t42 11t36 19t20 31t8.5 47v701l-148 72v43l285 102h51zM399 1567l287 -355h-94l-262 211l-262 -211h-95l287 355h139z" />
    <glyph glyph-name="idieresis" unicode="&#xef;" horiz-adv-x="657" 
d="M428 1106v-918q0 -27 8.5 -47t20 -31t35 -19t41.5 -11t53 -8v-72h-504v72q34 5 51.5 8t42 11t36 19t20 31t8.5 47v701l-148 72v43l285 102h51zM10 1386q0 51 36.5 87t88.5 36t88.5 -36t36.5 -87q0 -54 -36 -90t-89 -36t-89 36t-36 90zM399 1386q0 51 36.5 87t88.5 36
t88.5 -36t36.5 -87q0 -54 -36 -90t-89 -36t-89 36t-36 90z" />
    <glyph glyph-name="eth" unicode="&#xf0;" horiz-adv-x="1171" 
d="M317 1178l-30 79l248 95q-130 108 -287 172l39 65q228 -73 383 -184l227 86l31 -80l-178 -68q167 -144 253.5 -330t86.5 -397q0 -160 -40 -284t-110.5 -199.5t-161.5 -114t-198 -38.5q-225 0 -361.5 151.5t-136.5 390.5q0 128 39.5 234.5t106 175.5t153 107t182.5 38
q168 0 293 -153q-79 193 -250 364zM604 86q141 0 215 118t74 322q0 129 -37.5 233.5t-113 168t-175.5 63.5q-142 0 -215 -114.5t-73 -317.5q0 -130 37.5 -236t112.5 -171.5t175 -65.5z" />
    <glyph glyph-name="ntilde" unicode="&#xf1;" horiz-adv-x="1318" 
d="M920 188v568q0 108 -45.5 153t-145.5 45q-77 0 -158.5 -30.5t-142.5 -77.5v-658q0 -27 8.5 -47t20 -31t35 -19t41.5 -11t53 -8v-72h-504v72q34 5 51.5 8t42 11t36 19t20 31t8.5 47v701l-148 72v43l285 102h51v-201q44 43 81 73.5t87.5 62.5t107 48.5t117.5 16.5
q287 0 287 -336v-582q0 -27 8.5 -47t20 -31t36 -19t42.5 -11t53 -8v-72h-506v72q34 5 51.5 8t42 11t36 19t20 31t8.5 47zM975 1518l76 -21q-67 -148 -117.5 -197t-124.5 -49q-41 0 -86.5 23t-78 51t-70.5 51t-66 23q-44 0 -69 -27t-64 -100l-76 20q67 148 117.5 197
t124.5 49q41 0 86.5 -23t78 -50.5t70.5 -50.5t66 -23q44 0 69 27t64 100z" />
    <glyph glyph-name="ograve" unicode="&#xf2;" horiz-adv-x="1171" 
d="M604 86q141 0 215 118t74 322q0 130 -37.5 236t-113 171.5t-175.5 65.5q-141 0 -214.5 -118t-73.5 -322q0 -130 37.5 -236t112.5 -171.5t175 -65.5zM580 -20q-225 0 -361.5 151.5t-136.5 390.5q0 129 40.5 239.5t109.5 185t162.5 117t197.5 42.5q225 0 361.5 -152
t136.5 -391q0 -129 -40.5 -239t-110 -185t-162.5 -117t-197 -42zM248 1559h237l152 -347h-80z" />
    <glyph glyph-name="oacute" unicode="&#xf3;" horiz-adv-x="1171" 
d="M604 86q141 0 215 118t74 322q0 130 -37.5 236t-113 171.5t-175.5 65.5q-141 0 -214.5 -118t-73.5 -322q0 -130 37.5 -236t112.5 -171.5t175 -65.5zM580 -20q-225 0 -361.5 151.5t-136.5 390.5q0 129 40.5 239.5t109.5 185t162.5 117t197.5 42.5q225 0 361.5 -152
t136.5 -391q0 -129 -40.5 -239t-110 -185t-162.5 -117t-197 -42zM674 1559h237l-309 -347h-80z" />
    <glyph glyph-name="ocircumflex" unicode="&#xf4;" horiz-adv-x="1171" 
d="M604 86q141 0 215 118t74 322q0 130 -37.5 236t-113 171.5t-175.5 65.5q-141 0 -214.5 -118t-73.5 -322q0 -130 37.5 -236t112.5 -171.5t175 -65.5zM580 -20q-225 0 -361.5 151.5t-136.5 390.5q0 129 40.5 239.5t109.5 185t162.5 117t197.5 42.5q225 0 361.5 -152
t136.5 -391q0 -129 -40.5 -239t-110 -185t-162.5 -117t-197 -42zM655 1567l287 -355h-94l-262 211l-262 -211h-95l287 355h139z" />
    <glyph glyph-name="otilde" unicode="&#xf5;" horiz-adv-x="1171" 
d="M604 86q141 0 215 118t74 322q0 130 -37.5 236t-113 171.5t-175.5 65.5q-141 0 -214.5 -118t-73.5 -322q0 -130 37.5 -236t112.5 -171.5t175 -65.5zM580 -20q-225 0 -361.5 151.5t-136.5 390.5q0 129 40.5 239.5t109.5 185t162.5 117t197.5 42.5q225 0 361.5 -152
t136.5 -391q0 -129 -40.5 -239t-110 -185t-162.5 -117t-197 -42zM887 1518l76 -21q-67 -148 -117.5 -197t-124.5 -49q-41 0 -86.5 23t-78 51t-70.5 51t-66 23q-44 0 -69 -27t-64 -100l-76 20q67 148 117.5 197t124.5 49q41 0 86.5 -23t78 -50.5t70.5 -50.5t66 -23
q44 0 69 27t64 100z" />
    <glyph glyph-name="odieresis" unicode="&#xf6;" horiz-adv-x="1171" 
d="M604 86q141 0 215 118t74 322q0 130 -37.5 236t-113 171.5t-175.5 65.5q-141 0 -214.5 -118t-73.5 -322q0 -130 37.5 -236t112.5 -171.5t175 -65.5zM580 -20q-225 0 -361.5 151.5t-136.5 390.5q0 129 40.5 239.5t109.5 185t162.5 117t197.5 42.5q225 0 361.5 -152
t136.5 -391q0 -129 -40.5 -239t-110 -185t-162.5 -117t-197 -42zM266 1386q0 51 36.5 87t88.5 36t88.5 -36t36.5 -87q0 -54 -36 -90t-89 -36t-89 36t-36 90zM655 1386q0 51 36.5 87t88.5 36t88.5 -36t36.5 -87q0 -54 -36 -90t-89 -36t-89 36t-36 90z" />
    <glyph glyph-name="divide" unicode="&#xf7;" horiz-adv-x="1155" 
d="M129 696v127h897v-127h-897zM461 414q0 49 33.5 83.5t80.5 34.5q48 0 83.5 -34.5t35.5 -83.5q0 -46 -36 -81.5t-83 -35.5t-80.5 35.5t-33.5 81.5zM461 1106q0 47 33.5 81t80.5 34q48 0 83.5 -34t35.5 -81t-36 -83t-83 -36t-80.5 35.5t-33.5 83.5z" />
    <glyph glyph-name="oslash" unicode="&#xf8;" horiz-adv-x="1171" 
d="M1004 1149l-93 -156q86 -73 132.5 -184t46.5 -246q0 -129 -40.5 -239t-110 -185t-162.5 -117t-197 -42q-127 0 -236 53l-92 -158l-84 51l94 162q-87 72 -133.5 184t-46.5 250q0 129 40.5 239.5t109.5 185t162.5 117t197.5 42.5q132 0 237 -57l91 151zM279 559
q0 -203 69 -326l412 697q-79 69 -193 69q-141 0 -214.5 -118t-73.5 -322zM604 86q141 0 215 118t74 322q0 193 -68 320l-411 -694q75 -66 190 -66z" />
    <glyph glyph-name="ugrave" unicode="&#xf9;" horiz-adv-x="1288" 
d="M870 -20v200q-49 -47 -81.5 -74.5t-82 -60.5t-103.5 -49t-114 -16q-288 0 -288 335v564q0 55 -24.5 76t-98.5 30l-33 4v70l313 47h31v-762q0 -112 46 -162.5t145 -50.5q147 0 290 109v639q0 55 -24 76t-98 30l-33 4v70l311 47h33v-885q0 -51 22.5 -68.5t92.5 -25.5l53 -6
v-70l-328 -71h-29zM297 1559h238l151 -347h-80z" />
    <glyph glyph-name="uacute" unicode="&#xfa;" horiz-adv-x="1288" 
d="M870 -20v200q-49 -47 -81.5 -74.5t-82 -60.5t-103.5 -49t-114 -16q-288 0 -288 335v564q0 55 -24.5 76t-98.5 30l-33 4v70l313 47h31v-762q0 -112 46 -162.5t145 -50.5q147 0 290 109v639q0 55 -24 76t-98 30l-33 4v70l311 47h33v-885q0 -51 22.5 -68.5t92.5 -25.5l53 -6
v-70l-328 -71h-29zM723 1559h238l-310 -347h-80z" />
    <glyph glyph-name="ucircumflex" unicode="&#xfb;" horiz-adv-x="1288" 
d="M870 -20v200q-49 -47 -81.5 -74.5t-82 -60.5t-103.5 -49t-114 -16q-288 0 -288 335v564q0 55 -24.5 76t-98.5 30l-33 4v70l313 47h31v-762q0 -112 46 -162.5t145 -50.5q147 0 290 109v639q0 55 -24 76t-98 30l-33 4v70l311 47h33v-885q0 -51 22.5 -68.5t92.5 -25.5l53 -6
v-70l-328 -71h-29zM705 1567l286 -355h-94l-262 211l-262 -211h-94l286 355h140z" />
    <glyph glyph-name="udieresis" unicode="&#xfc;" horiz-adv-x="1288" 
d="M870 -20v200q-49 -47 -81.5 -74.5t-82 -60.5t-103.5 -49t-114 -16q-288 0 -288 335v564q0 55 -24.5 76t-98.5 30l-33 4v70l313 47h31v-762q0 -112 46 -162.5t145 -50.5q147 0 290 109v639q0 55 -24 76t-98 30l-33 4v70l311 47h33v-885q0 -51 22.5 -68.5t92.5 -25.5l53 -6
v-70l-328 -71h-29zM315 1386q0 51 36.5 87t88.5 36t88.5 -36t36.5 -87q0 -54 -36 -90t-89 -36t-89 36t-36 90zM705 1386q0 51 36 87t88 36t88.5 -36t36.5 -87q0 -54 -36 -90t-89 -36t-88.5 36t-35.5 90z" />
    <glyph glyph-name="yacute" unicode="&#xfd;" horiz-adv-x="1148" 
d="M537 -6l-406 938q-15 32 -32.5 43.5t-88.5 38.5v71h479v-71q-85 -11 -116 -25t-31 -49q0 -24 14 -55l271 -668l252 668q14 38 14 55q0 35 -31.5 49t-116.5 25v71h394v-71q-73 -26 -91.5 -38t-29.5 -44l-453 -1141q-42 -107 -96.5 -161t-142.5 -54q-101 0 -158 74v94h106
q98 0 145 29t77 112zM715 1559h237l-309 -347h-80z" />
    <glyph glyph-name="thorn" unicode="&#xfe;" horiz-adv-x="1214" 
d="M358 868v-510q0 -138 71 -211t194 -73q143 0 232 118.5t89 315.5q0 90 -18 170t-55 146.5t-100 105.5t-146 39q-79 0 -150.5 -26.5t-116.5 -74.5zM170 -215v1556l-150 72v43l287 103h51v-631q137 178 349 178q103 0 185 -40t134 -110t79.5 -162.5t27.5 -199.5
q0 -139 -39.5 -255.5t-107.5 -194.5t-160.5 -121t-198.5 -43q-93 0 -163.5 30.5t-105.5 81.5v-307q0 -27 8.5 -47t20.5 -31.5t36 -19.5t42.5 -11.5t52.5 -7.5v-71h-508v71q34 4 52.5 7.5t42.5 11.5t36 19.5t20.5 31.5t8.5 47z" />
    <glyph glyph-name="ydieresis" unicode="&#xff;" horiz-adv-x="1148" 
d="M537 -6l-406 938q-15 32 -32.5 43.5t-88.5 38.5v71h479v-71q-85 -11 -116 -25t-31 -49q0 -24 14 -55l271 -668l252 668q14 38 14 55q0 35 -31.5 49t-116.5 25v71h394v-71q-73 -26 -91.5 -38t-29.5 -44l-453 -1141q-42 -107 -96.5 -161t-142.5 -54q-101 0 -158 74v94h106
q98 0 145 29t77 112zM307 1386q0 51 36.5 87t88.5 36t88.5 -36t36.5 -87q0 -54 -36 -90t-89 -36t-89 36t-36 90zM696 1386q0 51 36.5 87t88.5 36t88.5 -36t36.5 -87q0 -54 -36 -90t-89 -36t-89 36t-36 90z" />
    <glyph glyph-name="Amacron" unicode="&#x100;" horiz-adv-x="1480" 
d="M1090 250l-97 225h-604l-90 -223q-23 -59 -23 -82q0 -47 43.5 -67t149.5 -23v-80h-459v80q49 7 79 22.5t46 53.5l486 1165l-64 135h227l564 -1300q16 -38 44 -53.5t78 -22.5v-80h-548v80q107 3 148.5 22t41.5 66q0 25 -22 82zM686 1206l-260 -641h530zM418 1604v127h577
v-127h-577z" />
    <glyph glyph-name="amacron" unicode="&#x101;" horiz-adv-x="1095" 
d="M449 123q70 0 127 21.5t124 70.5v367l-290 -111q-58 -22 -91.5 -65.5t-33.5 -100.5q0 -87 43 -134.5t121 -47.5zM891 762q0 -32 -3 -247.5t-3 -260.5q0 -67 24.5 -103t69.5 -36q49 0 96 12l10 -49q-98 -98 -204 -98q-144 0 -174 186q-164 -186 -342 -186q-133 0 -203 78
t-70 198q0 55 18 100t43 75t67 56t75.5 40.5t81.5 31.5l323 117v100q0 232 -202 232q-168 0 -168 -152q0 -49 14 -106l-154 -21q-43 43 -43 111q0 123 109 194.5t281 71.5q176 0 265 -88t89 -256zM270 1276v119h537v-119h-537z" />
    <glyph glyph-name="Abreve" unicode="&#x102;" horiz-adv-x="1480" 
d="M1090 250l-97 225h-604l-90 -223q-23 -59 -23 -82q0 -47 43.5 -67t149.5 -23v-80h-459v80q49 7 79 22.5t46 53.5l486 1165l-64 135h227l564 -1300q16 -38 44 -53.5t78 -22.5v-80h-548v80q107 3 148.5 22t41.5 66q0 25 -22 82zM686 1206l-260 -641h530zM707 1552
q-142 0 -227 85.5t-85 236.5h76q7 -96 75 -143.5t161 -47.5t160.5 47.5t74.5 143.5h76q0 -152 -84.5 -237t-226.5 -85z" />
    <glyph glyph-name="abreve" unicode="&#x103;" horiz-adv-x="1095" 
d="M449 123q70 0 127 21.5t124 70.5v367l-290 -111q-58 -22 -91.5 -65.5t-33.5 -100.5q0 -87 43 -134.5t121 -47.5zM891 762q0 -32 -3 -247.5t-3 -260.5q0 -67 24.5 -103t69.5 -36q49 0 96 12l10 -49q-98 -98 -204 -98q-144 0 -174 186q-164 -186 -342 -186q-133 0 -203 78
t-70 198q0 55 18 100t43 75t67 56t75.5 40.5t81.5 31.5l323 117v100q0 232 -202 232q-168 0 -168 -152q0 -49 14 -106l-154 -21q-43 43 -43 111q0 123 109 194.5t281 71.5q176 0 265 -88t89 -256zM535 1214q-138 0 -213.5 90.5t-75.5 254.5h80q7 -105 64 -157t145 -52
t144.5 52t63.5 157h80q0 -165 -75 -255t-213 -90z" />
    <glyph glyph-name="Aogonek" unicode="&#x104;" horiz-adv-x="1480" 
d="M1090 250l-97 225h-604l-90 -223q-23 -59 -23 -82q0 -47 43.5 -67t149.5 -23v-80h-459v80q49 7 79 22.5t46 53.5l486 1165l-64 135h227l564 -1300q16 -38 44 -53.5t78 -22.5v-80h-493q-180 -88 -180 -229q0 -40 26 -64t74 -24q91 0 188 75l25 -34q-122 -154 -266 -154
q-80 0 -132.5 45.5t-52.5 122.5q0 104 70.5 176t224.5 137q16 7 40.5 16.5t36 14.5t28 13t24 14t15.5 15.5t11 20t3 23.5q0 25 -22 82zM686 1206l-260 -641h530z" />
    <glyph glyph-name="aogonek" unicode="&#x105;" horiz-adv-x="1095" 
d="M891 762q0 -32 -3 -247.5t-3 -260.5q0 -67 24.5 -103t69.5 -36q49 0 96 12l10 -49q-32 -18 -85.5 -47t-87.5 -47t-76 -45.5t-65.5 -51t-40.5 -54t-17 -62.5q0 -40 26 -64t74 -24q91 0 188 75l25 -34q-122 -154 -266 -154q-80 0 -132.5 45.5t-52.5 122.5q0 152 236 262
q-85 36 -104 166q-164 -186 -342 -186q-133 0 -203 78t-70 198q0 55 18 100t43 75t67 56t75.5 40.5t81.5 31.5l323 117v100q0 232 -202 232q-168 0 -168 -152q0 -49 14 -106l-154 -21q-43 43 -43 111q0 123 109 194.5t281 71.5q176 0 265 -88t89 -256zM449 123
q70 0 127 21.5t124 70.5v367l-290 -111q-58 -22 -91.5 -65.5t-33.5 -100.5q0 -87 43 -134.5t121 -47.5z" />
    <glyph glyph-name="Cacute" unicode="&#x106;" horiz-adv-x="1378" 
d="M807 84q150 0 246 87.5t157 268.5h76l-47 -348q-111 -57 -218 -84.5t-259 -27.5q-200 0 -354 91t-237 251.5t-83 365.5q0 176 55 322t150.5 243.5t224.5 151t277 53.5q278 0 442 -129v-313h-74q-78 338 -381 338q-97 0 -176 -31.5t-134 -86.5t-92.5 -132t-55 -167
t-17.5 -192q0 -141 32 -260.5t93 -209.5t157 -140.5t218 -50.5zM860 1864h246l-318 -305h-79z" />
    <glyph glyph-name="cacute" unicode="&#x107;" horiz-adv-x="1036" 
d="M254 586q0 -205 96 -328t266 -123q102 0 176.5 43.5t135.5 130.5l37 -20q-44 -153 -151 -231t-265 -78q-209 0 -338 148t-129 380q0 162 64.5 298t185.5 218t274 82q162 0 254 -67.5t92 -184.5q0 -87 -82 -123h-104v70q0 91 -46.5 147t-139.5 56q-145 0 -235.5 -118.5
t-90.5 -299.5zM668 1559h237l-309 -347h-80z" />
    <glyph glyph-name="Ccircumflex" unicode="&#x108;" horiz-adv-x="1378" 
d="M807 84q150 0 246 87.5t157 268.5h76l-47 -348q-111 -57 -218 -84.5t-259 -27.5q-200 0 -354 91t-237 251.5t-83 365.5q0 176 55 322t150.5 243.5t224.5 151t277 53.5q278 0 442 -129v-313h-74q-78 338 -381 338q-97 0 -176 -31.5t-134 -86.5t-92.5 -132t-55 -167
t-17.5 -192q0 -141 32 -260.5t93 -209.5t157 -140.5t218 -50.5zM846 1884l307 -325h-94l-283 184l-282 -184h-95l308 325h139z" />
    <glyph glyph-name="ccircumflex" unicode="&#x109;" horiz-adv-x="1036" 
d="M254 586q0 -205 96 -328t266 -123q102 0 176.5 43.5t135.5 130.5l37 -20q-44 -153 -151 -231t-265 -78q-209 0 -338 148t-129 380q0 162 64.5 298t185.5 218t274 82q162 0 254 -67.5t92 -184.5q0 -87 -82 -123h-104v70q0 91 -46.5 147t-139.5 56q-145 0 -235.5 -118.5
t-90.5 -299.5zM651 1567l287 -355h-94l-262 211l-263 -211h-94l287 355h139z" />
    <glyph glyph-name="Cdotaccent" unicode="&#x10a;" horiz-adv-x="1378" 
d="M807 84q150 0 246 87.5t157 268.5h76l-47 -348q-111 -57 -218 -84.5t-259 -27.5q-200 0 -354 91t-237 251.5t-83 365.5q0 176 55 322t150.5 243.5t224.5 151t277 53.5q278 0 442 -129v-313h-74q-78 338 -381 338q-97 0 -176 -31.5t-134 -86.5t-92.5 -132t-55 -167
t-17.5 -192q0 -141 32 -260.5t93 -209.5t157 -140.5t218 -50.5zM776 1571q-55 0 -94 40t-39 97t39 97t94 40t94 -40t39 -97t-39 -97t-94 -40z" />
    <glyph glyph-name="cdotaccent" unicode="&#x10b;" horiz-adv-x="1036" 
d="M254 586q0 -205 96 -328t266 -123q102 0 176.5 43.5t135.5 130.5l37 -20q-44 -153 -151 -231t-265 -78q-209 0 -338 148t-129 380q0 162 64.5 298t185.5 218t274 82q162 0 254 -67.5t92 -184.5q0 -87 -82 -123h-104v70q0 91 -46.5 147t-139.5 56q-145 0 -235.5 -118.5
t-90.5 -299.5zM582 1251q-55 0 -94 40.5t-39 97.5t39 97t94 40t94 -40t39 -97t-39 -97.5t-94 -40.5z" />
    <glyph glyph-name="Ccaron" unicode="&#x10c;" horiz-adv-x="1378" 
d="M807 84q150 0 246 87.5t157 268.5h76l-47 -348q-111 -57 -218 -84.5t-259 -27.5q-200 0 -354 91t-237 251.5t-83 365.5q0 176 55 322t150.5 243.5t224.5 151t277 53.5q278 0 442 -129v-313h-74q-78 338 -381 338q-97 0 -176 -31.5t-134 -86.5t-92.5 -132t-55 -167
t-17.5 -192q0 -141 32 -260.5t93 -209.5t157 -140.5t218 -50.5zM1153 1884l-307 -325h-139l-308 325h95l282 -184l283 184h94z" />
    <glyph glyph-name="ccaron" unicode="&#x10d;" horiz-adv-x="1036" 
d="M254 586q0 -205 96 -328t266 -123q102 0 176.5 43.5t135.5 130.5l37 -20q-44 -153 -151 -231t-265 -78q-209 0 -338 148t-129 380q0 162 64.5 298t185.5 218t274 82q162 0 254 -67.5t92 -184.5q0 -87 -82 -123h-104v70q0 91 -46.5 147t-139.5 56q-145 0 -235.5 -118.5
t-90.5 -299.5zM936 1575l-287 -354h-139l-287 354h94l263 -211l262 211h94z" />
    <glyph glyph-name="Dcaron" unicode="&#x10e;" horiz-adv-x="1546" 
d="M659 1343h-184v-1103q0 -87 47.5 -116.5t161.5 -29.5h45q239 0 374.5 161t135.5 460q0 99 -19.5 188t-63.5 170.5t-110 140.5t-165 94t-222 35zM70 1358v80h628q155 0 282.5 -36.5t215 -99.5t147.5 -149.5t87.5 -185t27.5 -207.5q0 -180 -57.5 -326t-157 -240t-231 -144
t-283.5 -50h-659v80q113 3 161 32t48 117v979q0 88 -48 117.5t-161 32.5zM1108 1884l-307 -325h-139l-308 325h95l282 -184l283 184h94z" />
    <glyph glyph-name="dcaron" unicode="&#x10f;" horiz-adv-x="1284" 
d="M856 -20v182q-68 -88 -149 -135t-189 -47q-135 0 -235.5 69.5t-150.5 184.5t-50 258q0 278 147 446t369 168q83 0 152 -30t106 -83v348l-149 72v43l288 103h49v-1338q0 -52 22.5 -69t94.5 -25l53 -6v-70l-327 -71h-31zM592 1012q-144 0 -233 -123.5t-89 -321.5
q0 -89 19.5 -167.5t57.5 -141.5t101 -100t142 -37q78 0 149.5 27.5t116.5 76.5v502q0 142 -70 213.5t-194 71.5zM1468 1559l-168 -420h-71l41 420h198z" />
    <glyph glyph-name="Dcroat" unicode="&#x110;" horiz-adv-x="1568" 
d="M92 692v88h209v428q0 88 -48 117.5t-161 32.5v80h629q155 0 282.5 -36.5t215 -99.5t147.5 -149.5t87.5 -185t27.5 -207.5q0 -180 -57.5 -326t-157 -240t-231 -144t-283.5 -50h-660v80q113 3 161 32t48 117v463h-209zM682 1343h-184v-563h356v-88h-356v-452
q0 -87 47.5 -116.5t161.5 -29.5h45q239 0 374.5 161t135.5 460q0 99 -19.5 188t-63.5 170.5t-110 140.5t-165 94t-222 35z" />
    <glyph glyph-name="dcroat" unicode="&#x111;" horiz-adv-x="1275" 
d="M1214 1196h-170v-975q0 -52 22.5 -69t94.5 -25l53 -6v-70l-327 -71h-31v182q-68 -88 -149 -135t-189 -47q-135 0 -235.5 69.5t-150.5 184.5t-50 258q0 139 40 252.5t109.5 188t163.5 114.5t203 40q83 0 152 -30t106 -82v221h-297v82h297v135h-149v55l288 91h49v-281h170
v-82zM592 993q-146 0 -234 -115t-88 -311q0 -89 19.5 -167.5t57.5 -141.5t101 -100t142 -37q78 0 149.5 27.5t116.5 76.5v484q0 142 -70 213t-194 71z" />
    <glyph glyph-name="Emacron" unicode="&#x112;" horiz-adv-x="1372" 
d="M1040 504h-69q-16 96 -49.5 140t-98.5 44h-348v-455q0 -81 47 -110t160 -29h205q34 0 60.5 2t51.5 11.5t41.5 16t38.5 28.5t34 34.5t36.5 49.5t38 58.5t45.5 74.5h57l-61 -369h-1159v80q113 3 161 32t48 117v979q0 88 -48 117.5t-161 32.5v80h1149v-342h-56
q-58 141 -118 194t-179 53h-391v-561h348q65 0 98.5 44.5t49.5 140.5h69v-463zM420 1604v127h577v-127h-577z" />
    <glyph glyph-name="emacron" unicode="&#x113;" horiz-adv-x="1069" 
d="M573 1106q197 0 304.5 -125t107.5 -332v-63h-733q0 -203 101.5 -327t273.5 -124q108 0 184.5 46t140.5 130l35 -18q-38 -141 -150.5 -227t-279.5 -86q-145 0 -254.5 71.5t-165 190t-55.5 266.5q0 266 138.5 432t352.5 166zM543 1006q-117 0 -193.5 -94t-89.5 -228h537
q0 151 -65 236.5t-189 85.5zM297 1276v119h537v-119h-537z" />
    <glyph glyph-name="Ebreve" unicode="&#x114;" horiz-adv-x="1372" 
d="M1040 504h-69q-16 96 -49.5 140t-98.5 44h-348v-455q0 -81 47 -110t160 -29h205q34 0 60.5 2t51.5 11.5t41.5 16t38.5 28.5t34 34.5t36.5 49.5t38 58.5t45.5 74.5h57l-61 -369h-1159v80q113 3 161 32t48 117v979q0 88 -48 117.5t-161 32.5v80h1149v-342h-56
q-58 141 -118 194t-179 53h-391v-561h348q65 0 98.5 44.5t49.5 140.5h69v-463zM709 1552q-142 0 -227 85.5t-85 236.5h76q7 -96 75 -143.5t161 -47.5t160.5 47.5t74.5 143.5h76q0 -152 -84.5 -237t-226.5 -85z" />
    <glyph glyph-name="ebreve" unicode="&#x115;" horiz-adv-x="1069" 
d="M573 1106q197 0 304.5 -125t107.5 -332v-63h-733q0 -203 101.5 -327t273.5 -124q108 0 184.5 46t140.5 130l35 -18q-38 -141 -150.5 -227t-279.5 -86q-145 0 -254.5 71.5t-165 190t-55.5 266.5q0 266 138.5 432t352.5 166zM543 1006q-117 0 -193.5 -94t-89.5 -228h537
q0 151 -65 236.5t-189 85.5zM567 1214q-138 0 -213 90t-75 255h79q7 -105 64 -157t145 -52t145 52t64 157h80q0 -164 -75.5 -254.5t-213.5 -90.5z" />
    <glyph glyph-name="Edotaccent" unicode="&#x116;" horiz-adv-x="1372" 
d="M1040 504h-69q-16 96 -49.5 140t-98.5 44h-348v-455q0 -81 47 -110t160 -29h205q34 0 60.5 2t51.5 11.5t41.5 16t38.5 28.5t34 34.5t36.5 49.5t38 58.5t45.5 74.5h57l-61 -369h-1159v80q113 3 161 32t48 117v979q0 88 -48 117.5t-161 32.5v80h1149v-342h-56
q-58 141 -118 194t-179 53h-391v-561h348q65 0 98.5 44.5t49.5 140.5h69v-463zM709 1571q-56 0 -95 40t-39 97t39 97t95 40q55 0 94 -40t39 -97t-39 -97t-94 -40z" />
    <glyph glyph-name="edotaccent" unicode="&#x117;" horiz-adv-x="1069" 
d="M573 1106q197 0 304.5 -125t107.5 -332v-63h-733q0 -203 101.5 -327t273.5 -124q108 0 184.5 46t140.5 130l35 -18q-38 -141 -150.5 -227t-279.5 -86q-145 0 -254.5 71.5t-165 190t-55.5 266.5q0 266 138.5 432t352.5 166zM543 1006q-117 0 -193.5 -94t-89.5 -228h537
q0 151 -65 236.5t-189 85.5zM563 1251q-55 0 -94 40.5t-39 97.5t39 97t94 40t94 -40t39 -97t-39 -97.5t-94 -40.5z" />
    <glyph glyph-name="Eogonek" unicode="&#x118;" horiz-adv-x="1372" 
d="M1040 504h-69q-16 96 -49.5 140t-98.5 44h-348v-455q0 -81 47 -110t160 -29h205q34 0 60.5 2t51.5 11.5t41.5 16t38.5 28.5t34 34.5t36.5 49.5t38 58.5t45.5 74.5h57l-61 -369h-66q-55 -23 -95.5 -44t-81 -49.5t-62 -63t-21.5 -72.5q0 -39 26.5 -63.5t74.5 -24.5
q91 0 188 75l25 -34q-51 -64 -119.5 -109t-147.5 -45q-80 0 -132 45t-52 123q0 85 66.5 147.5t183.5 114.5h-946v80q113 3 161 32t48 117v979q0 88 -48 117.5t-161 32.5v80h1149v-342h-56q-58 141 -118 194t-179 53h-391v-561h348q65 0 98.5 44.5t49.5 140.5h69v-463z" />
    <glyph glyph-name="eogonek" unicode="&#x119;" horiz-adv-x="1069" 
d="M573 1106q197 0 304.5 -125t107.5 -332v-63h-733q0 -203 101.5 -327t273.5 -124q108 0 184.5 46t140.5 130l35 -18q-28 -102 -95.5 -177t-166.5 -110q-95 -44 -158 -106t-63 -129q0 -40 26 -64t74 -24q92 0 189 75l24 -34q-122 -154 -266 -154q-80 0 -132 45t-52 123
q0 136 174 242q-211 6 -335 155.5t-124 372.5q0 266 138.5 432t352.5 166zM543 1006q-117 0 -193.5 -94t-89.5 -228h537q0 151 -65 236.5t-189 85.5z" />
    <glyph glyph-name="Ecaron" unicode="&#x11a;" horiz-adv-x="1372" 
d="M1040 504h-69q-16 96 -49.5 140t-98.5 44h-348v-455q0 -81 47 -110t160 -29h205q34 0 60.5 2t51.5 11.5t41.5 16t38.5 28.5t34 34.5t36.5 49.5t38 58.5t45.5 74.5h57l-61 -369h-1159v80q113 3 161 32t48 117v979q0 88 -48 117.5t-161 32.5v80h1149v-342h-56
q-58 141 -118 194t-179 53h-391v-561h348q65 0 98.5 44.5t49.5 140.5h69v-463zM1085 1884l-307 -325h-139l-307 325h94l283 -184l282 184h94z" />
    <glyph glyph-name="ecaron" unicode="&#x11b;" horiz-adv-x="1069" 
d="M573 1106q197 0 304.5 -125t107.5 -332v-63h-733q0 -203 101.5 -327t273.5 -124q108 0 184.5 46t140.5 130l35 -18q-38 -141 -150.5 -227t-279.5 -86q-145 0 -254.5 71.5t-165 190t-55.5 266.5q0 266 138.5 432t352.5 166zM543 1006q-117 0 -193.5 -94t-89.5 -228h537
q0 151 -65 236.5t-189 85.5zM924 1575l-287 -354h-139l-287 354h94l262 -211l262 211h95z" />
    <glyph glyph-name="Gcircumflex" unicode="&#x11c;" horiz-adv-x="1505" 
d="M88 688q0 175 56.5 321.5t154 244t228 151t278.5 53.5q288 0 452 -129v-313h-73q-40 172 -142 255t-249 83q-120 0 -214.5 -48t-153 -132t-88.5 -193t-30 -236q0 -141 32 -260.5t93 -209.5t157 -140.5t218 -50.5q99 0 164 20t119 70v287q0 86 -46.5 115t-154.5 34v78h575
v-78q-104 -5 -144 -33t-40 -116v-334q-209 -147 -492 -147q-212 0 -372 90t-244 250.5t-84 367.5zM866 1884l308 -325h-95l-282 184l-283 -184h-94l307 325h139z" />
    <glyph glyph-name="gcircumflex" unicode="&#x11d;" horiz-adv-x="1114" 
d="M522 387q-98 0 -186 31q-49 -51 -67.5 -83.5t-18.5 -68.5q0 -65 76 -65h462q144 0 219.5 -56.5t75.5 -183.5q0 -171 -168 -278t-430 -107q-218 0 -336 64t-118 190q0 42 15 75.5t45.5 59t58 41.5t71.5 37q-117 42 -117 150q0 127 189 245q-84 43 -132 118.5t-48 178.5
q0 169 115.5 270t297.5 101q92 0 183 -37l370 27v-140h-75l-211 48v-11q63 -40 102 -105t39 -143q0 -162 -113 -260t-299 -98zM752 25h-500q-53 -56 -53 -131q0 -113 87.5 -166.5t237.5 -53.5q182 0 291 60t109 170q0 71 -41.5 96t-130.5 25zM543 467q101 0 155 71.5
t54 190.5q0 124 -66 207.5t-178 83.5q-101 0 -154 -71t-53 -191q0 -124 64.5 -207.5t177.5 -83.5zM635 1567l287 -355h-95l-262 211l-262 -211h-94l287 355h139z" />
    <glyph glyph-name="Gbreve" unicode="&#x11e;" horiz-adv-x="1505" 
d="M88 688q0 175 56.5 321.5t154 244t228 151t278.5 53.5q288 0 452 -129v-313h-73q-40 172 -142 255t-249 83q-120 0 -214.5 -48t-153 -132t-88.5 -193t-30 -236q0 -141 32 -260.5t93 -209.5t157 -140.5t218 -50.5q99 0 164 20t119 70v287q0 86 -46.5 115t-154.5 34v78h575
v-78q-104 -5 -144 -33t-40 -116v-334q-209 -147 -492 -147q-212 0 -372 90t-244 250.5t-84 367.5zM797 1552q-142 0 -227 85.5t-85 236.5h76q7 -96 75 -143.5t161 -47.5t160.5 47.5t74.5 143.5h76q0 -152 -84.5 -237t-226.5 -85z" />
    <glyph glyph-name="gbreve" unicode="&#x11f;" horiz-adv-x="1114" 
d="M522 387q-98 0 -186 31q-49 -51 -67.5 -83.5t-18.5 -68.5q0 -65 76 -65h462q144 0 219.5 -56.5t75.5 -183.5q0 -171 -168 -278t-430 -107q-218 0 -336 64t-118 190q0 42 15 75.5t45.5 59t58 41.5t71.5 37q-117 42 -117 150q0 127 189 245q-84 43 -132 118.5t-48 178.5
q0 169 115.5 270t297.5 101q92 0 183 -37l370 27v-140h-75l-211 48v-11q63 -40 102 -105t39 -143q0 -162 -113 -260t-299 -98zM752 25h-500q-53 -56 -53 -131q0 -113 87.5 -166.5t237.5 -53.5q182 0 291 60t109 170q0 71 -41.5 96t-130.5 25zM543 467q101 0 155 71.5
t54 190.5q0 124 -66 207.5t-178 83.5q-101 0 -154 -71t-53 -191q0 -124 64.5 -207.5t177.5 -83.5zM565 1214q-138 0 -213.5 90.5t-75.5 254.5h80q7 -105 64 -157t145 -52t145 52t64 157h80q0 -164 -75.5 -254.5t-213.5 -90.5z" />
    <glyph glyph-name="Gdotaccent" unicode="&#x120;" horiz-adv-x="1505" 
d="M88 688q0 175 56.5 321.5t154 244t228 151t278.5 53.5q288 0 452 -129v-313h-73q-40 172 -142 255t-249 83q-120 0 -214.5 -48t-153 -132t-88.5 -193t-30 -236q0 -141 32 -260.5t93 -209.5t157 -140.5t218 -50.5q99 0 164 20t119 70v287q0 86 -46.5 115t-154.5 34v78h575
v-78q-104 -5 -144 -33t-40 -116v-334q-209 -147 -492 -147q-212 0 -372 90t-244 250.5t-84 367.5zM797 1571q-55 0 -94 40t-39 97t39 97t94 40t94 -40t39 -97t-39 -97t-94 -40z" />
    <glyph glyph-name="gdotaccent" unicode="&#x121;" horiz-adv-x="1114" 
d="M522 387q-98 0 -186 31q-49 -51 -67.5 -83.5t-18.5 -68.5q0 -65 76 -65h462q144 0 219.5 -56.5t75.5 -183.5q0 -171 -168 -278t-430 -107q-218 0 -336 64t-118 190q0 42 15 75.5t45.5 59t58 41.5t71.5 37q-117 42 -117 150q0 127 189 245q-84 43 -132 118.5t-48 178.5
q0 169 115.5 270t297.5 101q92 0 183 -37l370 27v-140h-75l-211 48v-11q63 -40 102 -105t39 -143q0 -162 -113 -260t-299 -98zM752 25h-500q-53 -56 -53 -131q0 -113 87.5 -166.5t237.5 -53.5q182 0 291 60t109 170q0 71 -41.5 96t-130.5 25zM543 467q101 0 155 71.5
t54 190.5q0 124 -66 207.5t-178 83.5q-101 0 -154 -71t-53 -191q0 -124 64.5 -207.5t177.5 -83.5zM565 1251q-55 0 -94 40.5t-39 97.5t39 97t94 40t94 -40t39 -97t-39 -97.5t-94 -40.5z" />
    <glyph glyph-name="Gcommaaccent" unicode="&#x122;" horiz-adv-x="1505" 
d="M88 688q0 175 56.5 321.5t154 244t228 151t278.5 53.5q288 0 452 -129v-313h-73q-40 172 -142 255t-249 83q-120 0 -214.5 -48t-153 -132t-88.5 -193t-30 -236q0 -141 32 -260.5t93 -209.5t157 -140.5t218 -50.5q99 0 164 20t119 70v287q0 86 -46.5 115t-154.5 34v78h575
v-78q-104 -5 -144 -33t-40 -116v-334q-209 -147 -492 -147q-212 0 -372 90t-244 250.5t-84 367.5zM840 -313h-99q-86 17 -86 98q0 49 36 79t93 30q72 0 113 -44t41 -112q0 -209 -258 -209v68q78 0 119 23.5t41 66.5z" />
    <glyph glyph-name="gcommaaccent" unicode="&#x123;" horiz-adv-x="1114" 
d="M522 387q-98 0 -186 31q-49 -51 -67.5 -83.5t-18.5 -68.5q0 -65 76 -65h462q144 0 219.5 -56.5t75.5 -183.5q0 -171 -168 -278t-430 -107q-218 0 -336 64t-118 190q0 42 15 75.5t45.5 59t58 41.5t71.5 37q-117 42 -117 150q0 127 189 245q-84 43 -132 118.5t-48 178.5
q0 169 115.5 270t297.5 101q92 0 183 -37l370 27v-140h-75l-211 48v-11q63 -40 102 -105t39 -143q0 -162 -113 -260t-299 -98zM752 25h-500q-53 -56 -53 -131q0 -113 87.5 -166.5t237.5 -53.5q182 0 291 60t109 170q0 71 -41.5 96t-130.5 25zM543 467q101 0 155 71.5
t54 190.5q0 124 -66 207.5t-178 83.5q-101 0 -154 -71t-53 -191q0 -124 64.5 -207.5t177.5 -83.5zM522 1450h99q86 -17 86 -98q0 -49 -36 -79t-93 -30q-72 0 -113 44t-41 112q0 209 258 209v-68q-78 0 -119 -23.5t-41 -66.5z" />
    <glyph glyph-name="Hcircumflex" unicode="&#x124;" horiz-adv-x="1710" 
d="M1235 229v459h-760v-459q0 -87 49 -116.5t160 -32.5v-80h-614v80q113 3 161 32t48 117v979q0 88 -48 117.5t-161 32.5v80h614v-80q-55 -2 -89.5 -8t-64 -21.5t-42.5 -45t-13 -75.5v-426h760v426q0 46 -13 75.5t-42.5 45t-64 21.5t-89.5 8v80h614v-80q-112 -3 -160 -32.5
t-48 -117.5v-979q0 -88 47.5 -117t160.5 -32v-80h-614v80q111 3 160 32.5t49 116.5zM924 1884l307 -325h-94l-283 184l-283 -184h-94l307 325h140z" />
    <glyph glyph-name="hcircumflex" unicode="&#x125;" horiz-adv-x="1302" 
d="M414 1559v-654q45 44 81.5 74t86.5 62t106 48.5t117 16.5q287 0 287 -336v-582q0 -27 8.5 -47t20 -31t35.5 -19t42 -11t53 -8v-72h-506v72q34 5 51.5 8t42 11t36 19t20 31t8.5 47v568q0 108 -45 153t-145 45q-77 0 -156.5 -30t-142.5 -78v-658q0 -27 8.5 -47t20 -31
t35.5 -19t41.5 -11t51.5 -8v-72h-505v72q35 5 53 8t42 11t35.5 19t20 31t8.5 47v1153l-149 72v43l286 103h52zM700 1954l308 -326h-95l-282 184l-283 -184h-94l307 326h139z" />
    <glyph glyph-name="Hbar" unicode="&#x126;" horiz-adv-x="1755" 
d="M92 999v88h209v121q0 88 -48 117.5t-161 32.5v80h615v-80q-55 -2 -89.5 -8t-64 -21.5t-42.5 -45t-13 -75.5v-121h759v121q0 88 -49 117.5t-159 32.5v80h614v-80q-113 -3 -161 -32.5t-48 -117.5v-121h209v-88h-209v-770q0 -88 48 -117t161 -32v-80h-614v80q55 2 89.5 8
t63.5 21t42 44.5t13 75.5v439h-759v-439q0 -87 49 -116.5t160 -32.5v-80h-615v80q113 3 161 32t48 117v770h-209zM498 762h759v237h-759v-237z" />
    <glyph glyph-name="hbar" unicode="&#x127;" horiz-adv-x="1314" 
d="M743 1196h-317v-309q61 59 109.5 97.5t125 70.5t156.5 32q287 0 287 -335v-564q0 -27 8.5 -47t20 -31t36 -19t42.5 -11t53 -8v-72h-506v72q34 5 51.5 8t41.5 11t35.5 19t20 31t8.5 47v549q0 108 -45 153.5t-145 45.5q-76 0 -156 -30.5t-143 -78.5v-639q0 -27 8.5 -47
t20 -31t36 -19t42 -11t51.5 -8v-72h-506v72q35 5 53 8t42.5 11t36 19t20 31t8.5 47v1008h-150v82h150v135h-150v55l287 91h51v-281h317v-82z" />
    <glyph glyph-name="Itilde" unicode="&#x128;" horiz-adv-x="753" 
d="M684 0h-614v80q113 3 161 32t48 117v979q0 88 -48 117.5t-161 32.5v80h614v-80q-113 -3 -161 -32.5t-48 -117.5v-979q0 -88 48 -117t161 -32v-80zM678 1823l76 -21q-67 -148 -117.5 -197t-124.5 -49q-41 0 -86.5 23t-78 51t-70.5 51t-66 23q-44 0 -69 -27t-64 -100
l-76 20q67 148 117.5 197t124.5 49q41 0 86.5 -23t78 -50.5t70.5 -50.5t66 -23q44 0 69 27t64 100z" />
    <glyph glyph-name="itilde" unicode="&#x129;" horiz-adv-x="657" 
d="M600 1518l76 -21q-67 -148 -117.5 -197t-124.5 -49q-31 0 -61 15t-53.5 37t-45 44t-43.5 37t-41 15q-44 0 -69 -27t-64 -100l-75 20q67 148 117 197t124 49q32 0 62.5 -15t54.5 -37t45.5 -43.5t42.5 -36.5t39 -15q44 0 69 27t64 100zM428 1106v-918q0 -27 8.5 -47t20 -31
t35 -19t41.5 -11t53 -8v-72h-504v72q34 5 51.5 8t42 11t36 19t20 31t8.5 47v701l-148 72v43l285 102h51z" />
    <glyph glyph-name="Imacron" unicode="&#x12a;" horiz-adv-x="753" 
d="M684 0h-614v80q113 3 161 32t48 117v979q0 88 -48 117.5t-161 32.5v80h614v-80q-113 -3 -161 -32.5t-48 -117.5v-979q0 -88 48 -117t161 -32v-80zM88 1604v127h578v-127h-578z" />
    <glyph glyph-name="imacron" unicode="&#x12b;" horiz-adv-x="657" 
d="M74 1276v119h475v-119h-475zM428 1106v-918q0 -27 8.5 -47t20 -31t35 -19t41.5 -11t53 -8v-72h-504v72q34 5 51.5 8t42 11t36 19t20 31t8.5 47v701l-148 72v43l285 102h51z" />
    <glyph glyph-name="Ibreve" unicode="&#x12c;" horiz-adv-x="753" 
d="M684 0h-614v80q113 3 161 32t48 117v979q0 88 -48 117.5t-161 32.5v80h614v-80q-113 -3 -161 -32.5t-48 -117.5v-979q0 -88 48 -117t161 -32v-80zM377 1552q-142 0 -226.5 85t-84.5 237h75q7 -96 75 -143.5t161 -47.5t160.5 47.5t74.5 143.5h76q0 -152 -84.5 -237
t-226.5 -85z" />
    <glyph glyph-name="ibreve" unicode="&#x12d;" horiz-adv-x="657" 
d="M428 1106v-918q0 -27 8.5 -47t20 -31t35 -19t41.5 -11t53 -8v-72h-504v72q34 5 51.5 8t42 11t36 19t20 31t8.5 47v701l-148 72v43l285 102h51zM330 1214q-138 0 -213.5 90.5t-75.5 254.5h80q7 -105 64 -157t145 -52t145 52t64 157h79q0 -165 -75 -255t-213 -90z" />
    <glyph glyph-name="Iogonek" unicode="&#x12e;" horiz-adv-x="753" 
d="M684 0h-135q-55 -23 -95.5 -44t-81 -49.5t-62 -63t-21.5 -72.5q0 -40 26 -64t74 -24q92 0 189 75l24 -34q-122 -154 -266 -154q-80 0 -132 45t-52 123q0 85 66 147.5t183 114.5h-331v80q113 3 161 32t48 117v979q0 88 -48 117.5t-161 32.5v80h614v-80q-113 -3 -161 -32.5
t-48 -117.5v-979q0 -88 48 -117t161 -32v-80z" />
    <glyph glyph-name="iogonek" unicode="&#x12f;" horiz-adv-x="657" 
d="M428 1106v-918q0 -27 8.5 -47t20 -31t35 -19t41.5 -11t53 -8v-72h-113q-55 -23 -95.5 -44t-81 -49.5t-62 -63t-21.5 -72.5q0 -40 26 -64t74 -24q92 0 189 75l24 -34q-122 -154 -266 -154q-80 0 -132 45t-52 123q0 85 66.5 147.5t183.5 114.5h-244v72q34 5 51.5 8t42 11
t36 19t20 31t8.5 47v701l-148 72v43l285 102h51zM326 1251q-55 0 -94 40.5t-39 97.5t39 97t94 40t94 -40t39 -97t-39 -97.5t-94 -40.5z" />
    <glyph glyph-name="Idotaccent" unicode="&#x130;" horiz-adv-x="753" 
d="M684 0h-614v80q113 3 161 32t48 117v979q0 88 -48 117.5t-161 32.5v80h614v-80q-113 -3 -161 -32.5t-48 -117.5v-979q0 -88 48 -117t161 -32v-80zM377 1571q-55 0 -94 40t-39 97t39 97t94 40t94 -40t39 -97t-39 -97t-94 -40z" />
    <glyph glyph-name="dotlessi" unicode="&#x131;" horiz-adv-x="657" 
d="M428 1106v-918q0 -27 8.5 -47t20 -31t35 -19t41.5 -11t53 -8v-72h-504v72q34 5 51.5 8t42 11t36 19t20 31t8.5 47v701l-148 72v43l285 102h51z" />
    <glyph glyph-name="IJ" unicode="&#x132;" horiz-adv-x="1818" 
d="M684 0h-614v80q113 3 161 32t48 117v979q0 88 -48 117.5t-161 32.5v80h614v-80q-113 -3 -161 -32.5t-48 -117.5v-979q0 -88 48 -117t161 -32v-80zM1583 1208v-798q0 -214 -109.5 -321t-310.5 -107q-177 0 -283 69t-106 185q0 83 55 131h146v-93q0 -101 54.5 -152.5
t146.5 -51.5q208 0 208 307v831q0 88 -47.5 117.5t-158.5 32.5v80h614v-80q-113 -3 -161 -32.5t-48 -117.5z" />
    <glyph glyph-name="ij" unicode="&#x133;" horiz-adv-x="1210" 
d="M428 1106v-918q0 -27 8.5 -47t20 -31t35 -19t41.5 -11t53 -8v-72h-504v72q34 5 51.5 8t42 11t36 19t20 31t8.5 47v701l-148 72v43l285 102h51zM326 1251q-55 0 -94 40.5t-39 97.5t39 97t94 40t94 -40t39 -97t-39 -97.5t-94 -40.5zM1049 1106v-930q0 -124 -9.5 -193.5
t-42.5 -136.5q-38 -74 -102.5 -135.5t-169.5 -136.5l-47 51l65 84q74 94 95.5 183.5t21.5 250.5v746l-149 72v43l288 102h50zM946 1251q-55 0 -94 40.5t-39 97.5t39 97t94 40t94 -40t39 -97t-39 -97.5t-94 -40.5z" />
    <glyph glyph-name="Jcircumflex" unicode="&#x134;" horiz-adv-x="1064" 
d="M829 1208v-798q0 -214 -109 -321t-310 -107q-177 0 -283.5 69.5t-106.5 184.5q0 82 56 131h145v-93q0 -101 54.5 -152.5t146.5 -51.5q209 0 209 307v831q0 88 -48 117.5t-159 32.5v80h614v-80q-113 -3 -161 -32.5t-48 -117.5zM784 1884l308 -325h-95l-282 184l-283 -184
h-94l307 325h139z" />
    <glyph glyph-name="jcircumflex" unicode="&#x135;" horiz-adv-x="552" 
d="M391 1106v-930q0 -126 -9 -194.5t-42 -135.5q-38 -74 -102.5 -135.5t-169.5 -136.5l-48 51l66 84q74 94 95.5 183.5t21.5 250.5v746l-150 72v43l289 102h49zM360 1567l287 -355h-94l-262 211l-262 -211h-95l287 355h139z" />
    <glyph glyph-name="Kcommaaccent" unicode="&#x136;" horiz-adv-x="1462" 
d="M702 786l488 -544q84 -93 137.5 -124.5t126.5 -37.5v-80h-276q-49 27 -95.5 68t-107.5 110l-477 553l514 494q45 39 45 75q0 28 -30 39.5t-134 18.5v80h522v-80q-69 -3 -120 -28t-105 -77zM279 229v979q0 88 -48 117.5t-161 32.5v80h614v-80q-110 -3 -158.5 -32.5
t-48.5 -117.5v-979q0 -88 48.5 -117t158.5 -32v-80h-614v80q113 3 161 32t48 117zM805 -313h-98q-86 17 -86 98q0 49 36 79t93 30q71 0 112 -44t41 -112q0 -209 -258 -209v68q78 0 119 23.5t41 66.5z" />
    <glyph glyph-name="kcommaaccent" unicode="&#x137;" horiz-adv-x="1163" 
d="M434 580l340 323q33 33 33 55q0 24 -29.5 33.5t-126.5 22.5v71h465v-71q-61 -13 -95 -29.5t-69 -48.5l-323 -301l526 -580v-55h-207zM414 1559v-1371q0 -27 8.5 -47t20 -31t35.5 -19t41.5 -11t51.5 -8v-72h-505v72q35 5 53 8t42 11t35.5 19t20 31t8.5 47v1153l-149 72v43
l286 103h52zM653 -313h-98q-86 17 -86 98q0 49 36 79t93 30q72 0 113 -44t41 -112q0 -209 -258 -209v68q77 0 118 23.5t41 66.5z" />
    <glyph glyph-name="kgreenlandic" unicode="&#x138;" horiz-adv-x="1163" 
d="M434 580l340 323q33 33 33 55q0 24 -29.5 33.5t-126.5 22.5v71h465v-71q-61 -13 -95 -29.5t-69 -48.5l-323 -301l526 -580v-55h-207zM414 1110v-922q0 -27 8.5 -47t20 -31t35.5 -19t41.5 -11t51.5 -8v-72h-505v72q35 5 53 8t42 11t35.5 19t20 31t8.5 47v705l-149 72v43
l286 102h52z" />
    <glyph glyph-name="Lacute" unicode="&#x139;" horiz-adv-x="1257" 
d="M477 1208v-975q0 -81 47 -110t160 -29h119q85 0 143 36t89.5 82.5t98.5 170.5q3 5 5 8.5t4 7.5h65l-65 -399h-1073v80q113 3 161 32t48 117v979q0 88 -48 117.5t-161 32.5v80h614v-80q-110 -3 -158.5 -32.5t-48.5 -117.5zM498 1864h245l-317 -305h-80z" />
    <glyph glyph-name="lacute" unicode="&#x13a;" horiz-adv-x="641" 
d="M414 1559v-1371q0 -27 8.5 -47t20 -31t35.5 -19t41.5 -11t51.5 -8v-72h-505v72q35 5 53 8t42 11t35.5 19t20 31t8.5 47v1153l-149 72v43l286 103h52zM401 1925h246l-317 -305h-80z" />
    <glyph glyph-name="Lcommaaccent" unicode="&#x13b;" horiz-adv-x="1257" 
d="M477 1208v-975q0 -81 47 -110t160 -29h119q85 0 143 36t89.5 82.5t98.5 170.5q3 5 5 8.5t4 7.5h65l-65 -399h-1073v80q113 3 161 32t48 117v979q0 88 -48 117.5t-161 32.5v80h614v-80q-110 -3 -158.5 -32.5t-48.5 -117.5zM723 -313h-98q-86 17 -86 98q0 49 36 79t93 30
q71 0 112 -44t41 -112q0 -209 -258 -209v68q78 0 119 23.5t41 66.5z" />
    <glyph glyph-name="lcommaaccent" unicode="&#x13c;" horiz-adv-x="641" 
d="M414 1559v-1371q0 -27 8.5 -47t20 -31t35.5 -19t41.5 -11t51.5 -8v-72h-505v72q35 5 53 8t42 11t35.5 19t20 31t8.5 47v1153l-149 72v43l286 103h52zM360 -313h-98q-86 17 -86 98q0 49 36 79t93 30q72 0 113 -44t41 -112q0 -209 -258 -209v68q77 0 118 23.5t41 66.5z" />
    <glyph glyph-name="Lcaron" unicode="&#x13d;" horiz-adv-x="1257" 
d="M477 1208v-975q0 -81 47 -110t160 -29h119q85 0 143 36t89.5 82.5t98.5 170.5q3 5 5 8.5t4 7.5h65l-65 -399h-1073v80q113 3 161 32t48 117v979q0 88 -48 117.5t-161 32.5v80h614v-80q-110 -3 -158.5 -32.5t-48.5 -117.5zM1092 1440l-168 -420h-72l41 420h199z" />
    <glyph glyph-name="lcaron" unicode="&#x13e;" horiz-adv-x="651" 
d="M414 1559v-1371q0 -27 8.5 -47t20 -31t35.5 -19t41.5 -11t51.5 -8v-72h-505v72q35 5 53 8t42 11t35.5 19t20 31t8.5 47v1153l-149 72v43l286 103h52zM836 1559l-168 -420h-72l41 420h199z" />
    <glyph glyph-name="Ldot" unicode="&#x13f;" horiz-adv-x="1257" 
d="M477 1208v-975q0 -81 47 -110t160 -29h119q85 0 143 36t89.5 82.5t98.5 170.5q3 5 5 8.5t4 7.5h65l-65 -399h-1073v80q113 3 161 32t48 117v979q0 88 -48 117.5t-161 32.5v80h614v-80q-110 -3 -158.5 -32.5t-48.5 -117.5zM1051 653q-55 0 -94 40.5t-39 97.5t39 97t94 40
t94 -40t39 -97t-39 -97.5t-94 -40.5z" />
    <glyph glyph-name="ldot" unicode="&#x140;" horiz-adv-x="796" 
d="M414 1559v-1371q0 -27 8.5 -47t20 -31t35.5 -19t41.5 -11t51.5 -8v-72h-505v72q35 5 53 8t42 11t35.5 19t20 31t8.5 47v1153l-149 72v43l286 103h52zM705 641q-56 0 -95 40t-39 97t39 97t95 40q55 0 94 -40t39 -97t-39 -97t-94 -40z" />
    <glyph glyph-name="Lslash" unicode="&#x141;" horiz-adv-x="1280" 
d="M500 1208v-411l336 116v-92l-336 -116v-472q0 -81 47 -110t160 -29h118q85 0 143 36t89.5 82.5t98.5 170.5q3 5 5 8.5t4 7.5h66l-66 -399h-1073v80q113 3 161 32t48 117v414l-209 -72v93l209 69v475q0 88 -48 117.5t-161 32.5v80h615v-80q-110 -3 -158.5 -32.5
t-48.5 -117.5z" />
    <glyph glyph-name="lslash" unicode="&#x142;" horiz-adv-x="710" 
d="M449 1559v-580l215 129v-102l-215 -132v-686q0 -27 8.5 -47t20 -31t35.5 -19t41.5 -11t51.5 -8v-72h-506v72q35 5 53 8t42.5 11t36 19t20 31t8.5 47v582l-201 -119v103l201 120v467l-149 72v43l286 103h52z" />
    <glyph glyph-name="Nacute" unicode="&#x143;" horiz-adv-x="1650" 
d="M279 229v1000q-68 80 -103.5 104t-105.5 25v80h350l852 -1080v850q0 88 -48 117.5t-161 32.5v80h536v-80q-112 -3 -160 -32.5t-48 -117.5v-1208h-84l-910 1137v-908q0 -88 48 -117t161 -32v-80h-536v80q113 3 161 32t48 117zM918 1864h245l-317 -305h-80z" />
    <glyph glyph-name="nacute" unicode="&#x144;" horiz-adv-x="1318" 
d="M920 188v568q0 108 -45.5 153t-145.5 45q-77 0 -158.5 -30.5t-142.5 -77.5v-658q0 -27 8.5 -47t20 -31t35 -19t41.5 -11t53 -8v-72h-504v72q34 5 51.5 8t42 11t36 19t20 31t8.5 47v701l-148 72v43l285 102h51v-201q44 43 81 73.5t87.5 62.5t107 48.5t117.5 16.5
q287 0 287 -336v-582q0 -27 8.5 -47t20 -31t36 -19t42.5 -11t53 -8v-72h-506v72q34 5 51.5 8t42 11t36 19t20 31t8.5 47zM762 1559h237l-309 -347h-80z" />
    <glyph glyph-name="Ncommaaccent" unicode="&#x145;" horiz-adv-x="1650" 
d="M279 229v1000q-68 80 -103.5 104t-105.5 25v80h350l852 -1080v850q0 88 -48 117.5t-161 32.5v80h536v-80q-112 -3 -160 -32.5t-48 -117.5v-1208h-84l-910 1137v-908q0 -88 48 -117t161 -32v-80h-536v80q113 3 161 32t48 117zM877 -313h-99q-86 17 -86 98q0 49 36 79
t93 30q72 0 113 -44t41 -112q0 -209 -258 -209v68q78 0 119 23.5t41 66.5z" />
    <glyph glyph-name="ncommaaccent" unicode="&#x146;" horiz-adv-x="1318" 
d="M920 188v568q0 108 -45.5 153t-145.5 45q-77 0 -158.5 -30.5t-142.5 -77.5v-658q0 -27 8.5 -47t20 -31t35 -19t41.5 -11t53 -8v-72h-504v72q34 5 51.5 8t42 11t36 19t20 31t8.5 47v701l-148 72v43l285 102h51v-201q44 43 81 73.5t87.5 62.5t107 48.5t117.5 16.5
q287 0 287 -336v-582q0 -27 8.5 -47t20 -31t36 -19t42.5 -11t53 -8v-72h-506v72q34 5 51.5 8t42 11t36 19t20 31t8.5 47zM717 -313h-99q-86 17 -86 98q0 49 36.5 79t93.5 30q71 0 112 -44t41 -112q0 -209 -258 -209v68q78 0 119 23.5t41 66.5z" />
    <glyph glyph-name="Ncaron" unicode="&#x147;" horiz-adv-x="1650" 
d="M279 229v1000q-68 80 -103.5 104t-105.5 25v80h350l852 -1080v850q0 88 -48 117.5t-161 32.5v80h536v-80q-112 -3 -160 -32.5t-48 -117.5v-1208h-84l-910 1137v-908q0 -88 48 -117t161 -32v-80h-536v80q113 3 161 32t48 117zM1210 1884l-307 -325h-139l-307 325h94
l283 -184l282 184h94z" />
    <glyph glyph-name="ncaron" unicode="&#x148;" horiz-adv-x="1318" 
d="M920 188v568q0 108 -45.5 153t-145.5 45q-77 0 -158.5 -30.5t-142.5 -77.5v-658q0 -27 8.5 -47t20 -31t35 -19t41.5 -11t53 -8v-72h-504v72q34 5 51.5 8t42 11t36 19t20 31t8.5 47v701l-148 72v43l285 102h51v-201q44 43 81 73.5t87.5 62.5t107 48.5t117.5 16.5
q287 0 287 -336v-582q0 -27 8.5 -47t20 -31t36 -19t42.5 -11t53 -8v-72h-506v72q34 5 51.5 8t42 11t36 19t20 31t8.5 47zM1030 1575l-287 -354h-139l-287 354h95l262 -211l262 211h94z" />
    <glyph glyph-name="Eng" unicode="&#x14a;" horiz-adv-x="1650" 
d="M1208 133l-811 1004v-908q0 -88 48 -117t161 -32v-80h-536v80q113 3 161 32t48 117v1000q-68 80 -103.5 104t-105.5 25v80h350l852 -1080v850q0 88 -48 117.5t-161 32.5v80h536v-80q-112 -3 -160 -32.5t-48 -117.5v-1032q0 -124 -9.5 -193.5t-42.5 -136.5
q-38 -74 -102.5 -135.5t-169.5 -136.5l-47 51l65 84q76 97 99.5 183t23.5 241z" />
    <glyph glyph-name="eng" unicode="&#x14b;" horiz-adv-x="1269" 
d="M920 143v613q0 108 -45.5 153t-145.5 45q-77 0 -158.5 -30.5t-142.5 -77.5v-658q0 -27 8.5 -47t20 -31t35 -19t41.5 -11t53 -8v-72h-504v72q34 5 51.5 8t42 11t36 19t20 31t8.5 47v701l-148 72v43l285 102h51v-201q44 43 81 73.5t87.5 62.5t107 48.5t117.5 16.5
q287 0 287 -336v-594q0 -126 -9 -194.5t-42 -135.5q-37 -74 -102 -135t-171 -137l-47 51l66 84q74 94 95.5 183.5t21.5 250.5z" />
    <glyph glyph-name="Omacron" unicode="&#x14c;" horiz-adv-x="1531" 
d="M788 92q141 0 241.5 83t148 221t47.5 317q0 96 -17 186t-55 172t-93 142.5t-136.5 96.5t-180.5 36q-141 0 -241 -83t-147.5 -221t-47.5 -317q0 -96 17 -186t55 -172t92.5 -142.5t136 -96.5t180.5 -36zM772 1458q155 0 283.5 -57.5t212.5 -155t130 -226t46 -271.5
q0 -172 -54.5 -317.5t-147.5 -243.5t-218 -152.5t-264 -54.5q-155 0 -283.5 57.5t-212.5 155t-130 226t-46 271.5q0 172 54.5 317.5t147.5 243.5t218 152.5t264 54.5zM477 1604v127h578v-127h-578z" />
    <glyph glyph-name="omacron" unicode="&#x14d;" horiz-adv-x="1171" 
d="M604 86q141 0 215 118t74 322q0 130 -37.5 236t-113 171.5t-175.5 65.5q-141 0 -214.5 -118t-73.5 -322q0 -130 37.5 -236t112.5 -171.5t175 -65.5zM580 -20q-225 0 -361.5 151.5t-136.5 390.5q0 129 40.5 239.5t109.5 185t162.5 117t197.5 42.5q225 0 361.5 -152
t136.5 -391q0 -129 -40.5 -239t-110 -185t-162.5 -117t-197 -42zM317 1276v119h537v-119h-537z" />
    <glyph glyph-name="Obreve" unicode="&#x14e;" horiz-adv-x="1531" 
d="M788 92q141 0 241.5 83t148 221t47.5 317q0 96 -17 186t-55 172t-93 142.5t-136.5 96.5t-180.5 36q-141 0 -241 -83t-147.5 -221t-47.5 -317q0 -96 17 -186t55 -172t92.5 -142.5t136 -96.5t180.5 -36zM772 1458q155 0 283.5 -57.5t212.5 -155t130 -226t46 -271.5
q0 -172 -54.5 -317.5t-147.5 -243.5t-218 -152.5t-264 -54.5q-155 0 -283.5 57.5t-212.5 155t-130 226t-46 271.5q0 172 54.5 317.5t147.5 243.5t218 152.5t264 54.5zM766 1552q-142 0 -226.5 85t-84.5 237h75q7 -96 75 -143.5t161 -47.5t160.5 47.5t74.5 143.5h76
q0 -152 -84.5 -237t-226.5 -85z" />
    <glyph glyph-name="obreve" unicode="&#x14f;" horiz-adv-x="1171" 
d="M604 86q141 0 215 118t74 322q0 130 -37.5 236t-113 171.5t-175.5 65.5q-141 0 -214.5 -118t-73.5 -322q0 -130 37.5 -236t112.5 -171.5t175 -65.5zM580 -20q-225 0 -361.5 151.5t-136.5 390.5q0 129 40.5 239.5t109.5 185t162.5 117t197.5 42.5q225 0 361.5 -152
t136.5 -391q0 -129 -40.5 -239t-110 -185t-162.5 -117t-197 -42zM586 1214q-138 0 -213.5 90.5t-75.5 254.5h80q7 -105 64 -157t145 -52t145 52t64 157h79q0 -165 -75 -255t-213 -90z" />
    <glyph glyph-name="Ohungarumlaut" unicode="&#x150;" horiz-adv-x="1531" 
d="M788 92q141 0 241.5 83t148 221t47.5 317q0 96 -17 186t-55 172t-93 142.5t-136.5 96.5t-180.5 36q-141 0 -241 -83t-147.5 -221t-47.5 -317q0 -96 17 -186t55 -172t92.5 -142.5t136 -96.5t180.5 -36zM772 1458q155 0 283.5 -57.5t212.5 -155t130 -226t46 -271.5
q0 -172 -54.5 -317.5t-147.5 -243.5t-218 -152.5t-264 -54.5q-155 0 -283.5 57.5t-212.5 155t-130 226t-46 271.5q0 172 54.5 317.5t147.5 243.5t218 152.5t264 54.5zM700 1864h218l-273 -305h-82zM1008 1864h217l-273 -305h-82z" />
    <glyph glyph-name="ohungarumlaut" unicode="&#x151;" horiz-adv-x="1171" 
d="M604 86q141 0 215 118t74 322q0 130 -37.5 236t-113 171.5t-175.5 65.5q-141 0 -214.5 -118t-73.5 -322q0 -130 37.5 -236t112.5 -171.5t175 -65.5zM580 -20q-225 0 -361.5 151.5t-136.5 390.5q0 129 40.5 239.5t109.5 185t162.5 117t197.5 42.5q225 0 361.5 -152
t136.5 -391q0 -129 -40.5 -239t-110 -185t-162.5 -117t-197 -42zM516 1559h209l-264 -347h-82zM823 1559h209l-264 -347h-82z" />
    <glyph glyph-name="OE" unicode="&#x152;" horiz-adv-x="2068" 
d="M1925 0h-1077q-155 0 -282.5 36.5t-215 99.5t-147.5 149.5t-87.5 185t-27.5 207.5q0 180 57.5 326t157 240t231 144t283.5 50h1098v-342h-55q-58 141 -118 194t-179 53h-392v-561h349q65 0 98 44.5t49 140.5h70v-463h-70q-16 96 -49 140t-98 44h-349v-455q0 -81 47 -110
t160 -29h205q34 0 60.5 2t51.5 11.5t41.5 16t38.5 28.5t34 34.5t36.5 49.5t38 58.5t45.5 74.5h58zM975 94v1249h-158q-239 0 -374.5 -160.5t-135.5 -459.5q0 -99 19.5 -188t63.5 -170.5t110 -141t165 -94.5t222 -35h88z" />
    <glyph glyph-name="oe" unicode="&#x153;" horiz-adv-x="1882" 
d="M592 1106q130 0 234.5 -63t172.5 -169q66 109 163.5 170.5t223.5 61.5q197 0 304.5 -125t107.5 -332v-63h-733q0 -203 101.5 -327t273.5 -124q108 0 184.5 46t140.5 130l35 -18q-38 -141 -150.5 -227t-279.5 -86q-129 0 -231 60.5t-162 164.5q-72 -105 -176 -165
t-221 -60q-225 0 -361.5 151.5t-136.5 390.5q0 129 40.5 239.5t109.5 185t162.5 117t197.5 42.5zM604 86q141 0 215 118t74 322q0 130 -37.5 236t-113 171.5t-175.5 65.5q-141 0 -214.5 -118t-73.5 -322q0 -130 37.5 -236t112.5 -171.5t175 -65.5zM1356 1006
q-117 0 -193.5 -94t-89.5 -228h537q0 151 -65 236.5t-189 85.5z" />
    <glyph glyph-name="Racute" unicode="&#x154;" horiz-adv-x="1441" 
d="M610 1343h-135v-626h143q361 0 361 317q0 139 -91.5 224t-277.5 85zM70 1438h602q264 0 394 -108.5t130 -295.5q0 -83 -34 -153.5t-90.5 -117.5t-126 -75t-144.5 -35l344 -428q110 -137 264 -145v-80h-293q-55 34 -93.5 72t-92.5 108l-346 447h-109v-398q0 -88 48.5 -117
t158.5 -32v-80h-612v80q113 3 161 32t48 117v979q0 88 -48 117.5t-161 32.5v80zM741 1864h246l-317 -305h-80z" />
    <glyph glyph-name="racute" unicode="&#x155;" horiz-adv-x="843" 
d="M428 1106v-324q41 74 61 108t49.5 80t47 64.5t43.5 39t51 26.5t57 6q51 0 76 -29v-182h-43q-106 0 -177.5 -33t-164.5 -145v-520q0 -26 3.5 -43.5t16 -30.5t24 -20.5t39.5 -13.5t49.5 -9t66.5 -8v-72h-545v72q34 5 51.5 8t42 11t36 19t20 31t8.5 47v701l-148 72v43
l283 102h53zM592 1559h237l-309 -347h-80z" />
    <glyph glyph-name="Rcommaaccent" unicode="&#x156;" horiz-adv-x="1441" 
d="M610 1343h-135v-626h143q361 0 361 317q0 139 -91.5 224t-277.5 85zM70 1438h602q264 0 394 -108.5t130 -295.5q0 -83 -34 -153.5t-90.5 -117.5t-126 -75t-144.5 -35l344 -428q110 -137 264 -145v-80h-293q-55 34 -93.5 72t-92.5 108l-346 447h-109v-398q0 -88 48.5 -117
t158.5 -32v-80h-612v80q113 3 161 32t48 117v979q0 88 -48 117.5t-161 32.5v80zM803 -313h-98q-87 17 -87 98q0 49 36.5 79t93.5 30q71 0 112 -44t41 -112q0 -209 -258 -209v68q78 0 119 23.5t41 66.5z" />
    <glyph glyph-name="rcommaaccent" unicode="&#x157;" horiz-adv-x="843" 
d="M428 1106v-324q41 74 61 108t49.5 80t47 64.5t43.5 39t51 26.5t57 6q51 0 76 -29v-182h-43q-106 0 -177.5 -33t-164.5 -145v-520q0 -26 3.5 -43.5t16 -30.5t24 -20.5t39.5 -13.5t49.5 -9t66.5 -8v-72h-545v72q34 5 51.5 8t42 11t36 19t20 31t8.5 47v701l-148 72v43
l283 102h53zM395 -313h-98q-86 17 -86 98q0 49 36 79t93 30q72 0 113 -44t41 -112q0 -209 -258 -209v68q77 0 118 23.5t41 66.5z" />
    <glyph glyph-name="Rcaron" unicode="&#x158;" horiz-adv-x="1441" 
d="M610 1343h-135v-626h143q361 0 361 317q0 139 -91.5 224t-277.5 85zM70 1438h602q264 0 394 -108.5t130 -295.5q0 -83 -34 -153.5t-90.5 -117.5t-126 -75t-144.5 -35l344 -428q110 -137 264 -145v-80h-293q-55 34 -93.5 72t-92.5 108l-346 447h-109v-398q0 -88 48.5 -117
t158.5 -32v-80h-612v80q113 3 161 32t48 117v979q0 88 -48 117.5t-161 32.5v80zM1034 1884l-307 -325h-139l-307 325h94l282 -184l283 184h94z" />
    <glyph glyph-name="rcaron" unicode="&#x159;" horiz-adv-x="843" 
d="M428 1106v-324q41 74 61 108t49.5 80t47 64.5t43.5 39t51 26.5t57 6q51 0 76 -29v-182h-43q-106 0 -177.5 -33t-164.5 -145v-520q0 -26 3.5 -43.5t16 -30.5t24 -20.5t39.5 -13.5t49.5 -9t66.5 -8v-72h-545v72q34 5 51.5 8t42 11t36 19t20 31t8.5 47v701l-148 72v43
l283 102h53zM860 1575l-287 -354h-139l-287 354h95l262 -211l262 211h94z" />
    <glyph glyph-name="Sacute" unicode="&#x15a;" horiz-adv-x="1138" 
d="M543 -20q-138 0 -256.5 40t-190.5 101l-14 336h72q49 -172 147.5 -273.5t247.5 -101.5q146 0 227.5 68.5t81.5 193.5q0 103 -74 165.5t-266 133.5q-87 32 -149 61t-116 66.5t-86.5 80t-50.5 98.5t-18 124q0 168 120 276.5t329 108.5q233 0 426 -129v-313h-68
q-37 156 -130.5 248t-237.5 92q-125 0 -193 -64t-68 -166q0 -104 66.5 -165t257.5 -132q119 -44 197.5 -85t136.5 -93t84 -117t26 -149q0 -127 -69 -220.5t-181.5 -139t-250.5 -45.5zM643 1864h246l-318 -305h-79z" />
    <glyph glyph-name="sacute" unicode="&#x15b;" horiz-adv-x="923" 
d="M465 -20q-239 0 -371 100l-12 272h76q32 -134 109 -207t200 -73q98 0 153.5 44.5t55.5 123.5q0 93 -63 140.5t-216 94.5q-73 23 -125 49t-94 63.5t-63 89.5t-21 120q0 137 96.5 223t255.5 86q186 0 338 -86v-254h-77q-22 122 -89.5 184t-177.5 62q-82 0 -130 -45.5
t-48 -116.5q0 -81 59 -131.5t183 -89.5q70 -21 115.5 -39t92.5 -45.5t73.5 -59.5t43.5 -79.5t17 -108.5q0 -138 -103.5 -227.5t-277.5 -89.5zM563 1559h238l-309 -347h-80z" />
    <glyph glyph-name="Scircumflex" unicode="&#x15c;" horiz-adv-x="1138" 
d="M543 -20q-138 0 -256.5 40t-190.5 101l-14 336h72q49 -172 147.5 -273.5t247.5 -101.5q146 0 227.5 68.5t81.5 193.5q0 103 -74 165.5t-266 133.5q-87 32 -149 61t-116 66.5t-86.5 80t-50.5 98.5t-18 124q0 168 120 276.5t329 108.5q233 0 426 -129v-313h-68
q-37 156 -130.5 248t-237.5 92q-125 0 -193 -64t-68 -166q0 -104 66.5 -165t257.5 -132q119 -44 197.5 -85t136.5 -93t84 -117t26 -149q0 -127 -69 -220.5t-181.5 -139t-250.5 -45.5zM629 1884l307 -325h-94l-283 184l-283 -184h-94l307 325h140z" />
    <glyph glyph-name="scircumflex" unicode="&#x15d;" horiz-adv-x="923" 
d="M465 -20q-239 0 -371 100l-12 272h76q32 -134 109 -207t200 -73q98 0 153.5 44.5t55.5 123.5q0 93 -63 140.5t-216 94.5q-73 23 -125 49t-94 63.5t-63 89.5t-21 120q0 137 96.5 223t255.5 86q186 0 338 -86v-254h-77q-22 122 -89.5 184t-177.5 62q-82 0 -130 -45.5
t-48 -116.5q0 -81 59 -131.5t183 -89.5q70 -21 115.5 -39t92.5 -45.5t73.5 -59.5t43.5 -79.5t17 -108.5q0 -138 -103.5 -227.5t-277.5 -89.5zM545 1567l286 -355h-94l-262 211l-262 -211h-94l287 355h139z" />
    <glyph glyph-name="Scedilla" unicode="&#x15e;" horiz-adv-x="1138" 
d="M401 -453l-12 68q113 0 176.5 24t63.5 70q0 86 -191 92l72 179q-128 6 -238 45t-176 96l-14 336h72q49 -172 147.5 -273.5t247.5 -101.5q146 0 227.5 68.5t81.5 193.5q0 103 -74 165.5t-266 133.5q-87 32 -149 61t-116 66.5t-86.5 80t-50.5 98.5t-18 124q0 168 120 276.5
t329 108.5q233 0 426 -129v-313h-68q-37 156 -130.5 248t-237.5 92q-125 0 -193 -64t-68 -166q0 -104 66.5 -165t257.5 -132q119 -44 197.5 -85t136.5 -93t84 -117t26 -149q0 -122 -64 -213t-168 -138t-234 -52l-31 -80q109 -2 166 -37t57 -115q0 -67 -50.5 -114t-131.5 -68
t-187 -21z" />
    <glyph glyph-name="scedilla" unicode="&#x15f;" horiz-adv-x="923" 
d="M248 -453l-12 68q113 0 176 24t63 70q0 86 -190 92l73 185q-164 17 -264 94l-12 272h76q32 -134 109 -207t200 -73q98 0 153.5 44.5t55.5 123.5q0 93 -63 140.5t-216 94.5q-73 23 -125 49t-94 63.5t-63 89.5t-21 120q0 137 96.5 223t255.5 86q186 0 338 -86v-254h-77
q-22 122 -89.5 184t-177.5 62q-82 0 -130 -45.5t-48 -116.5q0 -81 59 -131.5t183 -89.5q70 -21 115.5 -39t92.5 -45.5t73.5 -59.5t43.5 -79.5t17 -108.5q0 -138 -103.5 -227.5t-277.5 -89.5q-29 0 -41 2l-31 -80q109 -2 166 -37t57 -115q0 -67 -50 -114t-131.5 -68
t-186.5 -21z" />
    <glyph glyph-name="Scaron" unicode="&#x160;" horiz-adv-x="1138" 
d="M543 -20q-138 0 -256.5 40t-190.5 101l-14 336h72q49 -172 147.5 -273.5t247.5 -101.5q146 0 227.5 68.5t81.5 193.5q0 103 -74 165.5t-266 133.5q-87 32 -149 61t-116 66.5t-86.5 80t-50.5 98.5t-18 124q0 168 120 276.5t329 108.5q233 0 426 -129v-313h-68
q-37 156 -130.5 248t-237.5 92q-125 0 -193 -64t-68 -166q0 -104 66.5 -165t257.5 -132q119 -44 197.5 -85t136.5 -93t84 -117t26 -149q0 -127 -69 -220.5t-181.5 -139t-250.5 -45.5zM936 1884l-307 -325h-140l-307 325h94l283 -184l283 184h94z" />
    <glyph glyph-name="scaron" unicode="&#x161;" horiz-adv-x="923" 
d="M465 -20q-239 0 -371 100l-12 272h76q32 -134 109 -207t200 -73q98 0 153.5 44.5t55.5 123.5q0 93 -63 140.5t-216 94.5q-73 23 -125 49t-94 63.5t-63 89.5t-21 120q0 137 96.5 223t255.5 86q186 0 338 -86v-254h-77q-22 122 -89.5 184t-177.5 62q-82 0 -130 -45.5
t-48 -116.5q0 -81 59 -131.5t183 -89.5q70 -21 115.5 -39t92.5 -45.5t73.5 -59.5t43.5 -79.5t17 -108.5q0 -138 -103.5 -227.5t-277.5 -89.5zM831 1575l-286 -354h-139l-287 354h94l262 -211l262 211h94z" />
    <glyph glyph-name="Tcommaaccent" unicode="&#x162;" horiz-adv-x="1357" 
d="M61 1438h1233l33 -428h-65q-81 188 -114 238q-45 69 -110 87q-39 11 -106 11h-156v-1117q0 -87 51 -116.5t166 -32.5v-80h-631v80q114 3 165 32.5t51 116.5v1117h-152q-48 0 -80 -4.5t-61 -21t-47.5 -35.5t-43 -62.5t-44.5 -86.5t-54 -121q-1 -3 -2 -5h-63zM498 -453
l-13 68q113 0 176.5 24t63.5 70q0 86 -190 92l88 215h65l-45 -114q109 -2 166 -37t57 -115q0 -67 -50 -114t-131.5 -68t-186.5 -21z" />
    <glyph glyph-name="tcommaaccent" unicode="&#x163;" horiz-adv-x="757" 
d="M369 1319v-234h313v-108h-313v-717q0 -83 37.5 -117t123.5 -34q99 0 187 45l20 -45q-119 -129 -311 -129q-113 0 -178.5 58.5t-65.5 182.5v756h-151v61q161 102 284 281h54zM225 -453l-12 68q113 0 176.5 24t63.5 70q0 86 -191 92l88 215h66l-45 -114q109 -2 166 -37
t57 -115q0 -67 -50.5 -114t-131.5 -68t-187 -21z" />
    <glyph glyph-name="Tcaron" unicode="&#x164;" horiz-adv-x="1357" 
d="M61 1438h1233l33 -428h-65q-81 188 -114 238q-45 69 -110 87q-39 11 -106 11h-156v-1117q0 -87 51 -116.5t166 -32.5v-80h-631v80q114 3 165 32.5t51 116.5v1117h-152q-48 0 -80 -4.5t-61 -21t-47.5 -35.5t-43 -62.5t-44.5 -86.5t-54 -121q-1 -3 -2 -5h-63zM1055 1884
l-307 -325h-140l-307 325h94l283 -184l283 184h94z" />
    <glyph glyph-name="tcaron" unicode="&#x165;" horiz-adv-x="757" 
d="M369 1319v-234h313v-108h-313v-717q0 -83 37.5 -117t123.5 -34q99 0 187 45l20 -45q-119 -129 -311 -129q-113 0 -178.5 58.5t-65.5 182.5v756h-151v61q161 102 284 281h54zM725 1636l-168 -419h-72l41 419h199z" />
    <glyph glyph-name="Tbar" unicode="&#x166;" horiz-adv-x="1357" 
d="M61 1438h1233l33 -428h-65q-81 188 -114 238q-45 69 -110 87q-39 11 -106 11h-156v-545h268v-88h-268v-484q0 -87 51 -116.5t166 -32.5v-80h-631v80q114 3 165 32.5t51 116.5v484h-269v88h269v545h-152q-48 0 -80 -4.5t-61 -21t-47.5 -35.5t-43 -62.5t-44.5 -86.5
t-54 -121q-1 -3 -2 -5h-63z" />
    <glyph glyph-name="tbar" unicode="&#x167;" horiz-adv-x="849" 
d="M420 1319v-234h313v-108h-313v-260h313v-101h-313v-356q0 -83 38 -117t124 -34q98 0 186 45l20 -45q-119 -129 -311 -129q-113 0 -178.5 58.5t-65.5 182.5v395h-151v101h151v260h-151v61q163 103 285 281h53z" />
    <glyph glyph-name="Utilde" unicode="&#x168;" horiz-adv-x="1568" 
d="M424 1208v-704q0 -190 99 -292.5t276 -102.5q213 0 320.5 97.5t107.5 313.5v688q0 88 -48.5 117.5t-160.5 32.5v80h534v-80q-111 -3 -158.5 -32.5t-47.5 -117.5v-727q0 -124 -44.5 -221t-121.5 -156.5t-175 -90.5t-210 -31q-267 0 -418.5 125.5t-151.5 377.5v723
q0 88 -48.5 117.5t-160.5 32.5v80h615v-80q-111 -3 -159 -32.5t-48 -117.5zM1126 1823l76 -21q-67 -148 -117 -197t-124 -49q-41 0 -86.5 23t-78.5 51t-71 51t-66 23q-44 0 -69 -27t-64 -100l-75 20q67 148 117 197t124 49q41 0 86.5 -23t78 -50.5t70.5 -50.5t66 -23
q44 0 69 27t64 100z" />
    <glyph glyph-name="utilde" unicode="&#x169;" horiz-adv-x="1288" 
d="M870 -20v200q-49 -47 -81.5 -74.5t-82 -60.5t-103.5 -49t-114 -16q-288 0 -288 335v564q0 55 -24.5 76t-98.5 30l-33 4v70l313 47h31v-762q0 -112 46 -162.5t145 -50.5q147 0 290 109v639q0 55 -24 76t-98 30l-33 4v70l311 47h33v-885q0 -51 22.5 -68.5t92.5 -25.5l53 -6
v-70l-328 -71h-29zM936 1518l76 -21q-67 -148 -117.5 -197t-124.5 -49q-41 0 -86.5 23t-78 51t-70.5 51t-66 23q-44 0 -69 -27t-64 -100l-76 20q67 148 117.5 197t124.5 49q41 0 86.5 -23t78 -50.5t70.5 -50.5t66 -23q44 0 69 27t64 100z" />
    <glyph glyph-name="Umacron" unicode="&#x16a;" horiz-adv-x="1568" 
d="M424 1208v-704q0 -190 99 -292.5t276 -102.5q213 0 320.5 97.5t107.5 313.5v688q0 88 -48.5 117.5t-160.5 32.5v80h534v-80q-111 -3 -158.5 -32.5t-47.5 -117.5v-727q0 -124 -44.5 -221t-121.5 -156.5t-175 -90.5t-210 -31q-267 0 -418.5 125.5t-151.5 377.5v723
q0 88 -48.5 117.5t-160.5 32.5v80h615v-80q-111 -3 -159 -32.5t-48 -117.5zM537 1604v127h577v-127h-577z" />
    <glyph glyph-name="umacron" unicode="&#x16b;" horiz-adv-x="1288" 
d="M870 -20v200q-49 -47 -81.5 -74.5t-82 -60.5t-103.5 -49t-114 -16q-288 0 -288 335v564q0 55 -24.5 76t-98.5 30l-33 4v70l313 47h31v-762q0 -112 46 -162.5t145 -50.5q147 0 290 109v639q0 55 -24 76t-98 30l-33 4v70l311 47h33v-885q0 -51 22.5 -68.5t92.5 -25.5l53 -6
v-70l-328 -71h-29zM367 1276v119h536v-119h-536z" />
    <glyph glyph-name="Ubreve" unicode="&#x16c;" horiz-adv-x="1568" 
d="M424 1208v-704q0 -190 99 -292.5t276 -102.5q213 0 320.5 97.5t107.5 313.5v688q0 88 -48.5 117.5t-160.5 32.5v80h534v-80q-111 -3 -158.5 -32.5t-47.5 -117.5v-727q0 -124 -44.5 -221t-121.5 -156.5t-175 -90.5t-210 -31q-267 0 -418.5 125.5t-151.5 377.5v723
q0 88 -48.5 117.5t-160.5 32.5v80h615v-80q-111 -3 -159 -32.5t-48 -117.5zM825 1552q-142 0 -226.5 85t-84.5 237h76q7 -96 74.5 -143.5t160.5 -47.5t161 47.5t75 143.5h76q0 -151 -85 -236.5t-227 -85.5z" />
    <glyph glyph-name="ubreve" unicode="&#x16d;" horiz-adv-x="1288" 
d="M870 -20v200q-49 -47 -81.5 -74.5t-82 -60.5t-103.5 -49t-114 -16q-288 0 -288 335v564q0 55 -24.5 76t-98.5 30l-33 4v70l313 47h31v-762q0 -112 46 -162.5t145 -50.5q147 0 290 109v639q0 55 -24 76t-98 30l-33 4v70l311 47h33v-885q0 -51 22.5 -68.5t92.5 -25.5l53 -6
v-70l-328 -71h-29zM635 1214q-138 0 -213.5 90.5t-75.5 254.5h80q7 -105 64 -157t145 -52t145 52t64 157h80q0 -164 -75.5 -254.5t-213.5 -90.5z" />
    <glyph glyph-name="Uring" unicode="&#x16e;" horiz-adv-x="1568" 
d="M424 1208v-704q0 -190 99 -292.5t276 -102.5q213 0 320.5 97.5t107.5 313.5v688q0 88 -48.5 117.5t-160.5 32.5v80h534v-80q-111 -3 -158.5 -32.5t-47.5 -117.5v-727q0 -124 -44.5 -221t-121.5 -156.5t-175 -90.5t-210 -31q-267 0 -418.5 125.5t-151.5 377.5v723
q0 88 -48.5 117.5t-160.5 32.5v80h615v-80q-111 -3 -159 -32.5t-48 -117.5zM635 1710q0 80 53 133t137 53t137.5 -53t53.5 -133t-53.5 -133t-137.5 -53t-137 53t-53 133zM930 1710q0 49 -27 80t-78 31t-77.5 -31t-26.5 -80t26.5 -80t77.5 -31t78 31t27 80z" />
    <glyph glyph-name="uring" unicode="&#x16f;" horiz-adv-x="1288" 
d="M870 -20v200q-49 -47 -81.5 -74.5t-82 -60.5t-103.5 -49t-114 -16q-288 0 -288 335v564q0 55 -24.5 76t-98.5 30l-33 4v70l313 47h31v-762q0 -112 46 -162.5t145 -50.5q147 0 290 109v639q0 55 -24 76t-98 30l-33 4v70l311 47h33v-885q0 -51 22.5 -68.5t92.5 -25.5l53 -6
v-70l-328 -71h-29zM444 1391q0 80 53.5 133t137.5 53t137 -53t53 -133t-53 -133.5t-137 -53.5t-137.5 53.5t-53.5 133.5zM739 1391q0 49 -26.5 79.5t-77.5 30.5t-78 -30.5t-27 -79.5t27 -80t78 -31t77.5 31t26.5 80z" />
    <glyph glyph-name="Uhungarumlaut" unicode="&#x170;" horiz-adv-x="1568" 
d="M424 1208v-704q0 -190 99 -292.5t276 -102.5q213 0 320.5 97.5t107.5 313.5v688q0 88 -48.5 117.5t-160.5 32.5v80h534v-80q-111 -3 -158.5 -32.5t-47.5 -117.5v-727q0 -124 -44.5 -221t-121.5 -156.5t-175 -90.5t-210 -31q-267 0 -418.5 125.5t-151.5 377.5v723
q0 88 -48.5 117.5t-160.5 32.5v80h615v-80q-111 -3 -159 -32.5t-48 -117.5zM760 1864h217l-272 -305h-82zM1067 1864h217l-272 -305h-82z" />
    <glyph glyph-name="uhungarumlaut" unicode="&#x171;" horiz-adv-x="1288" 
d="M870 -20v200q-49 -47 -81.5 -74.5t-82 -60.5t-103.5 -49t-114 -16q-288 0 -288 335v564q0 55 -24.5 76t-98.5 30l-33 4v70l313 47h31v-762q0 -112 46 -162.5t145 -50.5q147 0 290 109v639q0 55 -24 76t-98 30l-33 4v70l311 47h33v-885q0 -51 22.5 -68.5t92.5 -25.5l53 -6
v-70l-328 -71h-29zM565 1559h209l-264 -347h-82zM872 1559h209l-264 -347h-82z" />
    <glyph glyph-name="Uogonek" unicode="&#x172;" horiz-adv-x="1568" 
d="M424 1208v-704q0 -190 99 -292.5t276 -102.5q213 0 320.5 97.5t107.5 313.5v688q0 88 -48.5 117.5t-160.5 32.5v80h534v-80q-111 -3 -158.5 -32.5t-47.5 -117.5v-727q0 -185 -95.5 -304.5t-253.5 -166.5q-55 -23 -95.5 -44t-81 -49.5t-62 -63t-21.5 -72.5
q0 -39 26.5 -63.5t74.5 -24.5q90 0 188 76l25 -35q-51 -64 -119.5 -109t-147.5 -45q-80 0 -132 45t-52 123q0 134 191 234q-266 2 -416 126.5t-150 376.5v723q0 88 -48.5 117.5t-160.5 32.5v80h615v-80q-111 -3 -159 -32.5t-48 -117.5z" />
    <glyph glyph-name="uogonek" unicode="&#x173;" horiz-adv-x="1288" 
d="M1227 51q-167 -41 -267 -87t-138 -91.5t-38 -101.5q0 -39 26.5 -63.5t74.5 -24.5q91 0 188 75l25 -34q-51 -64 -119.5 -109t-147.5 -45q-80 0 -132 45t-52 123q0 84 59.5 143t163.5 109v190q-49 -47 -81.5 -74.5t-82 -60.5t-103.5 -49t-114 -16q-288 0 -288 335v564
q0 55 -24.5 76t-98.5 30l-33 4v70l313 47h31v-762q0 -112 46 -162.5t145 -50.5q147 0 290 109v639q0 55 -24 76t-98 30l-33 4v70l311 47h33v-885q0 -51 22.5 -68.5t92.5 -25.5l53 -6v-70z" />
    <glyph glyph-name="Wcircumflex" unicode="&#x174;" horiz-adv-x="1968" 
d="M1370 303l311 883q3 8 8 21.5t7.5 22t5 19t2.5 19.5q0 47 -43 67t-150 23v80h447v-80q-34 -5 -53 -10t-40 -21.5t-30 -44.5l-471 -1300h-59l-314 882l-311 -882h-59l-486 1300q-16 38 -46 53.5t-79 22.5v80h545v-80q-107 -3 -148.5 -22t-41.5 -66q0 -20 20 -82l313 -885
l242 709l-92 270q-11 29 -32.5 45.5t-39 21t-53.5 9.5v80h524v-80q-108 -3 -150 -22t-42 -66q0 -20 20 -82zM1053 1884l307 -325h-94l-283 184l-283 -184h-94l307 325h140z" />
    <glyph glyph-name="wcircumflex" unicode="&#x175;" horiz-adv-x="1624" 
d="M1143 281l217 604q12 38 12 55q0 35 -30 49t-113 25v71h385v-71q-72 -26 -89.5 -37.5t-29.5 -44.5l-356 -952h-52l-270 722l-274 -722h-49l-367 952q-12 33 -30 45.5t-87 36.5v71h463v-71q-83 -11 -113 -25t-30 -49q0 -21 14 -61l217 -594l203 549l-35 98
q-12 33 -31 45.5t-90 36.5v71h457v-71q-85 -11 -115 -25t-30 -49q0 -21 14 -61zM881 1567l286 -355h-94l-262 211l-262 -211h-94l286 355h140z" />
    <glyph glyph-name="Ycircumflex" unicode="&#x176;" horiz-adv-x="1357" 
d="M717 684l321 504q35 61 35 94q0 41 -39 57t-147 19v80h461v-80q-47 -6 -74 -22t-51 -54l-453 -702v-351q0 -88 48.5 -117t158.5 -32v-80h-610v80q113 3 160.5 32t47.5 117v349l-440 704q-24 38 -51.5 54t-73.5 22v80h543v-80q-106 -3 -146 -19t-40 -57q0 -39 36 -94z
M780 1884l307 -325h-94l-282 184l-283 -184h-94l307 325h139z" />
    <glyph glyph-name="ycircumflex" unicode="&#x177;" horiz-adv-x="1148" 
d="M537 -6l-406 938q-15 32 -32.5 43.5t-88.5 38.5v71h479v-71q-85 -11 -116 -25t-31 -49q0 -24 14 -55l271 -668l252 668q14 38 14 55q0 35 -31.5 49t-116.5 25v71h394v-71q-73 -26 -91.5 -38t-29.5 -44l-453 -1141q-42 -107 -96.5 -161t-142.5 -54q-101 0 -158 74v94h106
q98 0 145 29t77 112zM696 1567l287 -355h-94l-262 211l-262 -211h-95l287 355h139z" />
    <glyph glyph-name="Ydieresis" unicode="&#x178;" horiz-adv-x="1357" 
d="M717 684l321 504q35 61 35 94q0 41 -39 57t-147 19v80h461v-80q-47 -6 -74 -22t-51 -54l-453 -702v-351q0 -88 48.5 -117t158.5 -32v-80h-610v80q113 3 160.5 32t47.5 117v349l-440 704q-24 38 -51.5 54t-73.5 22v80h543v-80q-106 -3 -146 -19t-40 -57q0 -39 36 -94z
M381 1704q0 51 36.5 87t88.5 36t88.5 -36t36.5 -87q0 -54 -36 -90.5t-89 -36.5t-89 36.5t-36 90.5zM791 1704q0 51 36 87t88 36t88.5 -36t36.5 -87q0 -54 -36 -90.5t-89 -36.5t-88.5 36.5t-35.5 90.5z" />
    <glyph glyph-name="Zacute" unicode="&#x179;" horiz-adv-x="1269" 
d="M317 96h496q65 0 109 14.5t84.5 60.5t64.5 85.5t74 134.5q2 3 3 5l2.5 5l2.5 5h68l-68 -406h-1102v51l875 1288h-457q-42 0 -71.5 -4.5t-56 -20.5t-43.5 -32t-39 -54t-37 -71t-44 -98h-59v379h1067v-54zM719 1864h246l-318 -305h-80z" />
    <glyph glyph-name="zacute" unicode="&#x17a;" horiz-adv-x="1024" 
d="M76 0v45l635 948h-332q-75 0 -111.5 -49t-77.5 -192h-84v333h832v-53l-625 -940h318q87 0 148.5 60t97.5 204h84l-37 -356h-848zM606 1559h238l-309 -347h-80z" />
    <glyph glyph-name="Zdotaccent" unicode="&#x17b;" horiz-adv-x="1269" 
d="M317 96h496q65 0 109 14.5t84.5 60.5t64.5 85.5t74 134.5q2 3 3 5l2.5 5l2.5 5h68l-68 -406h-1102v51l875 1288h-457q-42 0 -71.5 -4.5t-56 -20.5t-43.5 -32t-39 -54t-37 -71t-44 -98h-59v379h1067v-54zM635 1571q-55 0 -94 40t-39 97t39 97t94 40t94 -40t39 -97t-39 -97
t-94 -40z" />
    <glyph glyph-name="zdotaccent" unicode="&#x17c;" horiz-adv-x="1024" 
d="M76 0v45l635 948h-332q-75 0 -111.5 -49t-77.5 -192h-84v333h832v-53l-625 -940h318q87 0 148.5 60t97.5 204h84l-37 -356h-848zM518 1251q-55 0 -94 40.5t-39 97.5t39 97t94 40t94 -40t39 -97t-39 -97.5t-94 -40.5z" />
    <glyph glyph-name="Zcaron" unicode="&#x17d;" horiz-adv-x="1269" 
d="M317 96h496q65 0 109 14.5t84.5 60.5t64.5 85.5t74 134.5q2 3 3 5l2.5 5l2.5 5h68l-68 -406h-1102v51l875 1288h-457q-42 0 -71.5 -4.5t-56 -20.5t-43.5 -32t-39 -54t-37 -71t-44 -98h-59v379h1067v-54zM1012 1884l-307 -325h-140l-307 325h94l283 -184l283 184h94z" />
    <glyph glyph-name="zcaron" unicode="&#x17e;" horiz-adv-x="1024" 
d="M76 0v45l635 948h-332q-75 0 -111.5 -49t-77.5 -192h-84v333h832v-53l-625 -940h318q87 0 148.5 60t97.5 204h84l-37 -356h-848zM874 1575l-286 -354h-139l-287 354h94l262 -211l262 211h94z" />
    <glyph glyph-name="florin" unicode="&#x192;" horiz-adv-x="1026" 
d="M190 635l13 86h176l24 178q36 274 133 416.5t267 142.5q104 0 153.5 -41t49.5 -108q0 -90 -101 -119h-39q-2 89 -25 138.5t-79 49.5q-52 0 -81 -48.5t-42 -141.5l-64 -467h232l-8 -86h-236l-55 -420q-36 -275 -132.5 -417t-266.5 -142q-104 0 -153.5 41t-49.5 108
q0 90 100 119h39q4 -188 105 -188q52 0 80.5 48t41.5 142l95 709h-177z" />
    <glyph glyph-name="Aringacute" unicode="&#x1fa;" horiz-adv-x="1480" 
d="M1090 250l-97 225h-604l-90 -223q-23 -59 -23 -82q0 -47 43.5 -67t149.5 -23v-80h-459v80q49 7 79 22.5t46 53.5l486 1165l-64 135h227l564 -1300q16 -38 44 -53.5t78 -22.5v-80h-548v80q107 3 148.5 22t41.5 66q0 25 -22 82zM686 1206l-260 -641h530zM500 1677
q0 75 56 120.5t146 45.5q91 0 148 -45.5t57 -120.5q0 -73 -57 -118.5t-148 -45.5q-90 0 -146 45.5t-56 118.5zM817 1677q0 44 -30 71.5t-85 27.5q-54 0 -83 -27.5t-29 -71.5q0 -43 29 -69.5t83 -26.5q55 0 85 26.5t30 69.5zM770 2101h240l-260 -209h-80z" />
    <glyph glyph-name="aringacute" unicode="&#x1fb;" horiz-adv-x="1095" 
d="M342 1329q0 75 56.5 120.5t146.5 45.5q91 0 148 -45.5t57 -120.5q0 -73 -57 -118.5t-148 -45.5q-90 0 -146.5 45.5t-56.5 118.5zM659 1329q0 44 -29.5 71t-84.5 27q-54 0 -83.5 -27t-29.5 -71q0 -43 29.5 -69.5t83.5 -26.5q55 0 84.5 26.5t29.5 69.5zM612 1761h240
l-260 -209h-80zM449 123q70 0 127 21.5t124 70.5v367l-290 -111q-58 -22 -91.5 -65.5t-33.5 -100.5q0 -87 43 -134.5t121 -47.5zM891 762q0 -32 -3 -247.5t-3 -260.5q0 -67 24.5 -103t69.5 -36q49 0 96 12l10 -49q-98 -98 -204 -98q-144 0 -174 186q-164 -186 -342 -186
q-133 0 -203 78t-70 198q0 55 18 100t43 75t67 56t75.5 40.5t81.5 31.5l323 117v100q0 232 -202 232q-168 0 -168 -152q0 -49 14 -106l-154 -21q-43 43 -43 111q0 123 109 194.5t281 71.5q176 0 265 -88t89 -256z" />
    <glyph glyph-name="AEacute" unicode="&#x1fc;" horiz-adv-x="2160" 
d="M143 156l799 1128q-13 40 -57 55.5t-144 18.5v80h1266v-342h-55q-58 141 -118 194t-179 53h-391v-561h348q65 0 98 44.5t49 140.5h70v-463h-70q-16 96 -49 140t-98 44h-348v-455q0 -81 46.5 -110t159.5 -29h205q34 0 60.5 2t51.5 11.5t41.5 16t38.5 28.5t34 34.5
t36.5 49.5t38 58.5t45.5 74.5h58l-62 -369h-1159v80q113 3 161 32t48 117v287h-541l-186 -266q-35 -49 -35 -98q0 -45 39 -57t160 -15v-80h-494v80q86 12 133 76zM1067 1290l-479 -684h479v684zM1436 1864h245l-317 -305h-80z" />
    <glyph glyph-name="aeacute" unicode="&#x1fd;" horiz-adv-x="1695" 
d="M1200 1106q197 0 304.5 -125t107.5 -332v-63h-733q0 -203 101 -327t273 -124q108 0 185.5 46t140.5 130l35 -18q-38 -141 -150.5 -227t-279.5 -86q-134 0 -236 59t-164 164q-85 -111 -181.5 -167t-217.5 -56q-135 0 -214 79.5t-79 196.5q0 55 18.5 100t45 74t68.5 53.5
t77 38t82 27.5l336 98q5 32 22 96q-2 49 -15.5 92.5t-39.5 84t-74.5 64.5t-113.5 24q-168 0 -168 -152q0 -49 14 -106l-154 -21q-43 43 -43 111q0 123 107 194.5t270 71.5q240 0 326 -162q140 162 350 162zM709 508v41l-293 -88q-131 -41 -131 -166q0 -80 43.5 -126
t120.5 -46q162 0 313 123q-53 115 -53 262zM1169 1006q-116 0 -192.5 -95.5t-89.5 -230.5h536q0 151 -65.5 238.5t-188.5 87.5zM940 1559h238l-310 -347h-80z" />
    <glyph glyph-name="Oslashacute" unicode="&#x1fe;" horiz-adv-x="1544" 
d="M1341 1489l-124 -189q113 -99 173 -242.5t60 -309.5q0 -172 -54.5 -317.5t-147.5 -243.5t-218 -152.5t-264 -54.5q-202 0 -356 96l-125 -191l-80 47l129 197q-116 99 -178 245.5t-62 315.5q0 172 54.5 317.5t147.5 243.5t218 152.5t264 54.5q203 0 365 -102l119 180z
M313 725q0 -273 121 -444l621 942q-120 123 -305 123q-141 0 -241.5 -83t-148 -221t-47.5 -317zM795 92q141 0 241 83t147.5 221t47.5 317q0 265 -115 436l-620 -942q118 -115 299 -115zM856 1864h246l-318 -305h-79z" />
    <glyph glyph-name="oslashacute" unicode="&#x1ff;" horiz-adv-x="1171" 
d="M1004 1149l-93 -156q86 -73 132.5 -184t46.5 -246q0 -129 -40.5 -239t-110 -185t-162.5 -117t-197 -42q-127 0 -236 53l-92 -158l-84 51l94 162q-87 72 -133.5 184t-46.5 250q0 129 40.5 239.5t109.5 185t162.5 117t197.5 42.5q132 0 237 -57l91 151zM279 559
q0 -203 69 -326l412 697q-79 69 -193 69q-141 0 -214.5 -118t-73.5 -322zM604 86q141 0 215 118t74 322q0 193 -68 320l-411 -694q75 -66 190 -66zM674 1559h237l-309 -347h-80z" />
    <glyph glyph-name="Scommaaccent" unicode="&#x218;" horiz-adv-x="1138" 
d="M543 -20q-138 0 -256.5 40t-190.5 101l-14 336h72q49 -172 147.5 -273.5t247.5 -101.5q146 0 227.5 68.5t81.5 193.5q0 103 -74 165.5t-266 133.5q-87 32 -149 61t-116 66.5t-86.5 80t-50.5 98.5t-18 124q0 168 120 276.5t329 108.5q233 0 426 -129v-313h-68
q-37 156 -130.5 248t-237.5 92q-125 0 -193 -64t-68 -166q0 -104 66.5 -165t257.5 -132q119 -44 197.5 -85t136.5 -93t84 -117t26 -149q0 -127 -69 -220.5t-181.5 -139t-250.5 -45.5zM623 -313h-99q-86 17 -86 98q0 49 36 79t93 30q72 0 113 -44t41 -112q0 -209 -258 -209
v68q78 0 119 23.5t41 66.5z" />
    <glyph glyph-name="scommaaccent" unicode="&#x219;" horiz-adv-x="923" 
d="M465 -20q-239 0 -371 100l-12 272h76q32 -134 109 -207t200 -73q98 0 153.5 44.5t55.5 123.5q0 93 -63 140.5t-216 94.5q-73 23 -125 49t-94 63.5t-63 89.5t-21 120q0 137 96.5 223t255.5 86q186 0 338 -86v-254h-77q-22 122 -89.5 184t-177.5 62q-82 0 -130 -45.5
t-48 -116.5q0 -81 59 -131.5t183 -89.5q70 -21 115.5 -39t92.5 -45.5t73.5 -59.5t43.5 -79.5t17 -108.5q0 -138 -103.5 -227.5t-277.5 -89.5zM518 -313h-98q-86 17 -86 98q0 49 36 79t93 30q71 0 112 -44t41 -112q0 -209 -258 -209v68q78 0 119 23.5t41 66.5z" />
    <glyph glyph-name="uni021A" unicode="&#x21a;" horiz-adv-x="1357" 
d="M61 1438h1233l33 -428h-65q-81 188 -114 238q-45 69 -110 87q-39 11 -106 11h-156v-1117q0 -87 51 -116.5t166 -32.5v-80h-631v80q114 3 165 32.5t51 116.5v1117h-152q-48 0 -80 -4.5t-61 -21t-47.5 -35.5t-43 -62.5t-44.5 -86.5t-54 -121q-1 -3 -2 -5h-63zM721 -313h-98
q-86 17 -86 98q0 49 36 79t93 30q71 0 112 -44t41 -112q0 -209 -258 -209v68q78 0 119 23.5t41 66.5z" />
    <glyph glyph-name="uni021B" unicode="&#x21b;" horiz-adv-x="757" 
d="M369 1319v-234h313v-108h-313v-717q0 -83 37.5 -117t123.5 -34q99 0 187 45l20 -45q-119 -129 -311 -129q-113 0 -178.5 58.5t-65.5 182.5v756h-151v61q161 102 284 281h54zM426 -313h-98q-86 17 -86 98q0 49 36 79t93 30q71 0 112 -44t41 -112q0 -209 -258 -209v68
q78 0 119 23.5t41 66.5z" />
    <glyph glyph-name="dotlessj" unicode="&#x237;" horiz-adv-x="552" 
d="M391 1106v-930q0 -126 -9 -194.5t-42 -135.5q-38 -74 -102.5 -135.5t-169.5 -136.5l-48 51l66 84q74 94 95.5 183.5t21.5 250.5v746l-150 72v43l289 102h49z" />
    <glyph glyph-name="circumflex" unicode="&#x2c6;" horiz-adv-x="1024" 
d="M582 1567l286 -355h-94l-262 211l-262 -211h-94l286 355h140z" />
    <glyph glyph-name="caron" unicode="&#x2c7;" horiz-adv-x="1024" 
d="M868 1575l-286 -354h-140l-286 354h94l262 -211l262 211h94z" />
    <glyph glyph-name="breve" unicode="&#x2d8;" horiz-adv-x="1024" 
d="M512 1214q-138 0 -213.5 90.5t-75.5 254.5h80q7 -105 64 -157t145 -52t145 52t64 157h80q0 -164 -75.5 -254.5t-213.5 -90.5z" />
    <glyph glyph-name="dotaccent" unicode="&#x2d9;" horiz-adv-x="1024" 
d="M512 1251q-55 0 -94 40.5t-39 97.5t39 97t94 40t94 -40t39 -97t-39 -97.5t-94 -40.5z" />
    <glyph glyph-name="ring" unicode="&#x2da;" horiz-adv-x="1024" 
d="M322 1391q0 80 53 133t137 53t137 -53t53 -133t-53 -133.5t-137 -53.5t-137 53.5t-53 133.5zM616 1391q0 49 -26.5 79.5t-77.5 30.5t-77.5 -30.5t-26.5 -79.5t26.5 -80t77.5 -31t77.5 31t26.5 80z" />
    <glyph glyph-name="ogonek" unicode="&#x2db;" horiz-adv-x="1024" 
d="M657 47l27 -47q-55 -23 -95.5 -44t-81 -49.5t-62 -63t-21.5 -72.5q0 -40 26 -64t74 -24q92 0 189 75l24 -34q-122 -154 -266 -154q-80 0 -132 45t-52 123q0 45 21.5 85.5t54 71t84.5 59.5t99 49.5t111 43.5z" />
    <glyph glyph-name="tilde" unicode="&#x2dc;" horiz-adv-x="1024" 
d="M811 1518l76 -21q-67 -148 -117.5 -197t-124.5 -49q-41 0 -86.5 23t-78 51t-70.5 51t-66 23q-44 0 -69 -27t-64 -100l-76 20q67 148 117.5 197t124.5 49q41 0 86.5 -23t78 -50.5t70.5 -50.5t66 -23q44 0 69 27t64 100z" />
    <glyph glyph-name="hungarumlaut" unicode="&#x2dd;" horiz-adv-x="1024" 
d="M322 1559h208l-264 -347h-82zM629 1559h209l-265 -347h-81z" />
    <glyph glyph-name="gravecmb" unicode="&#x300;" horiz-adv-x="0" 
d="M-195 1559h238l152 -347h-80z" />
    <glyph glyph-name="acutecmb" unicode="&#x301;" horiz-adv-x="0" 
d="M-43 1559h238l-310 -347h-80z" />
    <glyph glyph-name="circumflexcmb" unicode="&#x302;" horiz-adv-x="0" 
d="M70 1567l286 -355h-94l-262 211l-262 -211h-94l286 355h140z" />
    <glyph glyph-name="tildecmb" unicode="&#x303;" horiz-adv-x="0" 
d="M299 1518l76 -21q-67 -148 -117.5 -197t-124.5 -49q-41 0 -86.5 23t-78 51t-70.5 51t-66 23q-44 0 -69 -27t-64 -100l-76 20q67 148 117.5 197t124.5 49q41 0 86.5 -23t78 -50.5t70.5 -50.5t66 -23q44 0 69 27t64 100z" />
    <glyph glyph-name="macroncmb" unicode="&#x304;" horiz-adv-x="0" 
d="M-268 1276v119h536v-119h-536z" />
    <glyph glyph-name="brevecmb" unicode="&#x306;" horiz-adv-x="0" 
d="M-16 1214q-138 0 -213.5 90.5t-75.5 254.5h80q7 -105 64 -157t145 -52t145 52t64 157h79q0 -165 -75 -255t-213 -90z" />
    <glyph glyph-name="dotaccentcmb" unicode="&#x307;" horiz-adv-x="0" 
d="M0 1251q-55 0 -94 40.5t-39 97.5t39 97t94 40t94 -40t39 -97t-39 -97.5t-94 -40.5z" />
    <glyph glyph-name="dieresiscmb" unicode="&#x308;" horiz-adv-x="0" 
d="M-319 1386q0 51 36 87t88 36t88.5 -36t36.5 -87q0 -54 -36 -90t-89 -36t-88.5 36t-35.5 90zM70 1386q0 51 36.5 87t88.5 36t88 -36t36 -87q0 -54 -35.5 -90t-88.5 -36t-89 36t-36 90z" />
    <glyph glyph-name="ringcmb" unicode="&#x30a;" horiz-adv-x="0" 
d="M-190 1391q0 80 53 133t137 53t137 -53t53 -133t-53 -133.5t-137 -53.5t-137 53.5t-53 133.5zM104 1391q0 49 -26.5 79.5t-77.5 30.5t-77.5 -30.5t-26.5 -79.5t26.5 -80t77.5 -31t77.5 31t26.5 80z" />
    <glyph glyph-name="hungarumlautcmb" unicode="&#x30b;" horiz-adv-x="0" 
d="M-217 1559h209l-264 -347h-82zM90 1559h209l-264 -347h-82z" />
    <glyph glyph-name="caroncmb" unicode="&#x30c;" horiz-adv-x="0" 
d="M356 1575l-286 -354h-140l-286 354h94l262 -211l262 211h94z" />
    <glyph glyph-name="commaaboverightcmb" unicode="&#x315;" horiz-adv-x="0" 
d="M63 1559l-167 -420h-72l41 420h198z" />
    <glyph glyph-name="dotbelowcmb" unicode="&#x323;" horiz-adv-x="0" 
d="M0 -381q-55 0 -94 40t-39 97t39 97.5t94 40.5t94 -40.5t39 -97.5t-39 -97t-94 -40z" />
    <glyph glyph-name="cedillacmb" unicode="&#x327;" horiz-adv-x="0" 
d="M-166 -453l-12 68q113 0 176 24t63 70q0 86 -190 92l88 215h66l-45 -114q109 -2 166 -37t57 -115q0 -67 -50.5 -114t-131.5 -68t-187 -21z" />
    <glyph glyph-name="ogonekcmb" unicode="&#x328;" horiz-adv-x="0" 
d="M150 47l26 -47q-55 -23 -95.5 -44t-81 -49.5t-62 -63t-21.5 -72.5q0 -40 26 -64t74 -24q92 0 189 75l24 -34q-122 -154 -266 -154q-80 0 -132 45t-52 123q0 45 21.5 85.5t54.5 71t85 59.5t99 49.5t111 43.5z" />
    <glyph glyph-name="Omega" unicode="&#x3a9;" horiz-adv-x="1609" 
d="M805 1366q-82 0 -146.5 -33.5t-104.5 -87t-66 -126.5t-36 -145.5t-10 -150.5q0 -218 73.5 -394.5t203.5 -285.5v-143h-535l-51 356h64q28 -54 45.5 -84t40 -57t39.5 -39t46.5 -21t59.5 -10.5t80 -1.5h121q-74 37 -145 104t-129 154.5t-94 198.5t-36 223q0 184 70 327.5
t202.5 225.5t307.5 82t307 -82t202 -225.5t70 -327.5q0 -112 -35.5 -223t-93.5 -198.5t-129 -154.5t-145 -104h121q50 0 80 1.5t59.5 10.5t46.5 21t39.5 39t40 57t45.5 84h64l-52 -356h-534v143q130 109 203 285.5t73 394.5q0 78 -10 150.5t-36 145.5t-65.5 126.5t-104 87
t-146.5 33.5z" />
    <glyph glyph-name="mu" unicode="&#x3bc;" horiz-adv-x="1288" 
d="M365 51l24 -381v-53l-188 -20v1282q0 55 -24.5 76t-98.5 30l-33 4v70l313 47h31v-762q0 -112 46 -162.5t145 -50.5q147 0 290 109v639q0 55 -24 76t-98 30l-33 4v70l311 47h33v-885q0 -51 22.5 -68.5t92.5 -25.5l53 -6v-70l-328 -71h-29v200q-49 -47 -81 -74.5t-80 -60.5
t-97.5 -49t-101.5 -16q-50 0 -90.5 21t-54.5 50z" />
    <glyph glyph-name="pi" unicode="&#x3c0;" horiz-adv-x="1290" 
d="M764 229v705h-322q0 -315 -18 -524.5t-64 -409.5h-206v35q44 131 63.5 195t52 190.5t46.5 251.5t14 262h-199v151h1008l-35 -151h-164v-676q0 -143 121 -143q49 0 96 12l10 -49q-98 -98 -204 -98q-91 0 -145 62t-54 187z" />
    <glyph glyph-name="Wgrave" unicode="&#x1e80;" horiz-adv-x="1968" 
d="M1370 303l311 883q3 8 8 21.5t7.5 22t5 19t2.5 19.5q0 47 -43 67t-150 23v80h447v-80q-34 -5 -53 -10t-40 -21.5t-30 -44.5l-471 -1300h-59l-314 882l-311 -882h-59l-486 1300q-16 38 -46 53.5t-79 22.5v80h545v-80q-107 -3 -148.5 -22t-41.5 -66q0 -20 20 -82l313 -885
l242 709l-92 270q-11 29 -32.5 45.5t-39 21t-53.5 9.5v80h524v-80q-108 -3 -150 -22t-42 -66q0 -20 20 -82zM645 1864h246l151 -305h-79z" />
    <glyph glyph-name="wgrave" unicode="&#x1e81;" horiz-adv-x="1624" 
d="M1143 281l217 604q12 38 12 55q0 35 -30 49t-113 25v71h385v-71q-72 -26 -89.5 -37.5t-29.5 -44.5l-356 -952h-52l-270 722l-274 -722h-49l-367 952q-12 33 -30 45.5t-87 36.5v71h463v-71q-83 -11 -113 -25t-30 -49q0 -21 14 -61l217 -594l203 549l-35 98
q-12 33 -31 45.5t-90 36.5v71h457v-71q-85 -11 -115 -25t-30 -49q0 -21 14 -61zM473 1559h238l151 -347h-80z" />
    <glyph glyph-name="Wacute" unicode="&#x1e82;" horiz-adv-x="1968" 
d="M1370 303l311 883q3 8 8 21.5t7.5 22t5 19t2.5 19.5q0 47 -43 67t-150 23v80h447v-80q-34 -5 -53 -10t-40 -21.5t-30 -44.5l-471 -1300h-59l-314 882l-311 -882h-59l-486 1300q-16 38 -46 53.5t-79 22.5v80h545v-80q-107 -3 -148.5 -22t-41.5 -66q0 -20 20 -82l313 -885
l242 709l-92 270q-11 29 -32.5 45.5t-39 21t-53.5 9.5v80h524v-80q-108 -3 -150 -22t-42 -66q0 -20 20 -82zM1067 1864h246l-318 -305h-80z" />
    <glyph glyph-name="wacute" unicode="&#x1e83;" horiz-adv-x="1624" 
d="M1143 281l217 604q12 38 12 55q0 35 -30 49t-113 25v71h385v-71q-72 -26 -89.5 -37.5t-29.5 -44.5l-356 -952h-52l-270 722l-274 -722h-49l-367 952q-12 33 -30 45.5t-87 36.5v71h463v-71q-83 -11 -113 -25t-30 -49q0 -21 14 -61l217 -594l203 549l-35 98
q-12 33 -31 45.5t-90 36.5v71h457v-71q-85 -11 -115 -25t-30 -49q0 -21 14 -61zM899 1559h238l-310 -347h-79z" />
    <glyph glyph-name="Wdieresis" unicode="&#x1e84;" horiz-adv-x="1968" 
d="M1370 303l311 883q3 8 8 21.5t7.5 22t5 19t2.5 19.5q0 47 -43 67t-150 23v80h447v-80q-34 -5 -53 -10t-40 -21.5t-30 -44.5l-471 -1300h-59l-314 882l-311 -882h-59l-486 1300q-16 38 -46 53.5t-79 22.5v80h545v-80q-107 -3 -148.5 -22t-41.5 -66q0 -20 20 -82l313 -885
l242 709l-92 270q-11 29 -32.5 45.5t-39 21t-53.5 9.5v80h524v-80q-108 -3 -150 -22t-42 -66q0 -20 20 -82zM653 1704q0 51 36.5 87t88.5 36t88.5 -36t36.5 -87q0 -54 -36 -90.5t-89 -36.5t-89 36.5t-36 90.5zM1063 1704q0 51 36.5 87t88.5 36t88.5 -36t36.5 -87
q0 -54 -36 -90.5t-89 -36.5t-89 36.5t-36 90.5z" />
    <glyph glyph-name="wdieresis" unicode="&#x1e85;" horiz-adv-x="1624" 
d="M1143 281l217 604q12 38 12 55q0 35 -30 49t-113 25v71h385v-71q-72 -26 -89.5 -37.5t-29.5 -44.5l-356 -952h-52l-270 722l-274 -722h-49l-367 952q-12 33 -30 45.5t-87 36.5v71h463v-71q-83 -11 -113 -25t-30 -49q0 -21 14 -61l217 -594l203 549l-35 98
q-12 33 -31 45.5t-90 36.5v71h457v-71q-85 -11 -115 -25t-30 -49q0 -21 14 -61zM492 1386q0 51 36 87t88 36t88.5 -36t36.5 -87q0 -54 -36 -90t-89 -36t-88.5 36t-35.5 90zM881 1386q0 51 36.5 87t88.5 36t88 -36t36 -87q0 -54 -35.5 -90t-88.5 -36t-89 36t-36 90z" />
    <glyph glyph-name="Edotbelow" unicode="&#x1eb8;" horiz-adv-x="1372" 
d="M1040 504h-69q-16 96 -49.5 140t-98.5 44h-348v-455q0 -81 47 -110t160 -29h205q34 0 60.5 2t51.5 11.5t41.5 16t38.5 28.5t34 34.5t36.5 49.5t38 58.5t45.5 74.5h57l-61 -369h-1159v80q113 3 161 32t48 117v979q0 88 -48 117.5t-161 32.5v80h1149v-342h-56
q-58 141 -118 194t-179 53h-391v-561h348q65 0 98.5 44.5t49.5 140.5h69v-463zM700 -381q56 0 95 40t39 97t-39.5 97.5t-94.5 40.5t-94 -40.5t-39 -97.5t39 -97t94 -40z" />
    <glyph glyph-name="edotbelow" unicode="&#x1eb9;" horiz-adv-x="1069" 
d="M573 1106q197 0 304.5 -125t107.5 -332v-63h-733q0 -203 101.5 -327t273.5 -124q108 0 184.5 46t140.5 130l35 -18q-38 -141 -150.5 -227t-279.5 -86q-145 0 -254.5 71.5t-165 190t-55.5 266.5q0 266 138.5 432t352.5 166zM543 1006q-117 0 -193.5 -94t-89.5 -228h537
q0 151 -65 236.5t-189 85.5zM571 -383q56 0 95 40t39 97t-39 97t-95 40q-55 0 -94 -40t-39 -97t39 -97t94 -40z" />
    <glyph glyph-name="Ygrave" unicode="&#x1ef2;" horiz-adv-x="1357" 
d="M717 684l321 504q35 61 35 94q0 41 -39 57t-147 19v80h461v-80q-47 -6 -74 -22t-51 -54l-453 -702v-351q0 -88 48.5 -117t158.5 -32v-80h-610v80q113 3 160.5 32t47.5 117v349l-440 704q-24 38 -51.5 54t-73.5 22v80h543v-80q-106 -3 -146 -19t-40 -57q0 -39 36 -94z
M373 1864h245l152 -305h-80z" />
    <glyph glyph-name="ygrave" unicode="&#x1ef3;" horiz-adv-x="1148" 
d="M537 -6l-406 938q-15 32 -32.5 43.5t-88.5 38.5v71h479v-71q-85 -11 -116 -25t-31 -49q0 -24 14 -55l271 -668l252 668q14 38 14 55q0 35 -31.5 49t-116.5 25v71h394v-71q-73 -26 -91.5 -38t-29.5 -44l-453 -1141q-42 -107 -96.5 -161t-142.5 -54q-101 0 -158 74v94h106
q98 0 145 29t77 112zM289 1559h237l152 -347h-80z" />
    <glyph glyph-name="endash" unicode="&#x2013;" horiz-adv-x="1187" 
d="M1085 557h-983v135h983v-135z" />
    <glyph glyph-name="emdash" unicode="&#x2014;" horiz-adv-x="2048" 
d="M1946 692v-135h-1844v135h1844z" />
    <glyph glyph-name="quoteleft" unicode="&#x2018;" horiz-adv-x="548" 
d="M240 1294h77q93 -20 93 -118q0 -57 -39 -93t-97 -36q-74 0 -113.5 52.5t-39.5 135.5q0 135 81.5 224t250.5 100v-82q-110 -17 -161.5 -62.5t-51.5 -120.5z" />
    <glyph glyph-name="quoteright" unicode="&#x2019;" horiz-adv-x="548" 
d="M315 1311h-77q-93 20 -93 119q0 57 39 93t97 36q74 0 113.5 -53t39.5 -136q0 -135 -81.5 -223.5t-250.5 -99.5v81q110 17 161.5 62.5t51.5 120.5z" />
    <glyph glyph-name="quotesinglbase" unicode="&#x201a;" horiz-adv-x="548" 
d="M315 33h-77q-93 20 -93 119q0 57 39 93t97 36q74 0 113.5 -53t39.5 -136q0 -135 -81.5 -223.5t-250.5 -99.5v81q110 17 161.5 62.5t51.5 120.5z" />
    <glyph glyph-name="quotedblleft" unicode="&#x201c;" horiz-adv-x="952" 
d="M240 1294h77q93 -20 93 -118q0 -57 -39 -93t-97 -36q-74 0 -113.5 52.5t-39.5 135.5q0 135 81.5 224t250.5 100v-82q-110 -17 -161.5 -62.5t-51.5 -120.5zM643 1294h78q92 -19 92 -118q0 -58 -38.5 -93.5t-96.5 -35.5q-74 0 -114 52.5t-40 135.5q0 135 81.5 224
t250.5 100v-82q-110 -17 -161.5 -62.5t-51.5 -120.5z" />
    <glyph glyph-name="quotedblright" unicode="&#x201d;" horiz-adv-x="952" 
d="M719 1311h-78q-92 19 -92 119q0 58 38.5 93.5t96.5 35.5q74 0 114 -53t40 -136q0 -135 -81.5 -223.5t-250.5 -99.5v81q110 17 161.5 62.5t51.5 120.5zM315 1311h-77q-93 20 -93 119q0 57 39 93t97 36q74 0 113.5 -53t39.5 -136q0 -135 -81.5 -223.5t-250.5 -99.5v81
q110 17 161.5 62.5t51.5 120.5z" />
    <glyph glyph-name="quotedblbase" unicode="&#x201e;" horiz-adv-x="952" 
d="M719 33h-78q-92 19 -92 119q0 58 38.5 93.5t96.5 35.5q74 0 114 -53t40 -136q0 -135 -81.5 -223.5t-250.5 -99.5v81q110 17 161.5 62.5t51.5 120.5zM315 33h-77q-93 20 -93 119q0 57 39 93t97 36q74 0 113.5 -53t39.5 -136q0 -135 -81.5 -223.5t-250.5 -99.5v81
q110 17 161.5 62.5t51.5 120.5z" />
    <glyph glyph-name="dagger" unicode="&#x2020;" horiz-adv-x="946" 
d="M92 1239l338 -25l-24 338h133l-27 -338l342 25v-125l-342 23l27 -621h-133l26 621l-340 -23v125z" />
    <glyph glyph-name="daggerdbl" unicode="&#x2021;" horiz-adv-x="987" 
d="M455 1157l-342 -22v125l338 -25l-25 317h133l-27 -317l342 25v-125l-344 22v-248l344 25v-125l-342 22l27 -315h-133l25 315l-338 -22v125l342 -25v248z" />
    <glyph glyph-name="bullet" unicode="&#x2022;" horiz-adv-x="724" 
d="M113 614q0 103 73 176.5t176 73.5t176.5 -73.5t73.5 -176.5t-73.5 -176t-176.5 -73t-176 73t-73 176z" />
    <glyph glyph-name="ellipsis" unicode="&#x2026;" horiz-adv-x="1744" 
d="M141 129q0 63 43.5 106.5t106.5 43.5t106 -43.5t43 -106.5t-43 -106t-106 -43t-106.5 43t-43.5 106zM723 129q0 63 43 106.5t106 43.5t106.5 -43.5t43.5 -106.5t-43.5 -106t-106.5 -43t-106 43t-43 106zM1305 129q0 63 43 106.5t106 43.5t106.5 -43.5t43.5 -106.5
t-43.5 -106t-106.5 -43t-106 43t-43 106z" />
    <glyph glyph-name="perthousand" unicode="&#x2030;" horiz-adv-x="2568" 
d="M248 1085q0 -59 10.5 -109.5t32 -91.5t59.5 -64t88 -23q67 0 112 41.5t63 104t18 142.5q0 81 -18 143.5t-63 104t-112 41.5q-66 0 -110 -41.5t-62 -104t-18 -143.5zM365 -39l921 1518h121l-922 -1518h-120zM82 1085q0 167 105 270t251 103q147 0 253 -103t106 -270
t-106 -269.5t-253 -102.5q-146 0 -251 102.5t-105 269.5zM1524 354q0 80 -18 143t-62.5 104.5t-110.5 41.5q-51 0 -89 -23.5t-60 -64.5t-32.5 -91.5t-10.5 -109.5t10.5 -109.5t32.5 -91.5t60 -64t89 -23q66 0 110.5 41.5t62.5 104t18 142.5zM1690 354q0 -167 -105.5 -269.5
t-251.5 -102.5q-147 0 -252.5 102.5t-105.5 269.5t105.5 270t252.5 103q146 0 251.5 -103t105.5 -270zM2320 354q0 81 -18 143.5t-62 104t-110 41.5q-67 0 -112 -41.5t-63 -104t-18 -143.5q0 -80 18 -142.5t63 -104t112 -41.5q50 0 88 23t59.5 64t32 91.5t10.5 109.5z
M2486 354q0 -167 -105 -269.5t-251 -102.5q-147 0 -252.5 102.5t-105.5 269.5t105.5 270t252.5 103q146 0 251 -103t105 -270z" />
    <glyph glyph-name="guilsinglleft" unicode="&#x2039;" horiz-adv-x="610" 
d="M92 551v20l330 390h96l-235 -400l235 -399h-96z" />
    <glyph glyph-name="guilsinglright" unicode="&#x203a;" horiz-adv-x="610" 
d="M518 571v-20l-330 -389h-96l236 399l-236 400h96z" />
    <glyph glyph-name="fraction" unicode="&#x2044;" horiz-adv-x="579" 
d="M-231 0l919 1518h123l-922 -1518h-120z" />
    <glyph glyph-name="Euro" unicode="&#x20ac;" horiz-adv-x="1390" 
d="M47 786v88h189q41 272 199 428t388 156q257 0 416 -123v-315h-76q-74 328 -348 328q-156 0 -251 -132.5t-120 -341.5h553l-28 -88h-531v-43q0 -67 2 -100h492l-29 -88h-454q14 -103 42.5 -185t75.5 -147t117 -100t160 -35q152 0 236 84.5t139 267.5h79l-36 -350
q-205 -110 -424 -110q-263 0 -418.5 155t-188.5 420h-184v88h176v55q0 59 2 88h-178z" />
    <glyph glyph-name="trademark" unicode="&#x2122;" horiz-adv-x="1787" 
d="M106 1438h607l16 -201h-49q-19 39 -27 54.5t-21.5 36t-26 27t-31 12t-44.5 5.5h-53v-498q0 -34 24 -46t79 -15v-55h-338v55q54 3 78 15t24 46v498h-53q-60 0 -84.5 -25t-63.5 -110h-51zM1198 944l170 436q8 19 14 58h195v-56q-43 -3 -60.5 -16.5t-19.5 -42.5l59 -461
q3 -26 21 -36t61 -13v-55h-301v55q55 3 74 13t19 38q0 10 -9 66l-41 313l-182 -485h-59l-185 485l-41 -311q-6 -40 -6 -68t19 -38t73 -13v-55h-245v55q74 3 80 49l59 461q-2 29 -20 42.5t-62 16.5v56h207q6 -39 14 -58z" />
    <glyph glyph-name="uni2153" unicode="&#x2153;" horiz-adv-x="1843" 
d="M436 1532h43v-780q0 -58 40 -74t159 -23v-67h-565v67q119 7 158.5 23t39.5 74v548h-198v58l59 10q90 14 146.5 51t117.5 113zM434 0l920 1518h123l-922 -1518h-121zM1464 373q126 -14 201.5 -84t75.5 -176q0 -127 -101 -199t-245 -72q-145 0 -228.5 58.5t-83.5 140.5
q0 66 58 96h102v-47q0 -85 41.5 -131.5t124.5 -46.5q76 0 120 48.5t44 137.5q0 96 -62.5 143.5t-173.5 47.5h-49l-6 49q128 46 190 92t62 115q0 59 -40 95t-116 36q-126 0 -202 -137l-54 34q43 98 126 161t198 63q116 0 184 -56.5t68 -144.5q0 -146 -234 -223z" />
    <glyph glyph-name="uni2154" unicode="&#x2154;" horiz-adv-x="1908" 
d="M242 741h231q82 0 118.5 23.5t86.5 114.5h49l-33 -291h-657v49l242 240q125 124 174 200.5t49 151.5q0 81 -47.5 124.5t-130.5 43.5q-47 0 -93 -20t-70 -39.5t-63 -55.5l-32 35q49 94 132 154.5t193 60.5q135 0 210 -69.5t75 -192.5q0 -47 -17.5 -93.5t-40 -81.5t-72 -85
t-84 -80t-107.5 -92t-113 -97zM500 0l919 1518h123l-921 -1518h-121zM1530 373q126 -14 201 -84t75 -176q0 -127 -101 -199t-245 -72q-145 0 -228 58.5t-83 140.5q0 67 57 96h103v-47q0 -85 41.5 -131.5t124.5 -46.5q76 0 119.5 48t43.5 138q0 96 -62 143.5t-173 47.5h-49
l-6 49q127 46 189 92t62 115q0 59 -39.5 95t-115.5 36q-127 0 -203 -137l-53 34q43 99 125.5 161.5t197.5 62.5q116 0 184 -56.5t68 -144.5q0 -146 -233 -223z" />
    <glyph glyph-name="uni215B" unicode="&#x215b;" horiz-adv-x="1857" 
d="M1718 578q0 -77 -54 -138.5t-128 -79.5q115 -52 167 -109t52 -136q0 -131 -94.5 -202t-235.5 -71q-149 0 -240 65.5t-91 172.5q0 85 55 145t143 84q-168 83 -168 230q0 109 81.5 183.5t215.5 74.5t215.5 -59t81.5 -160zM1479 215l-140 74q-108 -60 -108 -197
q0 -81 53 -125.5t143 -44.5q83 0 131 38t48 103q0 52 -32.5 86.5t-94.5 65.5zM1384 436l111 -55q92 58 92 182q0 73 -45 113.5t-121 40.5q-71 0 -112 -35.5t-41 -89.5q0 -98 116 -156zM436 1532h43v-780q0 -58 40 -74t159 -23v-67h-565v67q119 7 158.5 23t39.5 74v548h-198
v58l59 10q90 14 146.5 51t117.5 113zM434 0l920 1518h123l-922 -1518h-121z" />
    <glyph glyph-name="uni215C" unicode="&#x215c;" horiz-adv-x="1882" 
d="M453 1100q126 -14 201 -84t75 -176q0 -127 -101 -199t-245 -72q-145 0 -228 58.5t-83 140.5q0 67 57 96h102v-47q0 -85 41.5 -131.5t124.5 -46.5q76 0 120 48.5t44 137.5q0 96 -62 143.5t-173 47.5h-50l-6 49q128 46 190 92t62 115q0 59 -39.5 95t-115.5 36
q-127 0 -203 -137l-53 34q43 99 125.5 161.5t197.5 62.5q116 0 184 -56.5t68 -144.5q0 -146 -233 -223zM1743 578q0 -77 -54 -138.5t-128 -79.5q115 -52 167 -109t52 -136q0 -131 -94.5 -202t-235.5 -71q-149 0 -240.5 65.5t-91.5 172.5q0 85 55 145t144 84
q-168 83 -168 230q0 109 81.5 183.5t215.5 74.5t215.5 -59t81.5 -160zM1503 215l-139 74q-109 -61 -109 -197q0 -81 53 -125.5t144 -44.5q83 0 130.5 38t47.5 103q0 52 -32.5 86.5t-94.5 65.5zM1409 436l111 -55q92 58 92 182q0 73 -45 113.5t-121 40.5q-71 0 -112.5 -35.5
t-41.5 -89.5q0 -98 117 -156zM459 0l919 1518h123l-921 -1518h-121z" />
    <glyph glyph-name="uni215D" unicode="&#x215d;" horiz-adv-x="1849" 
d="M680 1507v-159h-393l-23 -154q205 -8 326 -90.5t121 -235.5q0 -138 -93.5 -219.5t-236.5 -81.5q-142 0 -220.5 59.5t-78.5 141.5q0 35 16 62t41 38h99v-47q0 -182 165 -182q80 0 125 44.5t45 125.5q0 121 -105 187t-306 69l76 442h442zM1710 578q0 -77 -54 -138.5
t-128 -79.5q115 -52 167 -109t52 -136q0 -131 -94.5 -202t-235.5 -71q-149 0 -240.5 65.5t-91.5 172.5q0 85 55 145t144 84q-168 83 -168 230q0 109 81.5 183.5t215.5 74.5t215.5 -59t81.5 -160zM1470 215l-139 74q-108 -60 -108 -197q0 -81 53 -125.5t143 -44.5
q83 0 130.5 38t47.5 103q0 52 -32.5 86.5t-94.5 65.5zM1376 436l111 -55q92 58 92 182q0 73 -45 113.5t-121 40.5q-71 0 -112 -35.5t-41 -89.5q0 -98 116 -156zM426 0l920 1518h122l-921 -1518h-121z" />
    <glyph glyph-name="uni215E" unicode="&#x215e;" horiz-adv-x="1728" 
d="M633 1331h-328q-43 0 -68.5 -30t-52.5 -101h-61l49 307h610v-51l-397 -868h-139zM1589 578q0 -77 -54 -138.5t-128 -79.5q115 -52 167 -109t52 -136q0 -131 -94.5 -202t-235.5 -71q-149 0 -240 65.5t-91 172.5q0 85 55 145t143 84q-168 83 -168 230q0 109 81.5 183.5
t215.5 74.5t215.5 -59t81.5 -160zM1350 215l-140 74q-108 -60 -108 -197q0 -81 53 -125.5t143 -44.5q83 0 131 38t48 103q0 52 -32.5 86.5t-94.5 65.5zM1255 436l111 -55q92 58 92 182q0 73 -45 113.5t-121 40.5q-71 0 -112 -35.5t-41 -89.5q0 -98 116 -156zM305 0l920 1518
h123l-922 -1518h-121z" />
    <glyph glyph-name="partialdiff" unicode="&#x2202;" horiz-adv-x="1171" 
d="M563 1077q168 0 293 -153q-75 185 -236 350.5t-372 249.5l39 65q259 -80 441.5 -229t272 -338t89.5 -406q0 -160 -40 -284t-110.5 -199.5t-161.5 -114t-198 -38.5q-225 0 -361.5 151.5t-136.5 390.5q0 128 39.5 234.5t106 175.5t153 107t182.5 38zM604 86q141 0 215 118
t74 322q0 129 -37.5 233.5t-113 168t-175.5 63.5q-142 0 -215 -114.5t-73 -317.5q0 -130 37.5 -236t112.5 -171.5t175 -65.5z" />
    <glyph glyph-name="product" unicode="&#x220f;" horiz-adv-x="1591" 
d="M51 1438h1489v-80q-113 -3 -161 -32.5t-48 -117.5v-1382q0 -88 48 -117.5t161 -32.5v-79h-614v79q55 2 89.5 8t64 21.5t42.5 45t13 75.5v1532h-678v-1532q0 -46 13 -75.5t42.5 -45t64 -21.5t89.5 -8v-79h-615v79q113 3 161 32.5t48 117.5v1382q0 88 -48 117.5t-161 32.5
v80z" />
    <glyph glyph-name="summation" unicode="&#x2211;" horiz-adv-x="1214" 
d="M256 -233h426q57 0 89.5 1.5t68 10t55.5 21.5t47 40.5t49.5 61.5t55.5 90h65l-59 -395h-1002v73l615 840l-611 842v86h1004v-342h-55q-58 141 -118 194t-179 53h-404l535 -743v-43z" />
    <glyph glyph-name="minus" unicode="&#x2212;" horiz-adv-x="1155" 
d="M129 696v127h897v-127h-897z" />
    <glyph glyph-name="radical" unicode="&#x221a;" horiz-adv-x="1185" 
d="M600 289l426 1169h119l-514 -1458h-137l-267 889q-19 63 -40.5 86.5t-61.5 23.5h-84v86h346z" />
    <glyph glyph-name="infinity" unicode="&#x221e;" horiz-adv-x="1624" 
d="M733 713l-102 112q-90 101 -197 101q-85 0 -143 -57.5t-58 -155.5t58 -155.5t143 -57.5q108 0 197 100zM991 825l-102 -112l102 -113q89 -100 197 -100q85 0 143 57.5t58 155.5t-58 155.5t-143 57.5q-107 0 -197 -101zM811 623l-86 -99q-129 -145 -297 -145
q-137 0 -231.5 91t-94.5 243t94.5 243t231.5 91q91 0 162 -37t135 -109l86 -98l86 98q64 72 135 109t162 37q137 0 231.5 -91t94.5 -243t-94.5 -243t-231.5 -91q-171 0 -297 145z" />
    <glyph glyph-name="integral" unicode="&#x222b;" horiz-adv-x="851" 
d="M449 1118v-1126q0 -186 -89 -289.5t-239 -103.5q-106 0 -170 42t-64 117q0 34 18.5 62.5t47.5 44.5h102v-53q0 -131 99 -131q32 0 53.5 17.5t32.5 53.5t15.5 80t4.5 107v1126q0 186 89 289.5t239 103.5q106 0 169.5 -42.5t63.5 -117.5q0 -34 -18 -62t-47 -44h-103v53
q0 131 -98 131q-32 0 -53.5 -17.5t-32.5 -53.5t-15.5 -80t-4.5 -107z" />
    <glyph glyph-name="approxequal" unicode="&#x2248;" horiz-adv-x="1175" 
d="M139 788v136q127 82 242 82q78 0 205.5 -40t204.5 -40q120 0 245 82v-136q-124 -81 -245 -81q-77 0 -204.5 39.5t-205.5 39.5q-115 0 -242 -82zM139 524v133q122 82 242 82q78 0 205.5 -38.5t204.5 -38.5q124 0 245 79v-135q-122 -80 -245 -80q-77 0 -204.5 39t-205.5 39
q-118 0 -242 -80z" />
    <glyph glyph-name="notequal" unicode="&#x2260;" horiz-adv-x="1175" 
d="M139 838v127h531l155 211h142l-156 -211h225v-127h-319l-115 -158h434v-125h-526l-156 -213h-141l156 213h-230v125h322l117 158h-439z" />
    <glyph glyph-name="lessequal" unicode="&#x2264;" horiz-adv-x="886" 
d="M102 817v19l635 340v-146l-389 -203l389 -202v-148zM102 295v125h635v-125h-635z" />
    <glyph glyph-name="greaterequal" unicode="&#x2265;" horiz-adv-x="886" 
d="M784 836v-19l-634 -340v148l389 202l-389 203v146zM784 420v-125h-634v125h634z" />
    <glyph glyph-name="lozenge" unicode="&#x25ca;" horiz-adv-x="1243" 
d="M123 719l412 719h174l411 -719l-411 -719h-174zM965 719l-344 612l-342 -612l342 -613z" />
    <glyph glyph-name="commaaccent" unicode="&#xf6c3;" horiz-adv-x="1024" 
d="M555 -313h-98q-86 17 -86 98q0 49 36 79t93 30q71 0 112 -44t41 -112q0 -209 -258 -209v68q78 0 119 23.5t41 66.5z" />
    <glyph glyph-name="CR" horiz-adv-x="460" 
 />
    <glyph glyph-name="increment" horiz-adv-x="1437" 
d="M1356 0h-1274v70l584 1368h96l594 -1368v-70zM670 1204l-459 -1100h924z" />
    <glyph glyph-name="caron.cap" horiz-adv-x="1024" 
d="M889 1884l-307 -325h-140l-307 325h94l283 -184l283 184h94z" />
    <glyph glyph-name="dieresis.cap" horiz-adv-x="1024" 
d="M182 1704q0 51 36.5 87t88.5 36t88.5 -36t36.5 -87q0 -54 -36 -90.5t-89 -36.5t-89 36.5t-36 90.5zM592 1704q0 51 36.5 87t88.5 36t88.5 -36t36.5 -87q0 -54 -36 -90.5t-89 -36.5t-89 36.5t-36 90.5z" />
    <glyph glyph-name="grave.cap" horiz-adv-x="1024" 
d="M313 1864h246l152 -305h-80z" />
    <glyph glyph-name="acute.cap" horiz-adv-x="1024" 
d="M465 1864h246l-318 -305h-80z" />
    <glyph glyph-name="circumflex.cap" horiz-adv-x="1024" 
d="M582 1884l307 -325h-94l-283 184l-283 -184h-94l307 325h140z" />
    <glyph glyph-name="tilde.cap" horiz-adv-x="1024" 
d="M811 1823l76 -21q-67 -148 -117.5 -197t-124.5 -49q-41 0 -86.5 23t-78 51t-70.5 51t-66 23q-44 0 -69 -27t-64 -100l-76 20q67 148 117.5 197t124.5 49q41 0 86.5 -23t78 -50.5t70.5 -50.5t66 -23q44 0 69 27t64 100z" />
    <glyph glyph-name="ring.cap" horiz-adv-x="1024" 
d="M322 1710q0 80 53 133t137 53t137 -53t53 -133t-53 -133t-137 -53t-137 53t-53 133zM616 1710q0 49 -26.5 80t-77.5 31t-77.5 -31t-26.5 -80t26.5 -80t77.5 -31t77.5 31t26.5 80z" />
    <glyph glyph-name="published" horiz-adv-x="1630" 
d="M852 655h-102v-204q0 -49 33.5 -65.5t109.5 -16.5v-54h-391v54q62 2 85 17t23 65v540q0 51 -23 66.5t-85 17.5v53h350q153 0 231 -66t78 -167q0 -112 -76.5 -176t-232.5 -64zM750 1063v-344h73q187 0 187 174q0 79 -51 124.5t-148 45.5h-61zM168 719q0 -180 81.5 -330.5
t230.5 -240t335 -89.5t335 89.5t230.5 240t81.5 330.5t-81.5 330.5t-230.5 239.5t-335 89t-335 -89t-230.5 -239.5t-81.5 -330.5zM82 719q0 203 93 371.5t262 268t378 99.5t378 -99.5t262 -268t93 -371.5t-93 -371.5t-262 -268t-378 -99.5t-378 99.5t-262 268t-93 371.5z
" />
    <glyph glyph-name="dotbelow" horiz-adv-x="1024" 
d="M512 -381q-55 0 -94 40t-39 97t39 97.5t94 40.5t94 -40.5t39 -97.5t-39 -97t-94 -40z" />
    <glyph glyph-name="exclamdown.cap" horiz-adv-x="598" 
d="M150 1309q0 63 43 106t106 43t106.5 -43t43.5 -106t-43.5 -106.5t-106.5 -43.5t-106 43.5t-43 106.5zM344 1022l88 -1022h-268l88 1022h92z" />
    <glyph glyph-name="questiondown.cap" horiz-adv-x="897" 
d="M246 270q0 -91 55.5 -143.5t153.5 -52.5q180 0 180 192v76h164q43 -40 43 -98q0 -113 -112.5 -190t-270.5 -77q-186 0 -295 87.5t-109 254.5q0 82 32.5 153t83.5 124t132 113q87 63 122.5 120t35.5 146v65h59q60 -110 60 -184q0 -87 -37.5 -157.5t-124.5 -141.5
q-38 -32 -55.5 -47.5t-45 -45.5t-39.5 -54.5t-22 -61t-10 -78.5zM641 1307q0 -63 -43 -106.5t-106 -43.5t-106.5 43.5t-43.5 106.5t43.5 106t106.5 43t106 -43t43 -106z" />
    <glyph glyph-name="guilsinglleft.cap" horiz-adv-x="610" 
d="M102 715v20l330 389h96l-235 -399l235 -399h-96z" />
    <glyph glyph-name="guilsinglright.cap" horiz-adv-x="610" 
d="M508 735v-20l-330 -389h-96l235 399l-235 399h96z" />
    <glyph glyph-name="guillemotleft.cap" horiz-adv-x="976" 
d="M102 715v20l330 389h96l-235 -399l235 -399h-96zM469 715v20l330 389h96l-236 -399l236 -399h-96z" />
    <glyph glyph-name="guillemotright.cap" horiz-adv-x="976" 
d="M508 735v-20l-330 -389h-96l235 399l-235 399h96zM874 735v-20l-329 -389h-96l235 399l-235 399h96z" />
    <glyph glyph-name="slash.cap" horiz-adv-x="815" 
d="M743 1577l-544 -1784h-127l544 1784h127z" />
    <glyph glyph-name="backslash.cap" horiz-adv-x="815" 
d="M616 -207l-544 1784h127l544 -1784h-127z" />
    <glyph glyph-name="bar.cap" horiz-adv-x="526" 
d="M322 1577v-1784h-117v1784h117z" />
    <glyph glyph-name="brokenbar.cap" horiz-adv-x="526" 
d="M322 1577v-760h-117v760h117zM322 553v-760h-117v760h117z" />
    <glyph glyph-name="bullet.cap" horiz-adv-x="724" 
d="M113 727q0 103 73 176.5t176 73.5t176.5 -73.5t73.5 -176.5t-73.5 -176.5t-176.5 -73.5t-176 73.5t-73 176.5z" />
    <glyph glyph-name="periodcentered.cap" horiz-adv-x="524" 
d="M113 729q0 63 43 106.5t106 43.5t106.5 -43.5t43.5 -106.5t-43.5 -106t-106.5 -43t-106 43t-43 106z" />
    <glyph glyph-name="hyphen.cap" horiz-adv-x="737" 
d="M635 659h-533v156h533v-156z" />
    <glyph glyph-name="parenleft.cap" horiz-adv-x="692" 
d="M125 684q0 256 103 491t298 402h105q-185 -195 -260.5 -412.5t-75.5 -480.5t75.5 -480.5t260.5 -412.5h-105q-195 167 -298 402t-103 491z" />
    <glyph glyph-name="parenright.cap" horiz-adv-x="692" 
d="M567 684q0 -256 -103 -491t-298 -402h-105q185 195 260.5 412.5t75.5 480.5t-75.5 480.5t-260.5 412.5h105q195 -167 298 -402t103 -491z" />
    <glyph glyph-name="bracketleft.cap" horiz-adv-x="638" 
d="M315 1389v-1407q0 -26 5 -45t19.5 -32t29 -20.5t46 -12.5t57.5 -7.5t75 -5.5v-66h-373v1784h373v-66q-60 -4 -88.5 -6.5t-62.5 -10t-48 -20t-23.5 -33t-9.5 -52.5z" />
    <glyph glyph-name="bracketright.cap" horiz-adv-x="638" 
d="M324 -18v1407q0 32 -9.5 52.5t-23.5 33t-48 20t-62.5 10t-88.5 6.5v66h373v-1784h-373v66q49 3 75 5.5t57.5 7.5t46 12.5t29 20.5t19.5 32t5 45z" />
    <glyph glyph-name="braceleft.cap" horiz-adv-x="698" 
d="M102 670v32q170 35 170 205v408q0 120 93 191t241 71v-55q-82 -10 -134 -58t-52 -143v-406q0 -102 -40.5 -149.5t-146.5 -79.5q106 -32 146.5 -79.5t40.5 -149.5v-406q0 -95 52 -143t134 -58v-55q-148 0 -241 71t-93 191v408q0 170 -170 205z" />
    <glyph glyph-name="braceright.cap" horiz-adv-x="698" 
d="M596 702v-32q-170 -35 -170 -205v-408q0 -120 -93 -191t-241 -71v55q82 10 134.5 58t52.5 143v406q0 102 40.5 149.5t145.5 79.5q-105 32 -145.5 79.5t-40.5 149.5v406q0 95 -52.5 143t-134.5 58v55q148 0 241 -71t93 -191v-408q0 -170 170 -205z" />
    <glyph glyph-name="at.cap" horiz-adv-x="1826" 
d="M1241 295q-74 0 -121.5 34t-63 90t-11 122.5t27.5 138.5h-12q-71 -169 -171.5 -276t-197.5 -107q-87 0 -138.5 67t-51.5 187q0 154 72.5 298t188 232t236.5 88q117 0 185 -65l96 78h76l-56 -183l-102 -426q-8 -34 -10.5 -64.5t1.5 -62t23.5 -50.5t53.5 -19q61 0 120 35.5
t105.5 98.5t75 158t28.5 205q0 177 -68.5 311.5t-208.5 213t-337 78.5q-155 0 -293 -66t-235.5 -178t-154 -265t-56.5 -321q0 -202 90.5 -359.5t253 -244t370.5 -86.5q149 0 277 35.5t260 113.5l29 -61q-98 -85 -255.5 -134.5t-330.5 -49.5q-243 0 -432 96.5t-295.5 276.5
t-106.5 415q0 185 67.5 352.5t183.5 290t280 195t348 72.5q169 0 309 -51t235 -141.5t147 -217t52 -275.5q0 -130 -41.5 -241t-109.5 -183.5t-154.5 -113.5t-177.5 -41zM760 416q90 0 199.5 169t179.5 433q-39 76 -123 76q-96 0 -177 -90.5t-123 -213.5t-42 -235
q0 -67 22.5 -103t63.5 -36z" />
    <glyph glyph-name="macron.cap" horiz-adv-x="1024" 
d="M223 1604v127h578v-127h-578z" />
    <glyph glyph-name="breve.cap" horiz-adv-x="1024" 
d="M512 1552q-142 0 -226.5 85t-84.5 237h75q7 -96 75 -143.5t161 -47.5t161 47.5t75 143.5h75q0 -152 -84.5 -237t-226.5 -85z" />
    <glyph glyph-name="dotaccent.cap" horiz-adv-x="1024" 
d="M512 1571q-55 0 -94 40t-39 97t39 97t94 40t94 -40t39 -97t-39 -97t-94 -40z" />
    <glyph glyph-name="hungarumlaut.cap" horiz-adv-x="1024" 
d="M317 1864h218l-273 -305h-82zM625 1864h217l-273 -305h-82z" />
    <glyph glyph-name="endash.cap" horiz-adv-x="1187" 
d="M1085 670h-983v135h983v-135z" />
    <glyph glyph-name="emdash.cap" horiz-adv-x="2048" 
d="M1946 805v-135h-1844v135h1844z" />
    <glyph glyph-name="caron.Slovak" horiz-adv-x="1024" 
d="M631 1559l-168 -420h-72l41 420h199z" />
    <glyph glyph-name="commaturn" horiz-adv-x="1024" 
d="M469 1450h98q86 -17 86 -98q0 -49 -36 -79t-93 -30q-71 0 -112 44t-41 112q0 209 258 209v-68q-78 0 -119 -23.5t-41 -66.5z" />
    <glyph glyph-name="cedilla.alt" horiz-adv-x="1024" 
d="M412 -98h67q223 0 223 -152q0 -67 -50 -114t-131.5 -68t-186.5 -21l-12 68q113 0 176 24t63 70q0 86 -190 92z" />
    <glyph glyph-name="idotaccent" horiz-adv-x="657" 
d="M428 1106v-918q0 -27 8.5 -47t20 -31t35 -19t41.5 -11t53 -8v-72h-504v72q34 5 51.5 8t42 11t36 19t20 31t8.5 47v701l-148 72v43l285 102h51zM330 1251q-55 0 -94 40.5t-39 97.5t39 97t94 40t94 -40t39 -97t-39 -97.5t-94 -40.5z" />
    <glyph glyph-name="zero.op" horiz-adv-x="1286" 
d="M303 610q0 -232 89.5 -377t250.5 -145t250.5 145t89.5 377t-89.5 377.5t-250.5 145.5t-250.5 -145.5t-89.5 -377.5zM94 610q0 274 156 452.5t393 178.5t393 -178.5t156 -452.5t-156 -452t-393 -178t-393 178t-156 452z" />
    <glyph glyph-name="one.op" horiz-adv-x="874" 
d="M528 1223h45v-1010q0 -31 2 -48.5t13 -33t23 -22.5t45 -13.5t65 -9t96 -6.5v-80h-694v80q65 4 97 7t68 9t50 13.5t27.5 22t16.5 33.5t3 48v723h-283v74l64 8q100 13 160.5 34.5t105 60t96.5 110.5z" />
    <glyph glyph-name="two.op" horiz-adv-x="1034" 
d="M289 164h377q41 0 63.5 2t51.5 10t50 25.5t45.5 48t51.5 76.5h55l-70 -326h-866v45l328 311q58 54 92.5 88.5t80 88.5t70 99t42.5 104t18 120q0 105 -62 168t-174 63q-191 0 -331 -223l-52 43q63 149 180 241.5t267 92.5q174 0 272.5 -96.5t98.5 -249.5q0 -53 -13 -103.5
t-31 -91.5t-56 -90t-68.5 -82.5t-89 -86t-97.5 -85t-114 -94t-119 -98.5z" />
    <glyph glyph-name="three.op" horiz-adv-x="972" 
d="M504 586q184 -20 292.5 -129t108.5 -269q0 -123 -64 -220.5t-172 -150.5t-239 -53q-167 0 -279 60.5t-112 165.5q0 70 49 104h96q16 -105 82 -171t185 -66q117 0 190.5 79t73.5 211q0 158 -125.5 241t-335.5 83l-14 70q75 20 130.5 39t111.5 47.5t90.5 62.5t56.5 82
t22 107q0 96 -59.5 150t-157.5 54q-96 0 -172.5 -52t-126.5 -140l-47 41q56 136 162 222.5t258 86.5q156 0 247 -87.5t91 -225.5q0 -68 -32.5 -128t-85.5 -102t-110 -70t-114 -42z" />
    <glyph glyph-name="four.op" horiz-adv-x="1173" 
d="M178 295h529v663zM897 -217h-190v412h-678v71l774 977h94v-948h248v-100h-248v-412z" />
    <glyph glyph-name="five.op" horiz-adv-x="958" 
d="M440 -143q133 0 208 81t75 226q0 93 -45 167t-125.5 121.5t-185 75.5t-230.5 37l107 656h598v-183h-535l-47 -303q129 -13 237 -47.5t198.5 -95t142 -157t51.5 -220.5q0 -203 -135.5 -327t-341.5 -124q-156 0 -264.5 61t-108.5 165q0 70 49 104h94q16 -105 80.5 -171
t177.5 -66z" />
    <glyph glyph-name="six.op" horiz-adv-x="1181" 
d="M963 1393q-196 -56 -339.5 -157.5t-220.5 -226t-96 -268.5q67 76 165 121t202 45q186 0 302 -116t116 -308q0 -226 -137.5 -364.5t-352.5 -138.5q-152 0 -268.5 77.5t-178 210.5t-61.5 299q0 353 219.5 588.5t608.5 300.5zM569 778q-73 0 -145 -25t-121 -61
q-6 -55 -6 -121q0 -224 89.5 -359.5t231.5 -135.5q134 0 206.5 92.5t72.5 253.5q0 168 -86 262t-242 94z" />
    <glyph glyph-name="seven.op" horiz-adv-x="983" 
d="M805 1042h-506q-77 0 -116.5 -27t-80.5 -106h-73l86 312h839v-58l-594 -1380h-182z" />
    <glyph glyph-name="eight.op" horiz-adv-x="1126" 
d="M983 1114q0 -117 -82.5 -207t-195.5 -127l71 -35q124 -64 192 -150.5t68 -213.5q0 -83 -28 -154t-84 -127t-148.5 -88t-212.5 -32q-211 0 -342 106t-131 279q0 129 85 223t222 141l-24 12q-112 57 -171 136.5t-59 203.5q0 163 111.5 270t308.5 107q190 0 305 -95
t115 -249zM662 600l-213 102q-179 -113 -179 -337q0 -129 80.5 -209t212.5 -80q135 0 217 70t82 192q0 167 -200 262zM502 889l151 -80q87 53 124.5 128t37.5 177q0 114 -69 181t-183 67q-115 0 -180.5 -62.5t-65.5 -164.5q0 -86 44 -141t141 -105z" />
    <glyph glyph-name="dollar.op" horiz-adv-x="1046" 
d="M340 -231l33 219q-185 23 -277 108l-14 318h63q71 -252 246 -316l76 500l-80 35q-54 23 -91.5 42.5t-78 50t-65 65t-40.5 85t-16 111.5q0 155 114 257t306 102q8 0 66 -5l32 203h93l-35 -215q152 -29 237 -96v-289h-63q-47 208 -191 273l-71 -459l65 -27
q79 -33 128.5 -60.5t96.5 -70t69 -102t22 -138.5q0 -118 -65 -205.5t-171.5 -131t-239.5 -43.5h-24l-33 -211h-92zM567 557l-12 4l-76 -481h27q134 0 212.5 61t78.5 164q0 51 -15.5 90.5t-49 68.5t-71 49.5t-94.5 43.5zM262 1042q0 -85 47 -138t146 -93l43 -18l69 448
q-40 4 -61 4q-117 0 -180.5 -55t-63.5 -148z" />
    <glyph glyph-name="Euro.op" horiz-adv-x="1296" 
d="M43 727v86h176q41 248 190 390.5t361 142.5q237 0 385 -115v-295h-70q-70 307 -321 307q-144 0 -231.5 -119.5t-110.5 -310.5h504l-27 -86h-483v-41q0 -61 2 -92h446l-24 -86h-414q13 -95 40 -170.5t70 -134.5t108 -91t147 -32q72 0 126.5 21t95 65t69.5 102t55 142h73
l-34 -328q-189 -102 -392 -102q-242 0 -389 143t-180 385h-172v86h164v51q0 55 2 82h-166z" />
    <glyph glyph-name="sterling.op" horiz-adv-x="1249" 
d="M199 645v82h215l24 154q37 238 151.5 352.5t291.5 114.5q126 0 199 -49.5t73 -139.5q0 -41 -19 -74t-49 -47h-112v64q0 74 -27 113.5t-96 39.5q-88 0 -132.5 -87t-76.5 -277l-29 -164h308v-82h-320l-39 -235q-7 -54 -31 -134q211 -118 365 -118q203 0 203 204h51
q39 -56 39 -139q0 -243 -266 -243q-118 0 -234 57t-203 137q-97 -194 -264 -194q-94 0 -142 50.5t-48 131.5q0 86 58.5 141t152.5 55q56 0 112 -16l47 303h-202zM209 72q97 0 129 174q-60 24 -102 24q-54 0 -82.5 -30.5t-28.5 -77.5q0 -41 23.5 -65.5t60.5 -24.5z" />
    <glyph glyph-name="yen.op" horiz-adv-x="1316" 
d="M182 608v82h275l-297 492q-21 34 -49.5 49t-73.5 20v76h541v-76q-102 -1 -140.5 -17.5t-38.5 -55.5q0 -31 31 -84l266 -463l273 463q30 51 30 84q0 39 -37.5 55.5t-142.5 17.5v76h461v-76q-45 -5 -73 -19.5t-50 -49.5l-305 -492h278v-82h-329l-53 -86v-49h382v-86h-382
v-172q0 -83 46.5 -110t155.5 -29v-76h-596v76q111 2 159 29.5t48 109.5v172h-379v86h379v47l-53 88h-326z" />
    <glyph glyph-name="percent.op" horiz-adv-x="1642" 
d="M225 997q0 -118 41.5 -194t132.5 -76t132.5 76t41.5 194t-41.5 194.5t-132.5 76.5t-132.5 -76.5t-41.5 -194.5zM61 997q0 156 100.5 252.5t237.5 96.5t237.5 -96.5t100.5 -252.5t-100.5 -252t-237.5 -96t-237.5 96t-100.5 252zM1417 330q0 118 -41.5 194t-132.5 76
t-132.5 -76t-41.5 -194t41.5 -194.5t132.5 -76.5t132.5 76.5t41.5 194.5zM1300 1366l-837 -1405h-121l838 1405h120zM1581 330q0 -156 -100.5 -252t-237.5 -96t-237.5 96t-100.5 252t100.5 252t237.5 96t237.5 -96t100.5 -252z" />
    <glyph glyph-name="perthousand.op" horiz-adv-x="2410" 
d="M225 997q0 -118 41.5 -194t132.5 -76t132.5 76t41.5 194t-41.5 194.5t-132.5 76.5t-132.5 -76.5t-41.5 -194.5zM61 997q0 156 100.5 252.5t237.5 96.5t237.5 -96.5t100.5 -252.5t-100.5 -252t-237.5 -96t-237.5 96t-100.5 252zM1417 330q0 118 -41.5 194t-132.5 76
t-132.5 -76t-41.5 -194t41.5 -194.5t132.5 -76.5t132.5 76.5t41.5 194.5zM1300 1366l-837 -1405h-121l838 1405h120zM1581 330q0 -156 -100.5 -252t-237.5 -96t-237.5 96t-100.5 252t100.5 252t237.5 96t237.5 -96t100.5 -252zM2185 330q0 118 -41.5 194t-132.5 76
t-132.5 -76t-41.5 -194t41.5 -194.5t132.5 -76.5t132.5 76.5t41.5 194.5zM2349 330q0 -156 -100.5 -252t-237.5 -96t-237.5 96t-100.5 252t100.5 252t237.5 96t237.5 -96t100.5 -252z" />
    <glyph glyph-name="nine.op" horiz-adv-x="1181" 
d="M219 -172q196 56 339.5 157.5t220 225.5t95.5 268q-67 -76 -164.5 -121t-201.5 -45q-186 0 -302 116t-116 308q0 226 137.5 365t352.5 139q152 0 268.5 -78t177.5 -211t61 -299q0 -353 -219 -588.5t-608 -300.5zM612 442q73 0 145.5 25t121.5 61q6 55 6 121
q0 224 -90 360t-232 136q-134 0 -206 -92.5t-72 -253.5q0 -168 85.5 -262.5t241.5 -94.5z" />
    <glyph glyph-name="parenleft.sc" horiz-adv-x="679" 
d="M123 590q0 232 104 450t301 367h111q-188 -174 -266 -376.5t-78 -440.5t78 -440.5t266 -376.5h-111q-197 149 -301 367t-104 450z" />
    <glyph glyph-name="bracketleft.sc" horiz-adv-x="638" 
d="M315 1219v-1258q0 -26 5 -45t19.5 -32t29 -20.5t46 -12.5t57.5 -7.5t75 -5.5v-65h-373v1634h373v-66q-60 -4 -88.5 -6.5t-62.5 -10t-48 -20t-23.5 -33t-9.5 -52.5z" />
    <glyph glyph-name="braceleft.sc" horiz-adv-x="677" 
d="M213 590q105 -31 145.5 -79.5t40.5 -150.5v-331q0 -95 52.5 -143t134.5 -58v-55q-148 0 -241 71t-93 191v334q0 92 -45 140t-125 64v33q170 35 170 205v334q0 120 93 191t241 71v-55q-82 -10 -134.5 -58t-52.5 -143v-332q0 -102 -40.5 -149.5t-145.5 -79.5z" />
    <glyph glyph-name="parenright.sc" horiz-adv-x="679" 
d="M557 590q0 -232 -104 -450t-301 -367h-111q188 174 266 376.5t78 440.5t-78 440.5t-266 376.5h111q197 -149 301 -367t104 -450z" />
    <glyph glyph-name="bracketright.sc" horiz-adv-x="638" 
d="M324 -39v1258q0 32 -9.5 52.5t-23.5 33t-48 20t-62.5 10t-88.5 6.5v66h373v-1634h-373v65q49 3 75 5.5t57.5 7.5t46 12.5t29 20.5t19.5 32t5 45z" />
    <glyph glyph-name="braceright.sc" horiz-adv-x="677" 
d="M465 590q-105 32 -145.5 79.5t-40.5 149.5v332q0 95 -52.5 143t-134.5 58v55q148 0 241 -71t93 -191v-334q0 -170 170 -205v-33q-80 -16 -125 -64t-45 -140v-334q0 -120 -93 -191t-241 -71v55q82 10 134.5 58t52.5 143v331q0 102 40.5 150.5t145.5 79.5z" />
    <glyph glyph-name="slash.sc" horiz-adv-x="776" 
d="M735 1407l-567 -1636h-127l567 1636h127z" />
    <glyph glyph-name="backslash.sc" horiz-adv-x="776" 
d="M608 -229l-567 1636h127l567 -1636h-127z" />
    <glyph glyph-name="bar.sc" horiz-adv-x="526" 
d="M322 1407v-1636h-117v1636h117z" />
    <glyph glyph-name="brokenbar.sc" horiz-adv-x="526" 
d="M322 461v-690h-117v690h117zM322 1407v-690h-117v690h117z" />
    <glyph glyph-name="ampersand.sc" horiz-adv-x="1239" 
d="M47 319q0 128 75 211.5t210 137.5q-115 132 -115 272q0 130 90.5 215.5t235.5 85.5q151 0 234 -70t83 -186q0 -193 -301 -307l322 -363q43 85 43 189q0 62 -19 87t-69 25v76h358v-76q-70 0 -104 -11.5t-48 -36t-24 -79.5q-25 -132 -82 -235l74 -82q45 -50 87 -73t95 -23
v-76h-236q-63 35 -133 111q-143 -131 -356 -131q-82 0 -156 21.5t-133.5 62.5t-95 107t-35.5 148zM516 84q142 0 252 86q-2 2 -2 4l-391 444q-66 -34 -99.5 -102.5t-33.5 -157.5q0 -121 78.5 -197.5t195.5 -76.5zM371 997q0 -70 35.5 -129t99.5 -129l8 -10q97 39 144 100.5
t47 157.5q0 77 -45.5 124.5t-122.5 47.5q-76 0 -121 -43t-45 -119z" />
    <glyph glyph-name="question.sc" horiz-adv-x="776" 
d="M555 997q0 71 -44.5 113.5t-117.5 42.5q-162 0 -162 -160v-69h-149q-41 33 -41 90q0 98 98 162.5t242 64.5q165 0 259.5 -73.5t94.5 -217.5q0 -99 -53.5 -171.5t-159.5 -149.5q-76 -56 -107.5 -104.5t-31.5 -118.5v-56h-57q-58 90 -58 168q0 135 135 242q30 25 35.5 29.5
t30 26t30.5 30t21.5 29t20 36t9.5 38.5t5 48zM217 117q0 57 40 97t97 40t96 -40t39 -97q0 -58 -39 -97.5t-96 -39.5t-97 39.5t-40 97.5z" />
    <glyph glyph-name="questiondown.sc" horiz-adv-x="776" 
d="M221 244q0 -71 44.5 -113.5t117.5 -42.5q162 0 162 160v69h149q41 -33 41 -90q0 -98 -98 -162.5t-242 -64.5q-165 0 -259.5 73.5t-94.5 217.5q0 99 53.5 171.5t159.5 149.5q76 56 107.5 105t31.5 119v55h58q57 -88 57 -168q0 -135 -135 -242q-30 -25 -35.5 -29.5t-30 -26
t-30.5 -30t-21.5 -29t-20 -36t-9.5 -38.5t-5 -48zM559 1124q0 -57 -40 -97t-97 -40t-96 40t-39 97q0 58 39 98t96 40t97 -40t40 -98z" />
    <glyph glyph-name="exclam.sc" horiz-adv-x="518" 
d="M383 1221l-80 -854h-88l-80 854h248zM123 117q0 57 40 97t97 40t96 -40t39 -97q0 -58 -39 -97.5t-96 -39.5t-97 39.5t-40 97.5z" />
    <glyph glyph-name="exclamdown.sc" horiz-adv-x="518" 
d="M303 854l80 -854h-248l80 854h88zM123 1104q0 58 40 97.5t97 39.5t96 -39.5t39 -97.5q0 -57 -39 -97t-96 -40t-97 40t-40 97z" />
    <glyph glyph-name="zero.ot" 
d="M614 88q107 0 183 69t111.5 185t35.5 268t-35.5 268.5t-111.5 185.5t-183 69t-182.5 -69t-111 -185t-35.5 -269t35.5 -268.5t111 -184.5t182.5 -69zM614 -20q-155 0 -278 80.5t-191.5 224.5t-68.5 325t68.5 325t191.5 225t278 81t278.5 -81t192 -225t68.5 -325
q0 -275 -151.5 -452.5t-387.5 -177.5z" />
    <glyph glyph-name="one.ot" 
d="M702 1223h46v-1004q0 -35 10 -57.5t31.5 -38t64 -23.5t97.5 -11t143 -3v-86h-899v86q92 0 149.5 3t102.5 11t67.5 23.5t33.5 38t11 57.5v717h-344v74l125 12q99 9 160.5 30.5t105 59.5t96.5 111z" />
    <glyph glyph-name="two.ot" 
d="M358 164h406q43 0 67 2t54.5 10t52 25.5t47.5 48t53 76.5h52l-74 -326h-912v45l345 311q49 45 70.5 65t65.5 63t65.5 69.5t52.5 69t45.5 76.5t26 76.5t11.5 84.5q0 105 -64 168.5t-179 63.5q-116 0 -212.5 -65.5t-158.5 -162.5l-55 43q68 150 190.5 242t280.5 92
q183 0 287 -96.5t104 -249.5q0 -53 -13.5 -103.5t-33 -91.5t-59 -89.5t-72.5 -83t-94.5 -86.5t-102.5 -84.5t-120 -93.5t-126 -99z" />
    <glyph glyph-name="three.ot" 
d="M616 575q196 -20 312 -124t116 -263q0 -123 -67.5 -220.5t-182 -150.5t-253.5 -53q-176 0 -295 60.5t-119 165.5q0 69 53 104h101q16 -105 87 -170t201 -65q126 0 206.5 79.5t80.5 211.5q0 105 -64.5 178t-176 108t-261.5 35l-16 70q82 20 141 38.5t121 47t100 61.5
t62 81.5t24 107.5q0 99 -65.5 154.5t-173.5 55.5q-196 0 -320 -196l-47 41q60 136 171.5 222.5t273.5 86.5q165 0 261.5 -87.5t96.5 -225.5q0 -68 -35.5 -130t-91.5 -105.5t-118 -73.5t-122 -44z" />
    <glyph glyph-name="four.ot" 
d="M205 295h528v663zM924 -217h-191v412h-678v71l774 977h95v-948h247v-100h-247v-412z" />
    <glyph glyph-name="five.ot" 
d="M578 -141q138 0 215 81t77 226q0 93 -46.5 166.5t-131 121t-192.5 75t-240 36.5l111 656h624v-183h-557l-49 -303q106 -10 199 -33.5t178 -65t145.5 -98.5t96.5 -139t36 -182q0 -204 -140.5 -327t-356.5 -123q-162 0 -275.5 60.5t-113.5 164.5q0 70 51 104h96
q16 -104 85 -170.5t188 -66.5z" />
    <glyph glyph-name="six.ot" 
d="M993 1393q-301 -84 -476 -258.5t-204 -393.5q68 76 169 121t208 45q191 0 313.5 -116.5t122.5 -307.5q0 -226 -141 -364.5t-360 -138.5q-156 0 -276 77.5t-183.5 210.5t-63.5 299q0 353 225.5 588.5t624.5 300.5zM582 784q-75 0 -148.5 -27.5t-124.5 -64.5
q-6 -55 -6 -121q0 -223 95 -359t243 -136q139 0 215 92t76 254q0 170 -93 266t-257 96z" />
    <glyph glyph-name="seven.ot" 
d="M989 1042h-610q-77 0 -116.5 -27t-80.5 -106h-73l86 312h944v-58l-617 -1380h-182z" />
    <glyph glyph-name="eight.ot" 
d="M1055 1114q0 -117 -85.5 -207t-201.5 -127l74 -35q129 -64 198.5 -150.5t69.5 -213.5q0 -83 -29 -154t-86.5 -127t-152.5 -88t-219 -32q-216 0 -351 106t-135 279q0 129 87.5 223t228.5 141l-25 12q-115 57 -175 136t-60 204q0 163 114 270t316 107q196 0 314 -95
t118 -249zM725 600l-219 102q-184 -112 -184 -337q0 -129 83 -209t218 -80q140 0 224.5 70t84.5 192q0 165 -207 262zM561 889l156 -80q89 53 127.5 128.5t38.5 176.5q0 115 -71 181.5t-189 66.5t-185 -62.5t-67 -164.5q0 -87 45 -141.5t145 -104.5z" />
    <glyph glyph-name="nine.ot" 
d="M236 -172q301 84 475.5 258t203.5 393q-69 -76 -169 -121t-207 -45q-191 0 -314 116.5t-123 307.5q0 226 141.5 365t360.5 139q156 0 276 -78t183 -211t63 -299q0 -353 -225.5 -588.5t-624.5 -300.5zM647 436q75 0 148.5 27.5t124.5 64.5q6 55 6 121q0 223 -95 359.5
t-243 136.5q-139 0 -215 -92t-76 -254q0 -170 93 -266.5t257 -96.5z" />
    <glyph glyph-name="zero.lt" 
d="M303 719q0 -87 5 -160t17 -148.5t35 -132.5t56.5 -103t83.5 -70.5t114 -24.5t114 24.5t83.5 70.5t56.5 103t35.5 132.5t17.5 148.5t5 160t-5 160t-17.5 148t-35.5 132t-56.5 103t-83.5 70t-114 24t-114 -24t-83.5 -70t-56.5 -103t-35 -132.5t-17 -148t-5 -159.5z
M1155 719q0 -125 -20.5 -235t-64.5 -203t-107 -159.5t-152 -104t-197 -37.5q-134 0 -238.5 57t-169.5 158.5t-98.5 234t-33.5 289.5t33.5 289.5t98.5 234t169.5 158.5t238.5 57q108 0 197 -37.5t152 -104t107 -159.5t64.5 -203t20.5 -235z" />
    <glyph glyph-name="one.lt" 
d="M690 1458h45v-1239q0 -35 10 -57.5t31.5 -38t64 -23.5t97.5 -11t143 -3v-86h-911v86q115 0 180 4.5t109.5 19.5t60 40.5t15.5 68.5v952h-345v74l125 12q147 13 223 54.5t152 146.5z" />
    <glyph glyph-name="two.lt" 
d="M324 174h346q59 0 96 3.5t75 15t65.5 35t56 61.5t59.5 96h57l-86 -385h-932v45l371 377q213 215 287 336.5t74 251.5q0 136 -76 209t-217 73q-59 0 -110.5 -15.5t-97.5 -47t-77 -59.5t-74 -72l-49 47q35 63 80 116t104.5 99t137 72t164.5 26q200 0 314 -111.5t114 -299.5
q0 -72 -27.5 -145.5t-67.5 -133.5t-113.5 -139t-135.5 -136.5t-165.5 -154t-172.5 -164.5z" />
    <glyph glyph-name="three.lt" 
d="M666 813q199 -20 318.5 -126t119.5 -261q0 -137 -72 -240t-189 -154.5t-259 -51.5q-223 0 -350.5 84t-127.5 202q0 50 28 88t67 58h114v-70q0 -128 73.5 -199t207.5 -71q140 0 218.5 77.5t78.5 212.5q0 157 -118 240.5t-312 83.5h-82l-14 70q80 19 141 39.5t119.5 50
t96 65t60.5 84t23 107.5q0 96 -64.5 150.5t-169.5 54.5q-102 0 -186.5 -55t-138.5 -144l-51 41q59 135 174 222t278 87q170 0 267.5 -87.5t97.5 -225.5q0 -68 -31.5 -126.5t-84 -98.5t-111 -66.5t-121.5 -40.5z" />
    <glyph glyph-name="four.lt" 
d="M184 475h535v678zM719 229v140h-684v77l780 992h98v-963h248v-106h-248v-140q0 -88 49 -117t164 -32v-80h-620v80q115 3 164 32t49 117z" />
    <glyph glyph-name="five.lt" 
d="M1012 1438v-195h-588l-53 -313q124 -6 228.5 -25.5t194.5 -58.5t153 -94.5t98.5 -136.5t35.5 -181q0 -201 -134 -327.5t-351 -126.5q-215 0 -338 84t-123 202q0 50 26 88.5t64 57.5h121v-70q0 -129 66.5 -199.5t193.5 -70.5q140 0 215.5 78.5t75.5 211.5q0 100 -49 176.5
t-138.5 123t-207.5 70t-262 24.5l110 682h662z" />
    <glyph glyph-name="six.lt" 
d="M997 1391q-296 -84 -472 -258.5t-206 -391.5q68 76 168.5 121t206.5 45q193 0 313.5 -113.5t120.5 -310.5q0 -226 -140 -364.5t-359 -138.5q-164 0 -285 78t-181.5 210t-60.5 299q0 353 227 588.5t625 300.5zM584 776q-74 0 -146.5 -26.5t-122.5 -63.5q-6 -53 -6 -117
q0 -222 93.5 -357.5t238.5 -135.5q137 0 212 90t75 252q0 170 -91 264t-253 94z" />
    <glyph glyph-name="seven.lt" 
d="M954 1243h-598q-76 0 -115.5 -26.5t-80.5 -106.5h-74l86 328h932v-58l-584 -1380h-223z" />
    <glyph glyph-name="eight.lt" 
d="M1059 1114q0 -116 -85 -204.5t-202 -125.5l72 -34q130 -63 201 -152t71 -217q0 -83 -29.5 -154t-88 -127t-155 -88t-220.5 -32q-220 0 -357 106t-137 279q0 129 88 221t232 139l-25 12q-115 57 -176.5 138t-61.5 206q0 164 115.5 270.5t321.5 106.5q198 0 317 -94.5
t119 -249.5zM725 596l-221 102q-187 -111 -187 -333q0 -129 84 -209t222 -80q141 0 226 70t85 192q0 91 -55.5 152t-153.5 106zM557 893l160 -80q91 54 130.5 127.5t39.5 173.5q0 115 -72 181.5t-192 66.5q-121 0 -189.5 -62.5t-68.5 -164.5q0 -86 45.5 -138.5t146.5 -103.5
z" />
    <glyph glyph-name="nine.lt" 
d="M231 45q297 84 472.5 258t205.5 391q-68 -76 -168 -121t-206 -45q-193 0 -314 113.5t-121 310.5q0 226 140.5 365t359.5 139q164 0 284.5 -78t181 -210t60.5 -300q0 -352 -227 -587.5t-625 -300.5zM645 659q73 0 145 27t123 64q7 61 7 116q0 223 -93.5 358.5
t-238.5 135.5q-137 0 -212 -90t-75 -252q0 -170 91 -264.5t253 -94.5z" />
    <glyph glyph-name="dollar.ot" 
d="M430 -231l33 219q-185 23 -277 108l-14 318h64q71 -253 245 -316l76 500l-80 35q-54 23 -91.5 42.5t-78 50t-65 65t-40.5 85t-16 111.5q0 155 114 257t306 102q8 0 66 -5l33 203h92l-35 -215q152 -29 237 -96v-289h-63q-47 208 -191 273l-71 -459l65 -27
q79 -33 128.5 -60.5t96.5 -70t69 -102t22 -138.5q0 -177 -135.5 -278.5t-339.5 -101.5h-25l-33 -211h-92zM657 557l-12 4l-76 -481h27q134 0 212.5 61t78.5 164q0 51 -15.5 90.5t-49 68.5t-71 49.5t-94.5 43.5zM352 1042q0 -85 47 -138t146 -93l43 -18l69 448q-40 4 -61 4
q-117 0 -180.5 -55t-63.5 -148z" />
    <glyph glyph-name="Euro.ot" 
d="M49 727v86h170q38 247 182 390t347 143q227 0 368 -115v-295h-72q-64 307 -303 307q-94 0 -163 -58.5t-106 -152.5t-50 -219h477l-31 -86h-452v-41q0 -61 2 -92h418l-23 -86h-387q51 -428 340 -428q69 0 121.5 21t91 65t65.5 101.5t52 142.5h73l-32 -328
q-182 -102 -377 -102q-232 0 -372.5 143t-172.5 385h-166v86h158v51q0 55 2 82h-160z" />
    <glyph glyph-name="sterling.ot" 
d="M203 645v82h215l24 154q73 467 437 467q126 0 199 -49.5t73 -139.5q0 -41 -19 -74t-49 -47h-112v64q0 74 -27 113.5t-96 39.5q-46 0 -78.5 -23t-55.5 -74t-38 -111t-31 -156l-29 -164h308v-82h-320l-39 -235q-8 -60 -30 -134q100 -56 183.5 -87t172.5 -31q203 0 203 204
h51q39 -56 39 -139q0 -243 -266 -243q-118 0 -229 56t-200 138q-97 -194 -264 -194q-94 0 -142 50.5t-48 131.5q0 86 58.5 141t152.5 55q56 0 112 -16l48 303h-203zM213 72q97 0 129 174q-60 24 -102 24q-54 0 -82.5 -30.5t-28.5 -77.5q0 -41 23.5 -65.5t60.5 -24.5z" />
    <glyph glyph-name="yen.ot" 
d="M160 629v82h239l-243 471q-33 60 -123 69v76h530v-76q-102 -1 -140 -17.5t-38 -55.5q0 -11 3 -23t5.5 -18t11.5 -23.5t11 -21.5l239 -484l252 484q3 5 8.5 16.5t8.5 18t7 16t5.5 18t1.5 17.5q0 39 -37.5 55.5t-142.5 17.5v76h438v-76q-49 -5 -76 -18t-47 -51l-250 -471
h244v-82h-289l-71 -135h360v-86h-362v-193q0 -83 46.5 -110t155.5 -29v-76h-596v76q111 2 159 29.5t48 109.5v193h-358v86h354l-72 135h-282z" />
    <glyph glyph-name="percent.ot" horiz-adv-x="1843" 
d="M326 997q0 -118 41.5 -194t132.5 -76t132.5 76t41.5 194t-41.5 194.5t-132.5 76.5t-132.5 -76.5t-41.5 -194.5zM162 997q0 156 100.5 252.5t237.5 96.5t237.5 -96.5t100.5 -252.5t-100.5 -252t-237.5 -96t-237.5 96t-100.5 252zM1518 330q0 75 -15.5 133t-56.5 97.5
t-103 39.5q-91 0 -132.5 -76t-41.5 -194t41.5 -194.5t132.5 -76.5q62 0 103 39.5t56.5 97.5t15.5 134zM1401 1366l-838 -1405h-121l838 1405h121zM1681 330q0 -156 -100.5 -252t-237.5 -96t-237 96t-100 252t100 252t237 96t237.5 -96t100.5 -252z" />
    <glyph glyph-name="perthousand.ot" horiz-adv-x="2662" 
d="M350 997q0 -118 41.5 -194t132.5 -76t132.5 76t41.5 194t-41.5 194.5t-132.5 76.5t-132.5 -76.5t-41.5 -194.5zM186 997q0 156 100.5 252.5t237.5 96.5t237.5 -96.5t100.5 -252.5t-100.5 -252t-237.5 -96t-237.5 96t-100.5 252zM1542 330q0 118 -41.5 194t-132.5 76
t-132.5 -76t-41.5 -194t41.5 -194.5t132.5 -76.5t132.5 76.5t41.5 194.5zM1425 1366l-837 -1405h-121l838 1405h120zM1706 330q0 -156 -100.5 -252t-237.5 -96t-237.5 96t-100.5 252t100.5 252t237.5 96t237.5 -96t100.5 -252zM2310 330q0 118 -41.5 194t-132.5 76
t-132.5 -76t-41.5 -194t41.5 -194.5t132.5 -76.5t132.5 76.5t41.5 194.5zM2474 330q0 -156 -100.5 -252t-237.5 -96t-237.5 96t-100.5 252t100.5 252t237.5 96t237.5 -96t100.5 -252z" />
    <glyph glyph-name="dollar.lt" 
d="M399 -231l37 221q-181 28 -280 114l-15 345h68q71 -263 248 -336l90 538l-80 35q-58 25 -98.5 46t-83.5 54.5t-69 71t-43 92t-17 121.5q0 167 121 277t323 110q28 0 82 -4l37 213h92l-39 -227q161 -33 246 -103v-313h-66q-53 222 -200 293l-84 -494l73 -30
q66 -27 111.5 -50t91 -57.5t72.5 -73.5t44 -95t17 -126q0 -128 -68.5 -222.5t-182 -141.5t-255.5 -47q-31 0 -45 2l-34 -213h-93zM657 606l-24 10l-88 -526q14 -2 45 -2q142 0 225.5 66.5t83.5 177.5q0 55 -16.5 97.5t-51.5 74.5t-74 54t-100 48zM332 1130q0 -92 50 -150
t155 -101l45 -21l82 485q-40 7 -74 7q-122 0 -190 -60.5t-68 -159.5z" />
    <glyph glyph-name="Euro.lt" 
d="M31 786v88h141q38 272 188.5 428t368.5 156q244 0 393 -123v-315h-75q-37 168 -117.5 248t-208.5 80q-101 0 -174 -65.5t-111 -168.5t-51 -240h518l-29 -88h-495v-43q0 -67 2 -100h459l-27 -88h-426q51 -467 363 -467q74 0 129 21.5t95.5 68.5t69 109t54.5 153h82
l-35 -350q-195 -110 -402 -110q-249 0 -396 155t-179 420h-137v88h129v55q0 59 2 88h-131z" />
    <glyph glyph-name="sterling.lt" 
d="M182 698v88h221l25 168q37 257 155 380.5t298 123.5q129 0 205.5 -53.5t76.5 -149.5q0 -45 -18.5 -81t-48.5 -50h-121v74q0 79 -27.5 121.5t-99.5 42.5q-89 0 -135 -95.5t-78 -301.5l-29 -179h314v-88h-328l-39 -254q-8 -59 -31 -143q211 -129 373 -129q105 0 159 48.5
t54 172.5h47q41 -59 41 -149q0 -264 -274 -264q-121 0 -238.5 61.5t-206.5 148.5q-100 -210 -270 -210q-98 0 -147.5 54t-49.5 142q0 94 60 153.5t155 59.5q61 0 117 -18l47 327h-207zM193 80q98 0 133 186q-62 27 -107 27q-56 0 -84.5 -33t-28.5 -84q0 -44 24 -70t63 -26z
" />
    <glyph glyph-name="yen.lt" 
d="M156 647v90h270l-291 545q-35 64 -115 76v80h525v-80q-98 -3 -133 -20.5t-35 -59.5q0 -36 26 -90l252 -502l265 502q28 58 28 90q0 42 -35 59.5t-133 20.5v80h428v-80q-41 -6 -67 -22.5t-47 -53.5l-301 -545h276v-90h-326l-36 -69v-76h362v-90h-362v-183q0 -88 49 -117
t162 -32v-80h-619v80q115 3 164 32t49 117v183h-356v90h356v73l-39 72h-317z" />
    <glyph glyph-name="percent.lt" horiz-adv-x="1843" 
d="M283 1085q0 -59 10.5 -109.5t32 -91.5t59.5 -64t88 -23q67 0 112 41.5t63 104t18 142.5q0 81 -18 143.5t-63 104t-112 41.5q-66 0 -110 -41.5t-62 -104t-18 -143.5zM399 -39l922 1518h121l-922 -1518h-121zM117 1085q0 167 105 270t251 103q147 0 252.5 -103t105.5 -270
t-105.5 -269.5t-252.5 -102.5q-146 0 -251 102.5t-105 269.5zM1559 354q0 80 -18 143t-62.5 104.5t-110.5 41.5q-51 0 -89 -23.5t-60 -64.5t-32.5 -91.5t-10.5 -109.5t10.5 -109.5t32.5 -91.5t60 -64t89 -23q66 0 110.5 41.5t62.5 104t18 142.5zM1724 354
q0 -167 -105 -269.5t-251 -102.5q-147 0 -252.5 102.5t-105.5 269.5t105.5 270t252.5 103q146 0 251 -103t105 -270z" />
    <glyph glyph-name="perthousand.lt" horiz-adv-x="2662" 
d="M295 1085q0 -59 10.5 -109.5t32 -91.5t59.5 -64t88 -23q67 0 112 41.5t63 104t18 142.5q0 81 -18 143.5t-63 104t-112 41.5q-66 0 -110 -41.5t-62 -104t-18 -143.5zM412 -39l921 1518h121l-922 -1518h-120zM129 1085q0 167 105 270t251 103q147 0 253 -103t106 -270
t-106 -269.5t-253 -102.5q-146 0 -251 102.5t-105 269.5zM1571 354q0 80 -18 143t-62.5 104.5t-110.5 41.5q-51 0 -89 -23.5t-60 -64.5t-32.5 -91.5t-10.5 -109.5t10.5 -109.5t32.5 -91.5t60 -64t89 -23q66 0 110.5 41.5t62.5 104t18 142.5zM1737 354q0 -167 -105.5 -269.5
t-251.5 -102.5q-147 0 -252.5 102.5t-105.5 269.5t105.5 270t252.5 103q146 0 251.5 -103t105.5 -270zM2367 354q0 81 -18 143.5t-62 104t-110 41.5q-51 0 -89 -23.5t-60 -64.5t-32.5 -91.5t-10.5 -109.5t10.5 -109.5t32.5 -91.5t60 -64t89 -23q50 0 88 23t59.5 64t32 91.5
t10.5 109.5zM2533 354q0 -167 -105 -269.5t-251 -102.5q-147 0 -252.5 102.5t-105.5 269.5t105.5 270t252.5 103q146 0 251 -103t105 -270z" />
    <glyph glyph-name="plus.op" horiz-adv-x="1155" 
d="M514 1085h125v-385h387v-127h-387v-385h-125v385h-385v127h385v385z" />
    <glyph glyph-name="minus.op" horiz-adv-x="1155" 
d="M129 573v127h897v-127h-897z" />
    <glyph glyph-name="multiply.op" horiz-adv-x="999" 
d="M410 627l-281 282l90 90l279 -284l282 284l90 -90l-282 -282l282 -281l-90 -86l-282 279l-279 -279l-90 86z" />
    <glyph glyph-name="divide.op" horiz-adv-x="1155" 
d="M129 573v127h897v-127h-897zM461 291q0 49 33.5 84t80.5 35q48 0 83.5 -35t35.5 -84q0 -46 -36 -81.5t-83 -35.5t-80.5 35.5t-33.5 81.5zM461 983q0 47 33.5 81t80.5 34q48 0 83.5 -34t35.5 -81t-36 -83t-83 -36t-80.5 35.5t-33.5 83.5z" />
    <glyph glyph-name="equal.op" horiz-adv-x="1175" 
d="M139 432v125h897v-125h-897zM139 715v127h897v-127h-897z" />
    <glyph glyph-name="less.op" horiz-adv-x="845" 
d="M82 623v20l635 387v-156l-408 -239l408 -244v-155z" />
    <glyph glyph-name="greater.op" horiz-adv-x="845" 
d="M764 643v-20l-635 -387v155l410 244l-410 239v156z" />
    <glyph glyph-name="plusminus.op" horiz-adv-x="1155" 
d="M514 1110h125v-293h387v-125h-387v-291h-125v291h-385v125h385v293zM129 172v125h897v-125h-897z" />
    <glyph glyph-name="lessequal.op" horiz-adv-x="886" 
d="M102 694v19l635 340v-146l-389 -202l389 -203v-148zM102 172v125h635v-125h-635z" />
    <glyph glyph-name="greaterequal.op" horiz-adv-x="886" 
d="M784 713v-19l-634 -340v148l389 203l-389 202v146zM784 297v-125h-634v125h634z" />
    <glyph glyph-name="notequal.op" horiz-adv-x="1175" 
d="M139 715v127h531l155 211h142l-156 -211h225v-127h-319l-115 -158h434v-125h-526l-156 -213h-141l156 213h-230v125h322l117 158h-439z" />
    <glyph glyph-name="approxequal.op" horiz-adv-x="1175" 
d="M139 666v135q127 82 242 82q78 0 205.5 -40t204.5 -40q120 0 245 82v-135q-125 -82 -245 -82q-77 0 -204.5 40t-205.5 40q-115 0 -242 -82zM139 401v134q121 81 242 81q78 0 205.5 -38.5t204.5 -38.5q124 0 245 79v-135q-122 -80 -245 -80q-77 0 -204.5 39t-205.5 39
q-118 0 -242 -80z" />
    <glyph glyph-name="plus.lt" 
d="M551 1208h125v-385h387v-127h-387v-385h-125v385h-385v127h385v385z" />
    <glyph glyph-name="minus.lt" 
d="M166 696v127h897v-127h-897z" />
    <glyph glyph-name="multiply.lt" 
d="M524 750l-280 282l90 90l278 -284l283 284l90 -90l-283 -282l283 -281l-90 -86l-283 279l-278 -279l-90 86z" />
    <glyph glyph-name="divide.lt" 
d="M166 696v127h897v-127h-897zM498 414q0 49 33.5 83.5t80.5 34.5q48 0 83.5 -34.5t35.5 -83.5q0 -46 -36 -81.5t-83 -35.5t-80.5 35.5t-33.5 81.5zM498 1106q0 47 33.5 81t80.5 34q48 0 83.5 -34t35.5 -81t-36 -83t-83 -36t-80.5 35.5t-33.5 83.5z" />
    <glyph glyph-name="equal.lt" 
d="M166 555v125h897v-125h-897zM166 838v127h897v-127h-897z" />
    <glyph glyph-name="less.lt" 
d="M297 745v21l635 387v-156l-408 -239l408 -244v-156z" />
    <glyph glyph-name="greater.lt" 
d="M932 766v-21l-635 -387v156l410 244l-410 239v156z" />
    </font>
</defs>
</svg>
