<svg xmlns="http://www.w3.org/2000/svg" width="20" height="20" viewBox="0 0 20 20">
  <path id="iconmonstr-bell-8" d="M12.5,17.5A2.555,2.555,0,0,1,10.024,20,2.6,2.6,0,0,1,7.5,17.5Zm.114-14.212a1.752,1.752,0,0,1-.867-1.517v0a1.747,1.747,0,1,0-3.494,0v0a1.75,1.75,0,0,1-.867,1.517C3.495,5.545,5.731,13.05,1.667,14.376v1.458H18.333V14.376C14.269,13.05,16.505,5.544,12.614,3.287ZM10,.833a.833.833,0,1,1-.833.833A.834.834,0,0,1,10,.833ZM4.624,14.167A12.183,12.183,0,0,0,6.261,9.321c.372-1.992.724-3.873,1.962-4.591a3.483,3.483,0,0,1,3.556,0c1.237.718,1.589,2.6,1.962,4.591a12.183,12.183,0,0,0,1.637,4.846Zm12.69-6.4a2.232,2.232,0,0,1-.253,1.7l.808.487a3.184,3.184,0,0,0-1.088-4.369l-.485.808a2.234,2.234,0,0,1,1.018,1.378Zm.33-3.622-.5.829a3.891,3.891,0,0,1,1.329,5.34l.828.5a4.856,4.856,0,0,0-1.66-6.667ZM3.7,6.389l-.485-.808A3.184,3.184,0,0,0,2.13,9.95l.808-.487A2.242,2.242,0,0,1,3.7,6.389ZM0,8.312a4.854,4.854,0,0,0,.7,2.5l.828-.5A3.89,3.89,0,0,1,2.852,4.975l-.5-.829A4.854,4.854,0,0,0,0,8.312Z" transform="translate(0 0)" fill="#de9f29"/>
</svg>
