<svg xmlns="http://www.w3.org/2000/svg" width="24" height="24" viewBox="0 0 24 24">
  <path id="iconmonstr-calendar-9" d="M17,3V1a1,1,0,0,1,2,0V3a1,1,0,0,1-2,0ZM5,4A1,1,0,0,0,6,3V1A1,1,0,0,0,4,1V3A1,1,0,0,0,5,4ZM18,17V14H17v4h3V17Zm-5,.5A4.5,4.5,0,1,0,17.5,13,4.505,4.505,0,0,0,13,17.5Zm11,0A6.5,6.5,0,1,1,17.5,11,6.5,6.5,0,0,1,24,17.5ZM9.763,21H2V8H21V9.763a8.525,8.525,0,0,1,2,1.268V2H20V3a2.007,2.007,0,0,1-2.658,1.894A2.054,2.054,0,0,1,16,2.91V2H7V3A2.007,2.007,0,0,1,4.342,4.894,2.054,2.054,0,0,1,3,2.91V2H0V23H11.031A8.525,8.525,0,0,1,9.763,21Z"/>
</svg>
