<svg xmlns="http://www.w3.org/2000/svg" width="14" height="14" viewBox="0 0 24 24" role="presentation" icon-name="close" data-v-5cfb6d82=""><g fill="currentColor" data-v-5cfb6d82=""><g stroke="none" stroke-width="1" fill="none" fill-rule="evenodd" data-v-5cfb6d82=""><g transform="translate(-332.000000, -27.000000)" fill="#ffffff"><g transform="translate(20.000000, 20.000000)"><g transform="translate(312.000000, 7.000000)"><path d="M19.6316667,18.4933333 L19.6516667,18.4733333 L11.1783333,10 L19.755,1.42333333 C19.9066667,1.27166667 20,1.06333333 20,0.833333333 C20,0.373333333 19.6266667,0 19.1666667,0 C18.9366667,0 18.7283333,0.0933333333 18.5766667,0.245 L10,8.82166667 L1.42333333,0.245 C1.27166667,0.0933333333 1.06333333,0 0.833333333,0 C0.373333333,0 0,0.373333333 0,0.833333333 C0,1.06333333 0.0933333333,1.27166667 0.245,1.42166667 L8.82166667,10 L0.245,18.5766667 C0.0933333333,18.7283333 0,18.9366667 0,19.1666667 C0,19.6266667 0.373333333,20 0.833333333,20 C1.06333333,20 1.27166667,19.9066667 1.42333333,19.755 L10,11.1783333 L18.4733333,19.6516667 L18.4933333,19.6316667 C18.6433333,19.8483333 18.8833333,20 19.1666667,20 C19.6266667,20 20,19.6266667 20,19.1666667 C20,18.8816667 19.8483333,18.6433333 19.6316667,18.4933333"></path></g></g></g></g></g></svg>