<svg xmlns="http://www.w3.org/2000/svg" width="14" height="24" viewBox="0 0 14 24">
  <path id="iconmonstr-light-bulb-6" d="M19,6.734C19,10.9,15.25,13.714,15.25,17H13.258a11.113,11.113,0,0,1,1.968-5.513C16.139,9.9,17,8.4,17,6.734A4.728,4.728,0,0,0,12,2,4.724,4.724,0,0,0,7,6.734C7,8.4,7.861,9.9,8.774,11.487A11.112,11.112,0,0,1,10.741,17H8.75C8.75,13.714,5,10.9,5,6.734,5,2.391,8.5,0,12,0S19,2.394,19,6.734ZM15,18.5a.5.5,0,0,1-.5.5h-5a.5.5,0,0,1,0-1h5A.5.5,0,0,1,15,18.5Zm0,2a.5.5,0,0,1-.5.5h-5a.5.5,0,0,1,0-1h5A.5.5,0,0,1,15,20.5Zm-1.7,3.159a1,1,0,0,1-.752.341H11.453a1,1,0,0,1-.752-.341L9.25,22h5.5ZM15.312,4.892A2.355,2.355,0,0,0,14.252,6.2c-.556,1.609.373,2.928-.235,4.432a2.236,2.236,0,0,1-1.889,1.41A12.556,12.556,0,0,0,12.673,17H11.56a14.289,14.289,0,0,1,1.025-8.764A6.6,6.6,0,0,0,10.8,11.8c-2.738-1.642-.659-6.91,4.517-6.91Z" transform="translate(-5)"/>
</svg>
